<svg width="232" height="34" viewBox="0 0 232 34" fill="none" xmlns="http://www.w3.org/2000/svg">
<path id="(20x20) Outlined" d="M0.993656 16.744C0.993656 13.1787 1.68432 9.97733 3.06566 7.14C4.44699 4.30267 6.26699 2.00667 8.52566 0.251998H12.3617V0.643998C7.32166 4.80667 4.80166 10.1733 4.80166 16.744C4.80166 23.3147 7.32166 28.6813 12.3617 32.844V33.208H8.52566C6.26699 31.4533 4.44699 29.1667 3.06566 26.348C1.68432 23.5107 0.993656 20.3093 0.993656 16.744ZM12.3446 24.892C18.6726 20.5053 21.8366 16.8653 21.8366 13.972C21.8366 13.0947 21.6219 12.404 21.1926 11.9C20.7819 11.396 20.1286 11.144 19.2326 11.144C17.3846 11.144 16.4046 12.404 16.2926 14.924H12.4566C12.5686 12.5907 13.2779 10.8267 14.5846 9.632C15.8913 8.41867 17.5433 7.812 19.5406 7.812C21.5753 7.812 23.1339 8.344 24.2166 9.408C25.3179 10.4533 25.8686 11.8533 25.8686 13.608C25.8686 14.9893 25.4579 16.38 24.6366 17.78C23.8339 19.1613 22.8073 20.44 21.5566 21.616C20.3059 22.7733 18.9899 23.772 17.6086 24.612H26.2606V27.832H12.3446V24.892ZM28.484 17.948C28.484 24.6493 31.004 28 36.044 28C38.7133 28 40.636 27.104 41.812 25.312C42.988 23.52 43.576 21.0653 43.576 17.948C43.576 14.8493 42.988 12.404 41.812 10.612C40.636 8.82 38.7133 7.924 36.044 7.924C31.004 7.924 28.484 11.2653 28.484 17.948ZM39.684 17.948C39.684 19.9827 39.432 21.5507 38.928 22.652C38.4426 23.7347 37.4813 24.276 36.044 24.276C34.588 24.276 33.608 23.7347 33.104 22.652C32.6186 21.5507 32.376 19.9827 32.376 17.948C32.376 15.932 32.6186 14.3827 33.104 13.3C33.608 12.1987 34.588 11.648 36.044 11.648C37.4813 11.648 38.4426 12.1987 38.928 13.3C39.432 14.3827 39.684 15.932 39.684 17.948ZM56.0874 28L52.5594 23.016L49.5914 28H45.2514L50.3754 19.908L45.1394 12.488H49.5634L53.0074 17.388L55.9754 12.488H60.3154L55.1074 20.356L60.5114 28H56.0874ZM61.7821 24.892C68.1101 20.5053 71.2741 16.8653 71.2741 13.972C71.2741 13.0947 71.0594 12.404 70.6301 11.9C70.2194 11.396 69.5661 11.144 68.6701 11.144C66.8221 11.144 65.8421 12.404 65.7301 14.924H61.8941C62.0061 12.5907 62.7154 10.8267 64.0221 9.632C65.3288 8.41867 66.9808 7.812 68.9781 7.812C71.0128 7.812 72.5714 8.344 73.6541 9.408C74.7554 10.4533 75.3061 11.8533 75.3061 13.608C75.3061 14.9893 74.8954 16.38 74.0741 17.78C73.2714 19.1613 72.2448 20.44 70.9941 21.616C69.7434 22.7733 68.4274 23.772 67.0461 24.612H75.6981V27.832H61.7821V24.892ZM77.9215 17.948C77.9215 24.6493 80.4415 28 85.4815 28C88.1508 28 90.0735 27.104 91.2495 25.312C92.4255 23.52 93.0135 21.0653 93.0135 17.948C93.0135 14.8493 92.4255 12.404 91.2495 10.612C90.0735 8.82 88.1508 7.924 85.4815 7.924C80.4415 7.924 77.9215 11.2653 77.9215 17.948ZM89.1215 17.948C89.1215 19.9827 88.8695 21.5507 88.3655 22.652C87.8801 23.7347 86.9188 24.276 85.4815 24.276C84.0255 24.276 83.0455 23.7347 82.5415 22.652C82.0561 21.5507 81.8135 19.9827 81.8135 17.948C81.8135 15.932 82.0561 14.3827 82.5415 13.3C83.0455 12.1987 84.0255 11.648 85.4815 11.648C86.9188 11.648 87.8801 12.1987 88.3655 13.3C88.8695 14.3827 89.1215 15.932 89.1215 17.948ZM104.657 16.716C104.657 20.3 103.966 23.5107 102.585 26.348C101.204 29.1853 99.3835 31.472 97.1249 33.208H93.2889V32.844C98.3289 28.6813 100.849 23.3147 100.849 16.744C100.849 10.1733 98.3289 4.80667 93.2889 0.643998V0.251998H97.1249C99.3835 2.00667 101.204 4.30267 102.585 7.14C103.966 9.95867 104.657 13.1507 104.657 16.716ZM122.72 7.952C124.568 7.952 126.239 8.38133 127.732 9.24C129.244 10.0987 130.429 11.3027 131.288 12.852C132.165 14.3827 132.604 16.1187 132.604 18.06C132.604 20.0013 132.165 21.7467 131.288 23.296C130.429 24.8453 129.244 26.0493 127.732 26.908C126.239 27.7667 124.568 28.196 122.72 28.196C120.872 28.196 119.192 27.7667 117.68 26.908C116.187 26.0493 115.001 24.8453 114.124 23.296C113.265 21.7467 112.836 20.0013 112.836 18.06C112.836 16.1187 113.265 14.3827 114.124 12.852C115.001 11.3027 116.187 10.0987 117.68 9.24C119.192 8.38133 120.872 7.952 122.72 7.952ZM122.72 11.592C121.563 11.592 120.545 11.8533 119.668 12.376C118.791 12.8987 118.1 13.6547 117.596 14.644C117.111 15.6147 116.868 16.7533 116.868 18.06C116.868 19.3667 117.111 20.5147 117.596 21.504C118.1 22.4747 118.791 23.2213 119.668 23.744C120.545 24.2667 121.563 24.528 122.72 24.528C123.877 24.528 124.895 24.2667 125.772 23.744C126.649 23.2213 127.331 22.4747 127.816 21.504C128.32 20.5147 128.572 19.3667 128.572 18.06C128.572 16.7533 128.32 15.6147 127.816 14.644C127.331 13.6547 126.649 12.8987 125.772 12.376C124.895 11.8533 123.877 11.592 122.72 11.592ZM150.413 12.488V28H146.465V24.864C146.055 25.9093 145.373 26.7307 144.421 27.328C143.488 27.9067 142.405 28.196 141.173 28.196C139.381 28.196 137.953 27.608 136.889 26.432C135.825 25.256 135.293 23.6133 135.293 21.504V12.488H139.213V21.056C139.213 22.288 139.531 23.2493 140.165 23.94C140.8 24.612 141.659 24.948 142.741 24.948C143.88 24.948 144.785 24.584 145.457 23.856C146.129 23.128 146.465 22.0827 146.465 20.72V12.488H150.413ZM162.291 24.612V28H160.219C158.483 28 157.148 27.58 156.215 26.74C155.3 25.9 154.843 24.5 154.843 22.54V15.82H152.687V12.488H154.843V8.652H158.791V12.488H162.263V15.82H158.791V22.596C158.791 23.3427 158.94 23.8653 159.239 24.164C159.538 24.4627 160.042 24.612 160.751 24.612H162.291ZM169.08 7.28V28H165.132V7.28H169.08ZM172.203 8.036C172.203 7.40133 172.427 6.888 172.875 6.496C173.323 6.08533 173.911 5.88 174.639 5.88C175.367 5.88 175.955 6.08533 176.403 6.496C176.851 6.888 177.075 7.40133 177.075 8.036C177.075 8.652 176.851 9.16533 176.403 9.576C175.955 9.968 175.367 10.164 174.639 10.164C173.911 10.164 173.323 9.968 172.875 9.576C172.427 9.16533 172.203 8.652 172.203 8.036ZM176.599 12.488V28H172.651V12.488H176.599ZM189.411 12.264C191.203 12.264 192.631 12.852 193.695 14.028C194.759 15.204 195.291 16.856 195.291 18.984V28H191.371V19.432C191.371 18.2 191.054 17.248 190.419 16.576C189.784 15.8853 188.916 15.54 187.815 15.54C186.695 15.54 185.799 15.904 185.127 16.632C184.455 17.36 184.119 18.4053 184.119 19.768V28H180.171V12.488H184.119V15.596C184.53 14.5507 185.202 13.7387 186.135 13.16C187.087 12.5627 188.179 12.264 189.411 12.264ZM213.353 19.656C213.353 20.048 213.306 20.496 213.213 21H201.845C201.901 22.3813 202.274 23.3987 202.965 24.052C203.655 24.7053 204.514 25.032 205.541 25.032C206.455 25.032 207.211 24.808 207.809 24.36C208.425 23.912 208.817 23.3053 208.985 22.54H213.157C212.951 23.6227 212.513 24.5933 211.841 25.452C211.169 26.3107 210.301 26.9827 209.237 27.468C208.191 27.9533 207.025 28.196 205.737 28.196C204.225 28.196 202.881 27.8787 201.705 27.244C200.529 26.5907 199.614 25.6667 198.961 24.472C198.307 23.2773 197.981 21.868 197.981 20.244C197.981 18.62 198.307 17.2107 198.961 16.016C199.614 14.8027 200.529 13.8787 201.705 13.244C202.881 12.6093 204.225 12.292 205.737 12.292C207.267 12.292 208.602 12.6093 209.741 13.244C210.898 13.8787 211.785 14.756 212.401 15.876C213.035 16.9773 213.353 18.2373 213.353 19.656ZM209.377 19.264C209.433 17.9947 209.097 17.0333 208.369 16.38C207.659 15.7267 206.782 15.4 205.737 15.4C204.673 15.4 203.777 15.7267 203.049 16.38C202.321 17.0333 201.919 17.9947 201.845 19.264H209.377ZM222.231 12.292C223.538 12.292 224.649 12.6 225.563 13.216C226.497 13.832 227.169 14.6627 227.579 15.708V7.28H231.499V28H227.579V24.752C227.169 25.7973 226.497 26.6373 225.563 27.272C224.649 27.888 223.538 28.196 222.231 28.196C220.925 28.196 219.749 27.8787 218.703 27.244C217.658 26.6093 216.837 25.6947 216.239 24.5C215.661 23.2867 215.371 21.868 215.371 20.244C215.371 18.62 215.661 17.2107 216.239 16.016C216.837 14.8027 217.658 13.8787 218.703 13.244C219.749 12.6093 220.925 12.292 222.231 12.292ZM223.463 15.736C222.231 15.736 221.242 16.1373 220.495 16.94C219.749 17.7427 219.375 18.844 219.375 20.244C219.375 21.644 219.749 22.7453 220.495 23.548C221.242 24.332 222.231 24.724 223.463 24.724C224.658 24.724 225.638 24.3227 226.403 23.52C227.187 22.6987 227.579 21.6067 227.579 20.244C227.579 18.8627 227.187 17.7707 226.403 16.968C225.638 16.1467 224.658 15.736 223.463 15.736Z" fill="#000"/>
</svg>
