<svg width="59" height="11" viewBox="0 0 59 11" fill="none" xmlns="http://www.w3.org/2000/svg">
<path id="Account" d="M6.804 7.718H2.464L1.638 10H0.266L3.92 0.312H5.362L9.002 10H7.63L6.804 7.718ZM6.44 6.724L4.634 1.74L2.828 6.724H6.44ZM13.6935 2.216C14.6735 2.216 15.4855 2.47733 16.1295 3C16.7735 3.52267 17.1702 4.22267 17.3195 5.1H15.9755C15.8822 4.54933 15.6255 4.12 15.2055 3.812C14.7949 3.49467 14.2815 3.336 13.6655 3.336C13.2175 3.336 12.8069 3.43867 12.4335 3.644C12.0695 3.84933 11.7755 4.16667 11.5515 4.596C11.3275 5.016 11.2155 5.53867 11.2155 6.164C11.2155 6.78933 11.3275 7.31667 11.5515 7.746C11.7755 8.166 12.0695 8.47867 12.4335 8.684C12.8069 8.88933 13.2175 8.992 13.6655 8.992C14.2815 8.992 14.7949 8.83333 15.2055 8.516C15.6255 8.19867 15.8822 7.76467 15.9755 7.214H17.3195C17.1702 8.10067 16.7735 8.80533 16.1295 9.328C15.4855 9.84133 14.6735 10.098 13.6935 10.098C12.9562 10.098 12.3029 9.93933 11.7335 9.622C11.1642 9.30467 10.7162 8.852 10.3895 8.264C10.0722 7.66667 9.91353 6.96667 9.91353 6.164C9.91353 5.36133 10.0722 4.66133 10.3895 4.064C10.7162 3.46667 11.1642 3.00933 11.7335 2.692C12.3029 2.37467 12.9562 2.216 13.6935 2.216ZM22.3888 2.216C23.3688 2.216 24.1808 2.47733 24.8248 3C25.4688 3.52267 25.8655 4.22267 26.0148 5.1H24.6708C24.5775 4.54933 24.3208 4.12 23.9008 3.812C23.4902 3.49467 22.9768 3.336 22.3608 3.336C21.9128 3.336 21.5022 3.43867 21.1288 3.644C20.7648 3.84933 20.4708 4.16667 20.2468 4.596C20.0228 5.016 19.9108 5.53867 19.9108 6.164C19.9108 6.78933 20.0228 7.31667 20.2468 7.746C20.4708 8.166 20.7648 8.47867 21.1288 8.684C21.5022 8.88933 21.9128 8.992 22.3608 8.992C22.9768 8.992 23.4902 8.83333 23.9008 8.516C24.3208 8.19867 24.5775 7.76467 24.6708 7.214H26.0148C25.8655 8.10067 25.4688 8.80533 24.8248 9.328C24.1808 9.84133 23.3688 10.098 22.3888 10.098C21.6515 10.098 20.9982 9.93933 20.4288 9.622C19.8595 9.30467 19.4115 8.852 19.0848 8.264C18.7675 7.66667 18.6088 6.96667 18.6088 6.164C18.6088 5.36133 18.7675 4.66133 19.0848 4.064C19.4115 3.46667 19.8595 3.00933 20.4288 2.692C20.9982 2.37467 21.6515 2.216 22.3888 2.216ZM31.1682 2.216C31.9055 2.216 32.5635 2.37467 33.1422 2.692C33.7302 3.00933 34.1875 3.46667 34.5142 4.064C34.8502 4.66133 35.0182 5.36133 35.0182 6.164C35.0182 6.96667 34.8502 7.66667 34.5142 8.264C34.1875 8.852 33.7302 9.30467 33.1422 9.622C32.5635 9.93933 31.9055 10.098 31.1682 10.098C30.4308 10.098 29.7682 9.93933 29.1802 9.622C28.6015 9.30467 28.1442 8.852 27.8082 8.264C27.4722 7.66667 27.3042 6.96667 27.3042 6.164C27.3042 5.36133 27.4722 4.66133 27.8082 4.064C28.1442 3.46667 28.6015 3.00933 29.1802 2.692C29.7682 2.37467 30.4308 2.216 31.1682 2.216ZM31.1682 3.336C30.7108 3.336 30.2862 3.43867 29.8942 3.644C29.5115 3.84933 29.1988 4.16667 28.9562 4.596C28.7228 5.016 28.6062 5.53867 28.6062 6.164C28.6062 6.78 28.7228 7.30267 28.9562 7.732C29.1988 8.152 29.5115 8.46467 29.8942 8.67C30.2862 8.87533 30.7108 8.978 31.1682 8.978C31.6255 8.978 32.0455 8.87533 32.4282 8.67C32.8202 8.46467 33.1328 8.152 33.3662 7.732C33.6088 7.30267 33.7302 6.78 33.7302 6.164C33.7302 5.53867 33.6088 5.016 33.3662 4.596C33.1328 4.16667 32.8202 3.84933 32.4282 3.644C32.0455 3.43867 31.6255 3.336 31.1682 3.336ZM43.5103 2.314V10H42.2363V8.194C42.0403 8.81933 41.6903 9.3 41.1863 9.636C40.6916 9.96267 40.1129 10.126 39.4503 10.126C38.5636 10.126 37.8449 9.84133 37.2943 9.272C36.7436 8.69333 36.4683 7.86733 36.4683 6.794V2.314H37.7423V6.668C37.7423 7.43333 37.9383 8.026 38.3303 8.446C38.7223 8.85667 39.2543 9.062 39.9263 9.062C40.6263 9.062 41.1863 8.838 41.6063 8.39C42.0263 7.93267 42.2363 7.27 42.2363 6.402V2.314H43.5103ZM49.5973 2.188C50.4933 2.188 51.2166 2.47733 51.7673 3.056C52.318 3.62533 52.5933 4.45133 52.5933 5.534V10H51.3193V5.646C51.3193 4.88067 51.1233 4.29267 50.7313 3.882C50.3393 3.47133 49.8073 3.266 49.1353 3.266C48.4353 3.266 47.8753 3.49467 47.4553 3.952C47.0353 4.4 46.8253 5.058 46.8253 5.926V10H45.5513V2.314H46.8253V4.134C47.0213 3.50867 47.3666 3.028 47.8613 2.692C48.3653 2.356 48.944 2.188 49.5973 2.188ZM58.2154 8.88V10H57.2634C56.4794 10 55.8914 9.81333 55.4994 9.44C55.1167 9.06667 54.9254 8.44133 54.9254 7.564V3.42H53.7774V2.314H54.9254V0.395999H56.2134V2.314H58.2014V3.42H56.2134V7.592C56.2134 8.08667 56.3021 8.42733 56.4794 8.614C56.6661 8.79133 56.9834 8.88 57.4314 8.88H58.2154Z" fill="#000"/>
</svg>
