<svg width="84" height="12" viewBox="0 0 84 12" fill="none" xmlns="http://www.w3.org/2000/svg">
<path id="Attachment" d="M6.846 8.83H2.59L1.806 11H0.462L3.99 1.298H5.46L8.974 11H7.63L6.846 8.83ZM6.482 7.794L4.718 2.866L2.954 7.794H6.482ZM12.0656 4.378V8.9C12.0656 9.27333 12.1449 9.53933 12.3036 9.698C12.4623 9.84733 12.7376 9.922 13.1296 9.922H14.0676V11H12.9196C12.2103 11 11.6783 10.8367 11.3236 10.51C10.9689 10.1833 10.7916 9.64667 10.7916 8.9V4.378H9.79759V3.328H10.7916V1.396H12.0656V3.328H14.0676V4.378H12.0656ZM17.1652 4.378V8.9C17.1652 9.27333 17.2445 9.53933 17.4032 9.698C17.5619 9.84733 17.8372 9.922 18.2292 9.922H19.1672V11H18.0192C17.3099 11 16.7779 10.8367 16.4232 10.51C16.0685 10.1833 15.8912 9.64667 15.8912 8.9V4.378H14.8972V3.328H15.8912V1.396H17.1652V3.328H19.1672V4.378H17.1652ZM20.2348 7.136C20.2348 6.352 20.3935 5.666 20.7108 5.078C21.0281 4.48067 21.4621 4.01867 22.0128 3.692C22.5728 3.36533 23.1935 3.202 23.8748 3.202C24.5468 3.202 25.1301 3.34667 25.6248 3.636C26.1195 3.92533 26.4881 4.28933 26.7308 4.728V3.328H28.0188V11H26.7308V9.572C26.4788 10.02 26.1008 10.3933 25.5968 10.692C25.1021 10.9813 24.5235 11.126 23.8608 11.126C23.1795 11.126 22.5635 10.958 22.0128 10.622C21.4621 10.286 21.0281 9.81467 20.7108 9.208C20.3935 8.60133 20.2348 7.91067 20.2348 7.136ZM26.7308 7.15C26.7308 6.57133 26.6141 6.06733 26.3808 5.638C26.1475 5.20867 25.8301 4.882 25.4288 4.658C25.0368 4.42467 24.6028 4.308 24.1268 4.308C23.6508 4.308 23.2168 4.42 22.8248 4.644C22.4328 4.868 22.1201 5.19467 21.8868 5.624C21.6535 6.05333 21.5368 6.55733 21.5368 7.136C21.5368 7.724 21.6535 8.23733 21.8868 8.676C22.1201 9.10533 22.4328 9.43667 22.8248 9.67C23.2168 9.894 23.6508 10.006 24.1268 10.006C24.6028 10.006 25.0368 9.894 25.4288 9.67C25.8301 9.43667 26.1475 9.10533 26.3808 8.676C26.6141 8.23733 26.7308 7.72867 26.7308 7.15ZM29.6958 7.15C29.6958 6.35667 29.8544 5.666 30.1718 5.078C30.4891 4.48067 30.9278 4.01867 31.4878 3.692C32.0571 3.36533 32.7058 3.202 33.4338 3.202C34.3764 3.202 35.1511 3.43067 35.7578 3.888C36.3738 4.34533 36.7798 4.98 36.9758 5.792H35.6038C35.4731 5.32533 35.2164 4.95667 34.8338 4.686C34.4604 4.41533 33.9938 4.28 33.4338 4.28C32.7058 4.28 32.1178 4.532 31.6698 5.036C31.2218 5.53067 30.9978 6.23533 30.9978 7.15C30.9978 8.074 31.2218 8.788 31.6698 9.292C32.1178 9.796 32.7058 10.048 33.4338 10.048C33.9938 10.048 34.4604 9.91733 34.8338 9.656C35.2071 9.39467 35.4638 9.02133 35.6038 8.536H36.9758C36.7704 9.32 36.3598 9.95 35.7438 10.426C35.1278 10.8927 34.3578 11.126 33.4338 11.126C32.7058 11.126 32.0571 10.9627 31.4878 10.636C30.9278 10.3093 30.4891 9.84733 30.1718 9.25C29.8544 8.65267 29.6958 7.95267 29.6958 7.15ZM42.4837 3.188C43.0623 3.188 43.585 3.314 44.0517 3.566C44.5183 3.80867 44.8823 4.17733 45.1437 4.672C45.4143 5.16667 45.5497 5.76867 45.5497 6.478V11H44.2897V6.66C44.2897 5.89467 44.0983 5.31133 43.7157 4.91C43.333 4.49933 42.8103 4.294 42.1477 4.294C41.4757 4.294 40.939 4.504 40.5377 4.924C40.1457 5.344 39.9497 5.95533 39.9497 6.758V11H38.6757V0.64H39.9497V4.42C40.2017 4.028 40.547 3.72467 40.9857 3.51C41.4337 3.29533 41.933 3.188 42.4837 3.188ZM56.8567 3.188C57.4541 3.188 57.9861 3.314 58.4527 3.566C58.9194 3.80867 59.2881 4.17733 59.5587 4.672C59.8294 5.16667 59.9647 5.76867 59.9647 6.478V11H58.7047V6.66C58.7047 5.89467 58.5134 5.31133 58.1307 4.91C57.7574 4.49933 57.2487 4.294 56.6047 4.294C55.9421 4.294 55.4147 4.50867 55.0227 4.938C54.6307 5.358 54.4347 5.96933 54.4347 6.772V11H53.1747V6.66C53.1747 5.89467 52.9834 5.31133 52.6007 4.91C52.2274 4.49933 51.7187 4.294 51.0747 4.294C50.4121 4.294 49.8847 4.50867 49.4927 4.938C49.1007 5.358 48.9047 5.96933 48.9047 6.772V11H47.6307V3.328H48.9047V4.434C49.1567 4.03267 49.4927 3.72467 49.9127 3.51C50.3421 3.29533 50.8134 3.188 51.3267 3.188C51.9707 3.188 52.5401 3.33267 53.0347 3.622C53.5294 3.91133 53.8981 4.336 54.1407 4.896C54.3554 4.35467 54.7101 3.93467 55.2047 3.636C55.6994 3.33733 56.2501 3.188 56.8567 3.188ZM69.0546 6.87C69.0546 7.11267 69.0406 7.36933 69.0126 7.64H62.8806C62.9272 8.396 63.1839 8.98867 63.6506 9.418C64.1266 9.838 64.7006 10.048 65.3726 10.048C65.9232 10.048 66.3806 9.922 66.7446 9.67C67.1179 9.40867 67.3792 9.06333 67.5286 8.634H68.9006C68.6952 9.37133 68.2846 9.97333 67.6686 10.44C67.0526 10.8973 66.2872 11.126 65.3726 11.126C64.6446 11.126 63.9912 10.9627 63.4126 10.636C62.8432 10.3093 62.3952 9.84733 62.0686 9.25C61.7419 8.64333 61.5786 7.94333 61.5786 7.15C61.5786 6.35667 61.7372 5.66133 62.0546 5.064C62.3719 4.46667 62.8152 4.00933 63.3846 3.692C63.9632 3.36533 64.6259 3.202 65.3726 3.202C66.1006 3.202 66.7446 3.36067 67.3046 3.678C67.8646 3.99533 68.2939 4.434 68.5926 4.994C68.9006 5.54467 69.0546 6.17 69.0546 6.87ZM67.7386 6.604C67.7386 6.11867 67.6312 5.70333 67.4166 5.358C67.2019 5.00333 66.9079 4.73733 66.5346 4.56C66.1706 4.37333 65.7646 4.28 65.3166 4.28C64.6726 4.28 64.1219 4.48533 63.6646 4.896C63.2166 5.30667 62.9599 5.876 62.8946 6.604H67.7386ZM74.4742 3.188C75.4075 3.188 76.1635 3.47267 76.7422 4.042C77.3209 4.602 77.6102 5.414 77.6102 6.478V11H76.3502V6.66C76.3502 5.89467 76.1589 5.31133 75.7762 4.91C75.3935 4.49933 74.8709 4.294 74.2082 4.294C73.5362 4.294 72.9995 4.504 72.5982 4.924C72.2062 5.344 72.0102 5.95533 72.0102 6.758V11H70.7362V3.328H72.0102V4.42C72.2622 4.028 72.6029 3.72467 73.0322 3.51C73.4709 3.29533 73.9515 3.188 74.4742 3.188ZM81.2453 4.378V8.9C81.2453 9.27333 81.3246 9.53933 81.4833 9.698C81.6419 9.84733 81.9173 9.922 82.3093 9.922H83.2473V11H82.0993C81.3899 11 80.8579 10.8367 80.5033 10.51C80.1486 10.1833 79.9713 9.64667 79.9713 8.9V4.378H78.9773V3.328H79.9713V1.396H81.2453V3.328H83.2473V4.378H81.2453Z" fill="#000"/>
</svg>
