<svg width="33" height="12" viewBox="0 0 33 12" fill="none" xmlns="http://www.w3.org/2000/svg">
<path id="Back" d="M4.964 5.974C5.31867 6.03 5.64067 6.17467 5.93 6.408C6.22867 6.64133 6.462 6.93067 6.63 7.276C6.80733 7.62133 6.896 7.99 6.896 8.382C6.896 8.87667 6.77 9.32467 6.518 9.726C6.266 10.118 5.89733 10.4307 5.412 10.664C4.936 10.888 4.37133 11 3.718 11H0.0780001V1.242H3.578C4.24067 1.242 4.80533 1.354 5.272 1.578C5.73867 1.79267 6.08867 2.08667 6.322 2.46C6.55533 2.83333 6.672 3.25333 6.672 3.72C6.672 4.29867 6.51333 4.77933 6.196 5.162C5.888 5.53533 5.47733 5.806 4.964 5.974ZM1.352 5.456H3.494C4.09133 5.456 4.55333 5.316 4.88 5.036C5.20667 4.756 5.37 4.36867 5.37 3.874C5.37 3.37933 5.20667 2.992 4.88 2.712C4.55333 2.432 4.082 2.292 3.466 2.292H1.352V5.456ZM3.606 9.95C4.24067 9.95 4.73533 9.80067 5.09 9.502C5.44467 9.20333 5.622 8.788 5.622 8.256C5.622 7.71467 5.43533 7.29 5.062 6.982C4.68867 6.66467 4.18933 6.506 3.564 6.506H1.352V9.95H3.606ZM8.18794 7.136C8.18794 6.352 8.3466 5.666 8.66394 5.078C8.98127 4.48067 9.41527 4.01867 9.96594 3.692C10.5259 3.36533 11.1466 3.202 11.8279 3.202C12.4999 3.202 13.0833 3.34667 13.5779 3.636C14.0726 3.92533 14.4413 4.28933 14.6839 4.728V3.328H15.9719V11H14.6839V9.572C14.4319 10.02 14.0539 10.3933 13.5499 10.692C13.0553 10.9813 12.4766 11.126 11.8139 11.126C11.1326 11.126 10.5166 10.958 9.96594 10.622C9.41527 10.286 8.98127 9.81467 8.66394 9.208C8.3466 8.60133 8.18794 7.91067 8.18794 7.136ZM14.6839 7.15C14.6839 6.57133 14.5673 6.06733 14.3339 5.638C14.1006 5.20867 13.7833 4.882 13.3819 4.658C12.9899 4.42467 12.5559 4.308 12.0799 4.308C11.6039 4.308 11.1699 4.42 10.7779 4.644C10.3859 4.868 10.0733 5.19467 9.83994 5.624C9.6066 6.05333 9.48994 6.55733 9.48994 7.136C9.48994 7.724 9.6066 8.23733 9.83994 8.676C10.0733 9.10533 10.3859 9.43667 10.7779 9.67C11.1699 9.894 11.6039 10.006 12.0799 10.006C12.5559 10.006 12.9899 9.894 13.3819 9.67C13.7833 9.43667 14.1006 9.10533 14.3339 8.676C14.5673 8.23733 14.6839 7.72867 14.6839 7.15ZM17.6489 7.15C17.6489 6.35667 17.8075 5.666 18.1249 5.078C18.4422 4.48067 18.8809 4.01867 19.4409 3.692C20.0102 3.36533 20.6589 3.202 21.3869 3.202C22.3295 3.202 23.1042 3.43067 23.7109 3.888C24.3269 4.34533 24.7329 4.98 24.9289 5.792H23.5569C23.4262 5.32533 23.1695 4.95667 22.7869 4.686C22.4135 4.41533 21.9469 4.28 21.3869 4.28C20.6589 4.28 20.0709 4.532 19.6229 5.036C19.1749 5.53067 18.9509 6.23533 18.9509 7.15C18.9509 8.074 19.1749 8.788 19.6229 9.292C20.0709 9.796 20.6589 10.048 21.3869 10.048C21.9469 10.048 22.4135 9.91733 22.7869 9.656C23.1602 9.39467 23.4169 9.02133 23.5569 8.536H24.9289C24.7235 9.32 24.3129 9.95 23.6969 10.426C23.0809 10.8927 22.3109 11.126 21.3869 11.126C20.6589 11.126 20.0102 10.9627 19.4409 10.636C18.8809 10.3093 18.4422 9.84733 18.1249 9.25C17.8075 8.65267 17.6489 7.95267 17.6489 7.15ZM30.9128 11L27.9028 7.612V11H26.6288V0.64H27.9028V6.73L30.8568 3.328H32.6348L29.0228 7.15L32.6488 11H30.9128Z" fill="#000"/>
</svg>
