<svg width="40" height="28" viewBox="0 0 40 28" fill="none" xmlns="http://www.w3.org/2000/svg">
<path d="M6.66667 20.6667V7.33334H10V20.6667H6.66667ZM26.6667 20.6667V7.33334H30V20.6667H26.6667ZM11.6667 20.6667V7.33334H13.3333V20.6667H11.6667ZM15 20.6667V7.33334H18.3333V20.6667H15ZM20 20.6667V7.33334H21.6667V20.6667H20ZM23.3333 20.6667V7.33334H25V20.6667H23.3333ZM31.6667 20.6667V7.33334H33.3333V20.6667H31.6667ZM30 4.00001H36.6667V10.6667H40V0.666679H30V4.00001ZM3.33333 10.6667V4.00001H10V0.666679H0V10.6667H3.33333ZM10 24H3.33333V17.3333H0V27.3333H10V24ZM36.6667 17.3333V24H30V27.3333H40V17.3333H36.6667Z" fill="#000"/>
</svg>
