<svg width="58" height="12" viewBox="0 0 58 12" fill="none" xmlns="http://www.w3.org/2000/svg">
<path id="Barcode" d="M4.838 5.89C5.44467 6.02067 5.93467 6.31 6.308 6.758C6.69067 7.206 6.882 7.73333 6.882 8.34C6.882 9.14267 6.60667 9.78667 6.056 10.272C5.51467 10.7573 4.726 11 3.69 11H0.0220001V1.13H3.634C4.62333 1.13 5.37467 1.34933 5.888 1.788C6.40133 2.22667 6.658 2.82867 6.658 3.594C6.658 4.22867 6.48533 4.742 6.14 5.134C5.804 5.526 5.37 5.778 4.838 5.89ZM1.296 5.456H3.424C4.04933 5.456 4.52533 5.31133 4.852 5.022C5.188 4.73267 5.356 4.32667 5.356 3.804C5.356 3.3 5.19267 2.90333 4.866 2.614C4.53933 2.32467 4.04 2.18 3.368 2.18H1.296V5.456ZM3.452 9.936C4.124 9.936 4.642 9.782 5.006 9.474C5.37933 9.166 5.566 8.732 5.566 8.172C5.566 7.62133 5.37467 7.192 4.992 6.884C4.61867 6.56667 4.096 6.408 3.424 6.408H1.296V9.936H3.452ZM11.6212 3.216C12.3679 3.216 12.9979 3.40267 13.5112 3.776C14.0339 4.14933 14.3979 4.64867 14.6032 5.274V3.314H15.8772V11H14.6032V9.04C14.3979 9.66533 14.0339 10.1647 13.5112 10.538C12.9979 10.9113 12.3679 11.098 11.6212 11.098C10.9399 11.098 10.3332 10.9393 9.80122 10.622C9.26922 10.3047 8.84922 9.852 8.54122 9.264C8.24255 8.66667 8.09322 7.96667 8.09322 7.164C8.09322 6.36133 8.24255 5.66133 8.54122 5.064C8.84922 4.46667 9.26922 4.00933 9.80122 3.692C10.3332 3.37467 10.9399 3.216 11.6212 3.216ZM11.9852 4.35C11.2012 4.35 10.5712 4.602 10.0952 5.106C9.62855 5.60067 9.39522 6.28667 9.39522 7.164C9.39522 8.04133 9.62855 8.732 10.0952 9.236C10.5712 9.73067 11.2012 9.978 11.9852 9.978C12.4892 9.978 12.9372 9.86133 13.3292 9.628C13.7306 9.39467 14.0432 9.068 14.2672 8.648C14.4912 8.21867 14.6032 7.724 14.6032 7.164C14.6032 6.604 14.4912 6.10933 14.2672 5.68C14.0432 5.25067 13.7306 4.924 13.3292 4.7C12.9372 4.46667 12.4892 4.35 11.9852 4.35ZM19.1788 4.868C19.4308 4.336 19.7995 3.92533 20.2848 3.636C20.7701 3.33733 21.3488 3.188 22.0208 3.188V4.574H21.6288C20.9101 4.574 20.3221 4.76067 19.8648 5.134C19.4075 5.498 19.1788 6.10467 19.1788 6.954V11H17.9048V3.314H19.1788V4.868ZM26.6799 3.216C27.6599 3.216 28.4719 3.47733 29.1159 4C29.7599 4.52267 30.1565 5.22267 30.3059 6.1H28.9619C28.8685 5.54933 28.6119 5.12 28.1919 4.812C27.7812 4.49467 27.2679 4.336 26.6519 4.336C26.2039 4.336 25.7932 4.43867 25.4199 4.644C25.0559 4.84933 24.7619 5.16667 24.5379 5.596C24.3139 6.016 24.2019 6.53867 24.2019 7.164C24.2019 7.78933 24.3139 8.31667 24.5379 8.746C24.7619 9.166 25.0559 9.47867 25.4199 9.684C25.7932 9.88933 26.2039 9.992 26.6519 9.992C27.2679 9.992 27.7812 9.83333 28.1919 9.516C28.6119 9.19867 28.8685 8.76467 28.9619 8.214H30.3059C30.1565 9.10067 29.7599 9.80533 29.1159 10.328C28.4719 10.8413 27.6599 11.098 26.6799 11.098C25.9425 11.098 25.2892 10.9393 24.7199 10.622C24.1505 10.3047 23.7025 9.852 23.3759 9.264C23.0585 8.66667 22.8999 7.96667 22.8999 7.164C22.8999 6.36133 23.0585 5.66133 23.3759 5.064C23.7025 4.46667 24.1505 4.00933 24.7199 3.692C25.2892 3.37467 25.9425 3.216 26.6799 3.216ZM35.4592 3.216C36.1965 3.216 36.8545 3.37467 37.4332 3.692C38.0212 4.00933 38.4785 4.46667 38.8052 5.064C39.1412 5.66133 39.3092 6.36133 39.3092 7.164C39.3092 7.96667 39.1412 8.66667 38.8052 9.264C38.4785 9.852 38.0212 10.3047 37.4332 10.622C36.8545 10.9393 36.1965 11.098 35.4592 11.098C34.7218 11.098 34.0592 10.9393 33.4712 10.622C32.8925 10.3047 32.4352 9.852 32.0992 9.264C31.7632 8.66667 31.5952 7.96667 31.5952 7.164C31.5952 6.36133 31.7632 5.66133 32.0992 5.064C32.4352 4.46667 32.8925 4.00933 33.4712 3.692C34.0592 3.37467 34.7218 3.216 35.4592 3.216ZM35.4592 4.336C35.0018 4.336 34.5772 4.43867 34.1852 4.644C33.8025 4.84933 33.4898 5.16667 33.2472 5.596C33.0138 6.016 32.8972 6.53867 32.8972 7.164C32.8972 7.78 33.0138 8.30267 33.2472 8.732C33.4898 9.152 33.8025 9.46467 34.1852 9.67C34.5772 9.87533 35.0018 9.978 35.4592 9.978C35.9165 9.978 36.3365 9.87533 36.7192 9.67C37.1112 9.46467 37.4238 9.152 37.6572 8.732C37.8998 8.30267 38.0212 7.78 38.0212 7.164C38.0212 6.53867 37.8998 6.016 37.6572 5.596C37.4238 5.16667 37.1112 4.84933 36.7192 4.644C36.3365 4.43867 35.9165 4.336 35.4592 4.336ZM44.1193 3.216C44.8659 3.216 45.4959 3.40267 46.0093 3.776C46.5319 4.14933 46.8959 4.64867 47.1013 5.274V0.64H48.3753V11H47.1013V9.04C46.8959 9.66533 46.5319 10.1647 46.0093 10.538C45.4959 10.9113 44.8659 11.098 44.1193 11.098C43.4379 11.098 42.8313 10.9393 42.2993 10.622C41.7673 10.3047 41.3473 9.852 41.0393 9.264C40.7406 8.66667 40.5913 7.96667 40.5913 7.164C40.5913 6.36133 40.7406 5.66133 41.0393 5.064C41.3473 4.46667 41.7673 4.00933 42.2993 3.692C42.8313 3.37467 43.4379 3.216 44.1193 3.216ZM44.4833 4.35C43.6993 4.35 43.0693 4.602 42.5933 5.106C42.1266 5.60067 41.8933 6.28667 41.8933 7.164C41.8933 8.04133 42.1266 8.732 42.5933 9.236C43.0693 9.73067 43.6993 9.978 44.4833 9.978C44.9873 9.978 45.4353 9.86133 45.8273 9.628C46.2286 9.39467 46.5413 9.068 46.7653 8.648C46.9893 8.21867 47.1013 7.724 47.1013 7.164C47.1013 6.604 46.9893 6.10933 46.7653 5.68C46.5413 5.25067 46.2286 4.924 45.8273 4.7C45.4353 4.46667 44.9873 4.35 44.4833 4.35ZM57.4729 6.73C57.4729 7.00067 57.4542 7.234 57.4169 7.43H51.2709C51.2989 8.30733 51.5462 8.96533 52.0129 9.404C52.4889 9.84267 53.0675 10.062 53.7489 10.062C54.3649 10.062 54.8782 9.908 55.2889 9.6C55.7089 9.28267 55.9655 8.86267 56.0589 8.34H57.4169C57.3235 8.872 57.1135 9.348 56.7869 9.768C56.4695 10.188 56.0542 10.5147 55.5409 10.748C55.0275 10.9813 54.4489 11.098 53.8049 11.098C53.0675 11.098 52.4142 10.9393 51.8449 10.622C51.2755 10.3047 50.8275 9.852 50.5009 9.264C50.1835 8.66667 50.0249 7.96667 50.0249 7.164C50.0249 6.36133 50.1835 5.66133 50.5009 5.064C50.8275 4.46667 51.2755 4.00933 51.8449 3.692C52.4142 3.37467 53.0675 3.216 53.8049 3.216C54.5515 3.216 55.2002 3.37467 55.7509 3.692C56.3109 4.00933 56.7355 4.434 57.0249 4.966C57.3235 5.498 57.4729 6.086 57.4729 6.73ZM56.1849 6.814C56.2129 6.24467 56.1195 5.76867 55.9049 5.386C55.6902 5.00333 55.3962 4.71867 55.0229 4.532C54.6495 4.34533 54.2435 4.252 53.8049 4.252C53.1049 4.252 52.5169 4.47133 52.0409 4.91C51.5649 5.33933 51.3082 5.974 51.2709 6.814H56.1849Z" fill="#000"/>
</svg>
