<svg width="23" height="11" viewBox="0 0 23 11" fill="none" xmlns="http://www.w3.org/2000/svg">
<path id="Bar" d="M4.838 4.89C5.44467 5.02067 5.93467 5.31 6.308 5.758C6.69067 6.206 6.882 6.73333 6.882 7.34C6.882 8.14267 6.60667 8.78667 6.056 9.272C5.51467 9.75733 4.726 10 3.69 10H0.0220001V0.129999H3.634C4.62333 0.129999 5.37467 0.349333 5.888 0.787999C6.40133 1.22667 6.658 1.82867 6.658 2.594C6.658 3.22867 6.48533 3.742 6.14 4.134C5.804 4.526 5.37 4.778 4.838 4.89ZM1.296 4.456H3.424C4.04933 4.456 4.52533 4.31133 4.852 4.022C5.188 3.73267 5.356 3.32667 5.356 2.804C5.356 2.3 5.19267 1.90333 4.866 1.614C4.53933 1.32467 4.04 1.18 3.368 1.18H1.296V4.456ZM3.452 8.936C4.124 8.936 4.642 8.782 5.006 8.474C5.37933 8.166 5.566 7.732 5.566 7.172C5.566 6.62133 5.37467 6.192 4.992 5.884C4.61867 5.56667 4.096 5.408 3.424 5.408H1.296V8.936H3.452ZM11.6212 2.216C12.3679 2.216 12.9979 2.40267 13.5112 2.776C14.0339 3.14933 14.3979 3.64867 14.6032 4.274V2.314H15.8772V10H14.6032V8.04C14.3979 8.66533 14.0339 9.16467 13.5112 9.538C12.9979 9.91133 12.3679 10.098 11.6212 10.098C10.9399 10.098 10.3332 9.93933 9.80122 9.622C9.26922 9.30467 8.84922 8.852 8.54122 8.264C8.24255 7.66667 8.09322 6.96667 8.09322 6.164C8.09322 5.36133 8.24255 4.66133 8.54122 4.064C8.84922 3.46667 9.26922 3.00933 9.80122 2.692C10.3332 2.37467 10.9399 2.216 11.6212 2.216ZM11.9852 3.35C11.2012 3.35 10.5712 3.602 10.0952 4.106C9.62855 4.60067 9.39522 5.28667 9.39522 6.164C9.39522 7.04133 9.62855 7.732 10.0952 8.236C10.5712 8.73067 11.2012 8.978 11.9852 8.978C12.4892 8.978 12.9372 8.86133 13.3292 8.628C13.7306 8.39467 14.0432 8.068 14.2672 7.648C14.4912 7.21867 14.6032 6.724 14.6032 6.164C14.6032 5.604 14.4912 5.10933 14.2672 4.68C14.0432 4.25067 13.7306 3.924 13.3292 3.7C12.9372 3.46667 12.4892 3.35 11.9852 3.35ZM19.1788 3.868C19.4308 3.336 19.7995 2.92533 20.2848 2.636C20.7701 2.33733 21.3488 2.188 22.0208 2.188V3.574H21.6288C20.9101 3.574 20.3221 3.76067 19.8648 4.134C19.4075 4.498 19.1788 5.10467 19.1788 5.954V10H17.9048V2.314H19.1788V3.868Z" fill="#000"/>
</svg>
