<svg width="39" height="15" viewBox="0 0 39 15" fill="none" xmlns="http://www.w3.org/2000/svg">
<path id="Billing" d="M4.838 5.89C5.44467 6.02067 5.93467 6.31 6.308 6.758C6.69067 7.206 6.882 7.73333 6.882 8.34C6.882 9.14267 6.60667 9.78667 6.056 10.272C5.51467 10.7573 4.726 11 3.69 11H0.0220001V1.13H3.634C4.62333 1.13 5.37467 1.34933 5.888 1.788C6.40133 2.22667 6.658 2.82867 6.658 3.594C6.658 4.22867 6.48533 4.742 6.14 5.134C5.804 5.526 5.37 5.778 4.838 5.89ZM1.296 5.456H3.424C4.04933 5.456 4.52533 5.31133 4.852 5.022C5.188 4.73267 5.356 4.32667 5.356 3.804C5.356 3.3 5.19267 2.90333 4.866 2.614C4.53933 2.32467 4.04 2.18 3.368 2.18H1.296V5.456ZM3.452 9.936C4.124 9.936 4.642 9.782 5.006 9.474C5.37933 9.166 5.566 8.732 5.566 8.172C5.566 7.62133 5.37467 7.192 4.992 6.884C4.61867 6.56667 4.096 6.408 3.424 6.408H1.296V9.936H3.452ZM8.24722 1.06C8.24722 0.826666 8.32655 0.64 8.48522 0.499999C8.64389 0.350666 8.85389 0.276 9.11522 0.276C9.37655 0.276 9.58655 0.350666 9.74522 0.499999C9.90389 0.64 9.98322 0.826666 9.98322 1.06C9.98322 1.29333 9.90389 1.48467 9.74522 1.634C9.58655 1.774 9.37655 1.844 9.11522 1.844C8.85389 1.844 8.64389 1.774 8.48522 1.634C8.32655 1.48467 8.24722 1.29333 8.24722 1.06ZM9.74522 3.314V11H8.47122V3.314H9.74522ZM13.0675 0.64V11H11.7935V0.64H13.0675ZM16.3898 0.64V11H15.1158V0.64H16.3898ZM18.214 1.06C18.214 0.826666 18.2933 0.64 18.452 0.499999C18.6107 0.350666 18.8207 0.276 19.082 0.276C19.3433 0.276 19.5533 0.350666 19.712 0.499999C19.8707 0.64 19.95 0.826666 19.95 1.06C19.95 1.29333 19.8707 1.48467 19.712 1.634C19.5533 1.774 19.3433 1.844 19.082 1.844C18.8207 1.844 18.6107 1.774 18.452 1.634C18.2933 1.48467 18.214 1.29333 18.214 1.06ZM19.712 3.314V11H18.438V3.314H19.712ZM25.8063 3.188C26.7023 3.188 27.4256 3.47733 27.9763 4.056C28.5269 4.62533 28.8023 5.45133 28.8023 6.534V11H27.5283V6.646C27.5283 5.88067 27.3323 5.29267 26.9403 4.882C26.5483 4.47133 26.0163 4.266 25.3443 4.266C24.6443 4.266 24.0843 4.49467 23.6643 4.952C23.2443 5.4 23.0343 6.058 23.0343 6.926V11H21.7603V3.314H23.0343V5.134C23.2303 4.50867 23.5756 4.028 24.0703 3.692C24.5743 3.356 25.1529 3.188 25.8063 3.188ZM33.9064 3.216C34.653 3.216 35.283 3.40267 35.7964 3.776C36.319 4.14933 36.683 4.64867 36.8884 5.274V3.314H38.1624V11.126C38.1624 11.8353 38.013 12.4653 37.7144 13.016C37.4157 13.5667 36.9957 13.996 36.4544 14.304C35.913 14.612 35.283 14.766 34.5644 14.766C33.5284 14.766 32.6837 14.514 32.0304 14.01C31.377 13.5153 30.9617 12.8433 30.7844 11.994H32.0444C32.1937 12.5073 32.4737 12.9087 32.8844 13.198C33.3044 13.4967 33.841 13.646 34.4944 13.646C35.185 13.646 35.7544 13.422 36.2024 12.974C36.6597 12.5353 36.8884 11.9193 36.8884 11.126V9.04C36.683 9.66533 36.319 10.1647 35.7964 10.538C35.283 10.9113 34.653 11.098 33.9064 11.098C33.225 11.098 32.6184 10.9393 32.0864 10.622C31.5544 10.3047 31.1344 9.852 30.8264 9.264C30.5277 8.66667 30.3784 7.96667 30.3784 7.164C30.3784 6.36133 30.5277 5.66133 30.8264 5.064C31.1344 4.46667 31.5544 4.00933 32.0864 3.692C32.6184 3.37467 33.225 3.216 33.9064 3.216ZM34.2704 4.35C33.4864 4.35 32.8564 4.602 32.3804 5.106C31.9137 5.60067 31.6804 6.28667 31.6804 7.164C31.6804 8.04133 31.9137 8.732 32.3804 9.236C32.8564 9.73067 33.4864 9.978 34.2704 9.978C34.7744 9.978 35.2224 9.86133 35.6144 9.628C36.0157 9.39467 36.3284 9.068 36.5524 8.648C36.7764 8.21867 36.8884 7.724 36.8884 7.164C36.8884 6.604 36.7764 6.10933 36.5524 5.68C36.3284 5.25067 36.0157 4.924 35.6144 4.7C35.2224 4.46667 34.7744 4.35 34.2704 4.35Z" fill="#000"/>
</svg>
