<svg width="24" height="11" viewBox="0 0 24 11" fill="none" xmlns="http://www.w3.org/2000/svg">
<path id="Box" d="M4.838 4.89C5.44467 5.02067 5.93467 5.31 6.308 5.758C6.69067 6.206 6.882 6.73333 6.882 7.34C6.882 8.14267 6.60667 8.78667 6.056 9.272C5.51467 9.75733 4.726 10 3.69 10H0.0220001V0.129999H3.634C4.62333 0.129999 5.37467 0.349333 5.888 0.787999C6.40133 1.22667 6.658 1.82867 6.658 2.594C6.658 3.22867 6.48533 3.742 6.14 4.134C5.804 4.526 5.37 4.778 4.838 4.89ZM1.296 4.456H3.424C4.04933 4.456 4.52533 4.31133 4.852 4.022C5.188 3.73267 5.356 3.32667 5.356 2.804C5.356 2.3 5.19267 1.90333 4.866 1.614C4.53933 1.32467 4.04 1.18 3.368 1.18H1.296V4.456ZM3.452 8.936C4.124 8.936 4.642 8.782 5.006 8.474C5.37933 8.166 5.566 7.732 5.566 7.172C5.566 6.62133 5.37467 6.192 4.992 5.884C4.61867 5.56667 4.096 5.408 3.424 5.408H1.296V8.936H3.452ZM11.9572 2.216C12.6946 2.216 13.3526 2.37467 13.9312 2.692C14.5192 3.00933 14.9766 3.46667 15.3032 4.064C15.6392 4.66133 15.8072 5.36133 15.8072 6.164C15.8072 6.96667 15.6392 7.66667 15.3032 8.264C14.9766 8.852 14.5192 9.30467 13.9312 9.622C13.3526 9.93933 12.6946 10.098 11.9572 10.098C11.2199 10.098 10.5572 9.93933 9.96922 9.622C9.39055 9.30467 8.93322 8.852 8.59722 8.264C8.26122 7.66667 8.09322 6.96667 8.09322 6.164C8.09322 5.36133 8.26122 4.66133 8.59722 4.064C8.93322 3.46667 9.39055 3.00933 9.96922 2.692C10.5572 2.37467 11.2199 2.216 11.9572 2.216ZM11.9572 3.336C11.4999 3.336 11.0752 3.43867 10.6832 3.644C10.3006 3.84933 9.98789 4.16667 9.74522 4.596C9.51189 5.016 9.39522 5.53867 9.39522 6.164C9.39522 6.78 9.51189 7.30267 9.74522 7.732C9.98789 8.152 10.3006 8.46467 10.6832 8.67C11.0752 8.87533 11.4999 8.978 11.9572 8.978C12.4146 8.978 12.8346 8.87533 13.2172 8.67C13.6092 8.46467 13.9219 8.152 14.1552 7.732C14.3979 7.30267 14.5192 6.78 14.5192 6.164C14.5192 5.53867 14.3979 5.016 14.1552 4.596C13.9219 4.16667 13.6092 3.84933 13.2172 3.644C12.8346 3.43867 12.4146 3.336 11.9572 3.336ZM21.8913 10L19.8893 7.06L18.0833 10H16.6693L19.1893 6.038L16.6553 2.314H18.1113L20.0573 5.17L21.8353 2.314H23.2493L20.7433 6.178L23.3473 10H21.8913Z" fill="#000"/>
</svg>
