<svg width="66" height="12" viewBox="0 0 66 12" fill="none" xmlns="http://www.w3.org/2000/svg">
<path id="Calendar" d="M5.39 1.032C6.594 1.032 7.588 1.33067 8.372 1.928C9.156 2.516 9.69733 3.32333 9.996 4.35H8.652C8.4 3.69667 7.994 3.17867 7.434 2.796C6.874 2.404 6.188 2.208 5.376 2.208C4.732 2.208 4.15333 2.36667 3.64 2.684C3.136 2.992 2.73467 3.44 2.436 4.028C2.14667 4.60667 2.002 5.288 2.002 6.072C2.002 6.84667 2.14667 7.52333 2.436 8.102C2.73467 8.68067 3.136 9.12867 3.64 9.446C4.15333 9.754 4.732 9.908 5.376 9.908C6.188 9.908 6.874 9.71667 7.434 9.334C7.994 8.942 8.4 8.41933 8.652 7.766H9.996C9.69733 8.79267 9.156 9.60467 8.372 10.202C7.588 10.79 6.594 11.084 5.39 11.084C4.466 11.084 3.64933 10.874 2.94 10.454C2.23067 10.0247 1.67533 9.432 1.274 8.676C0.882 7.91067 0.686 7.04267 0.686 6.072C0.686 5.092 0.882 4.21933 1.274 3.454C1.67533 2.68867 2.23067 2.096 2.94 1.676C3.64933 1.24667 4.466 1.032 5.39 1.032ZM14.8497 3.216C15.5964 3.216 16.2264 3.40267 16.7397 3.776C17.2624 4.14933 17.6264 4.64867 17.8317 5.274V3.314H19.1057V11H17.8317V9.04C17.6264 9.66533 17.2624 10.1647 16.7397 10.538C16.2264 10.9113 15.5964 11.098 14.8497 11.098C14.1684 11.098 13.5617 10.9393 13.0297 10.622C12.4977 10.3047 12.0777 9.852 11.7697 9.264C11.4711 8.66667 11.3217 7.96667 11.3217 7.164C11.3217 6.36133 11.4711 5.66133 11.7697 5.064C12.0777 4.46667 12.4977 4.00933 13.0297 3.692C13.5617 3.37467 14.1684 3.216 14.8497 3.216ZM15.2137 4.35C14.4297 4.35 13.7997 4.602 13.3237 5.106C12.8571 5.60067 12.6237 6.28667 12.6237 7.164C12.6237 8.04133 12.8571 8.732 13.3237 9.236C13.7997 9.73067 14.4297 9.978 15.2137 9.978C15.7177 9.978 16.1657 9.86133 16.5577 9.628C16.9591 9.39467 17.2717 9.068 17.4957 8.648C17.7197 8.21867 17.8317 7.724 17.8317 7.164C17.8317 6.604 17.7197 6.10933 17.4957 5.68C17.2717 5.25067 16.9591 4.924 16.5577 4.7C16.1657 4.46667 15.7177 4.35 15.2137 4.35ZM22.4073 0.64V11H21.1333V0.64H22.4073ZM31.5256 6.73C31.5256 7.00067 31.5069 7.234 31.4696 7.43H25.3236C25.3516 8.30733 25.5989 8.96533 26.0656 9.404C26.5416 9.84267 27.1203 10.062 27.8016 10.062C28.4176 10.062 28.9309 9.908 29.3416 9.6C29.7616 9.28267 30.0183 8.86267 30.1116 8.34H31.4696C31.3763 8.872 31.1663 9.348 30.8396 9.768C30.5223 10.188 30.1069 10.5147 29.5936 10.748C29.0803 10.9813 28.5016 11.098 27.8576 11.098C27.1203 11.098 26.4669 10.9393 25.8976 10.622C25.3283 10.3047 24.8803 9.852 24.5536 9.264C24.2363 8.66667 24.0776 7.96667 24.0776 7.164C24.0776 6.36133 24.2363 5.66133 24.5536 5.064C24.8803 4.46667 25.3283 4.00933 25.8976 3.692C26.4669 3.37467 27.1203 3.216 27.8576 3.216C28.6043 3.216 29.2529 3.37467 29.8036 3.692C30.3636 4.00933 30.7883 4.434 31.0776 4.966C31.3763 5.498 31.5256 6.086 31.5256 6.73ZM30.2376 6.814C30.2656 6.24467 30.1723 5.76867 29.9576 5.386C29.7429 5.00333 29.4489 4.71867 29.0756 4.532C28.7023 4.34533 28.2963 4.252 27.8576 4.252C27.1576 4.252 26.5696 4.47133 26.0936 4.91C25.6176 5.33933 25.3609 5.974 25.3236 6.814H30.2376ZM37.2379 3.188C38.1339 3.188 38.8573 3.47733 39.4079 4.056C39.9586 4.62533 40.2339 5.45133 40.2339 6.534V11H38.9599V6.646C38.9599 5.88067 38.7639 5.29267 38.3719 4.882C37.9799 4.47133 37.4479 4.266 36.7759 4.266C36.0759 4.266 35.5159 4.49467 35.0959 4.952C34.6759 5.4 34.4659 6.058 34.4659 6.926V11H33.1919V3.314H34.4659V5.134C34.6619 4.50867 35.0073 4.028 35.5019 3.692C36.0059 3.356 36.5846 3.188 37.2379 3.188ZM45.338 3.216C46.0847 3.216 46.7147 3.40267 47.228 3.776C47.7507 4.14933 48.1147 4.64867 48.32 5.274V0.64H49.594V11H48.32V9.04C48.1147 9.66533 47.7507 10.1647 47.228 10.538C46.7147 10.9113 46.0847 11.098 45.338 11.098C44.6567 11.098 44.05 10.9393 43.518 10.622C42.986 10.3047 42.566 9.852 42.258 9.264C41.9593 8.66667 41.81 7.96667 41.81 7.164C41.81 6.36133 41.9593 5.66133 42.258 5.064C42.566 4.46667 42.986 4.00933 43.518 3.692C44.05 3.37467 44.6567 3.216 45.338 3.216ZM45.702 4.35C44.918 4.35 44.288 4.602 43.812 5.106C43.3453 5.60067 43.112 6.28667 43.112 7.164C43.112 8.04133 43.3453 8.732 43.812 9.236C44.288 9.73067 44.918 9.978 45.702 9.978C46.206 9.978 46.654 9.86133 47.046 9.628C47.4473 9.39467 47.76 9.068 47.984 8.648C48.208 8.21867 48.32 7.724 48.32 7.164C48.32 6.604 48.208 6.10933 47.984 5.68C47.76 5.25067 47.4473 4.924 47.046 4.7C46.654 4.46667 46.206 4.35 45.702 4.35ZM54.7716 3.216C55.5183 3.216 56.1483 3.40267 56.6616 3.776C57.1843 4.14933 57.5483 4.64867 57.7536 5.274V3.314H59.0276V11H57.7536V9.04C57.5483 9.66533 57.1843 10.1647 56.6616 10.538C56.1483 10.9113 55.5183 11.098 54.7716 11.098C54.0903 11.098 53.4836 10.9393 52.9516 10.622C52.4196 10.3047 51.9996 9.852 51.6916 9.264C51.3929 8.66667 51.2436 7.96667 51.2436 7.164C51.2436 6.36133 51.3929 5.66133 51.6916 5.064C51.9996 4.46667 52.4196 4.00933 52.9516 3.692C53.4836 3.37467 54.0903 3.216 54.7716 3.216ZM55.1356 4.35C54.3516 4.35 53.7216 4.602 53.2456 5.106C52.7789 5.60067 52.5456 6.28667 52.5456 7.164C52.5456 8.04133 52.7789 8.732 53.2456 9.236C53.7216 9.73067 54.3516 9.978 55.1356 9.978C55.6396 9.978 56.0876 9.86133 56.4796 9.628C56.8809 9.39467 57.1936 9.068 57.4176 8.648C57.6416 8.21867 57.7536 7.724 57.7536 7.164C57.7536 6.604 57.6416 6.10933 57.4176 5.68C57.1936 5.25067 56.8809 4.924 56.4796 4.7C56.0876 4.46667 55.6396 4.35 55.1356 4.35ZM62.3292 4.868C62.5812 4.336 62.9499 3.92533 63.4352 3.636C63.9205 3.33733 64.4992 3.188 65.1712 3.188V4.574H64.7792C64.0605 4.574 63.4725 4.76067 63.0152 5.134C62.5579 5.498 62.3292 6.10467 62.3292 6.954V11H61.0552V3.314H62.3292V4.868Z" fill="#000"/>
</svg>
