<svg width="58" height="11" viewBox="0 0 58 11" fill="none" xmlns="http://www.w3.org/2000/svg">
<path id="Camera" d="M5.39 0.0319998C6.594 0.0319998 7.588 0.330667 8.372 0.928C9.156 1.516 9.69733 2.32333 9.996 3.35H8.652C8.4 2.69667 7.994 2.17867 7.434 1.796C6.874 1.404 6.188 1.208 5.376 1.208C4.732 1.208 4.15333 1.36667 3.64 1.684C3.136 1.992 2.73467 2.44 2.436 3.028C2.14667 3.60667 2.002 4.288 2.002 5.072C2.002 5.84667 2.14667 6.52333 2.436 7.102C2.73467 7.68067 3.136 8.12867 3.64 8.446C4.15333 8.754 4.732 8.908 5.376 8.908C6.188 8.908 6.874 8.71667 7.434 8.334C7.994 7.942 8.4 7.41933 8.652 6.766H9.996C9.69733 7.79267 9.156 8.60467 8.372 9.202C7.588 9.79 6.594 10.084 5.39 10.084C4.466 10.084 3.64933 9.874 2.94 9.454C2.23067 9.02467 1.67533 8.432 1.274 7.676C0.882 6.91067 0.686 6.04267 0.686 5.072C0.686 4.092 0.882 3.21933 1.274 2.454C1.67533 1.68867 2.23067 1.096 2.94 0.676C3.64933 0.246667 4.466 0.0319998 5.39 0.0319998ZM14.8497 2.216C15.5964 2.216 16.2264 2.40267 16.7397 2.776C17.2624 3.14933 17.6264 3.64867 17.8317 4.274V2.314H19.1057V10H17.8317V8.04C17.6264 8.66533 17.2624 9.16467 16.7397 9.538C16.2264 9.91133 15.5964 10.098 14.8497 10.098C14.1684 10.098 13.5617 9.93933 13.0297 9.622C12.4977 9.30467 12.0777 8.852 11.7697 8.264C11.4711 7.66667 11.3217 6.96667 11.3217 6.164C11.3217 5.36133 11.4711 4.66133 11.7697 4.064C12.0777 3.46667 12.4977 3.00933 13.0297 2.692C13.5617 2.37467 14.1684 2.216 14.8497 2.216ZM15.2137 3.35C14.4297 3.35 13.7997 3.602 13.3237 4.106C12.8571 4.60067 12.6237 5.28667 12.6237 6.164C12.6237 7.04133 12.8571 7.732 13.3237 8.236C13.7997 8.73067 14.4297 8.978 15.2137 8.978C15.7177 8.978 16.1657 8.86133 16.5577 8.628C16.9591 8.39467 17.2717 8.068 17.4957 7.648C17.7197 7.21867 17.8317 6.724 17.8317 6.164C17.8317 5.604 17.7197 5.10933 17.4957 4.68C17.2717 4.25067 16.9591 3.924 16.5577 3.7C16.1657 3.46667 15.7177 3.35 15.2137 3.35ZM30.5833 2.188C31.4793 2.188 32.198 2.47733 32.7393 3.056C33.29 3.62533 33.5653 4.45133 33.5653 5.534V10H32.2913V5.646C32.2913 4.89 32.1047 4.31133 31.7313 3.91C31.3673 3.50867 30.8633 3.308 30.2193 3.308C29.5473 3.308 29.006 3.532 28.5953 3.98C28.194 4.41867 27.9933 5.06733 27.9933 5.926V10H26.7193V5.646C26.7193 4.89 26.5327 4.31133 26.1593 3.91C25.786 3.50867 25.282 3.308 24.6473 3.308C23.966 3.308 23.42 3.532 23.0093 3.98C22.608 4.41867 22.4073 5.06733 22.4073 5.926V10H21.1333V2.314H22.4073V4.064C22.594 3.45733 22.9253 2.99533 23.4013 2.678C23.8867 2.35133 24.442 2.188 25.0673 2.188C25.7207 2.188 26.2853 2.356 26.7613 2.692C27.2467 3.01867 27.592 3.504 27.7973 4.148C28.012 3.52267 28.3713 3.042 28.8753 2.706C29.3793 2.36067 29.9487 2.188 30.5833 2.188ZM42.6135 5.73C42.6135 6.00067 42.5948 6.234 42.5575 6.43H36.4115C36.4395 7.30733 36.6868 7.96533 37.1535 8.404C37.6295 8.84267 38.2082 9.062 38.8895 9.062C39.5055 9.062 40.0188 8.908 40.4295 8.6C40.8495 8.28267 41.1062 7.86267 41.1995 7.34H42.5575C42.4642 7.872 42.2542 8.348 41.9275 8.768C41.6102 9.188 41.1948 9.51467 40.6815 9.748C40.1682 9.98133 39.5895 10.098 38.9455 10.098C38.2082 10.098 37.5548 9.93933 36.9855 9.622C36.4162 9.30467 35.9682 8.852 35.6415 8.264C35.3242 7.66667 35.1655 6.96667 35.1655 6.164C35.1655 5.36133 35.3242 4.66133 35.6415 4.064C35.9682 3.46667 36.4162 3.00933 36.9855 2.692C37.5548 2.37467 38.2082 2.216 38.9455 2.216C39.6922 2.216 40.3408 2.37467 40.8915 2.692C41.4515 3.00933 41.8762 3.434 42.1655 3.966C42.4642 4.498 42.6135 5.086 42.6135 5.73ZM41.3255 5.814C41.3535 5.24467 41.2602 4.76867 41.0455 4.386C40.8308 4.00333 40.5368 3.71867 40.1635 3.532C39.7902 3.34533 39.3842 3.252 38.9455 3.252C38.2455 3.252 37.6575 3.47133 37.1815 3.91C36.7055 4.33933 36.4488 4.974 36.4115 5.814H41.3255ZM45.5538 3.868C45.8058 3.336 46.1745 2.92533 46.6598 2.636C47.1451 2.33733 47.7238 2.188 48.3958 2.188V3.574H48.0038C47.2851 3.574 46.6971 3.76067 46.2398 4.134C45.7825 4.498 45.5538 5.10467 45.5538 5.954V10H44.2798V2.314H45.5538V3.868ZM52.8029 2.216C53.5495 2.216 54.1795 2.40267 54.6929 2.776C55.2155 3.14933 55.5795 3.64867 55.7849 4.274V2.314H57.0589V10H55.7849V8.04C55.5795 8.66533 55.2155 9.16467 54.6929 9.538C54.1795 9.91133 53.5495 10.098 52.8029 10.098C52.1215 10.098 51.5149 9.93933 50.9829 9.622C50.4509 9.30467 50.0309 8.852 49.7229 8.264C49.4242 7.66667 49.2749 6.96667 49.2749 6.164C49.2749 5.36133 49.4242 4.66133 49.7229 4.064C50.0309 3.46667 50.4509 3.00933 50.9829 2.692C51.5149 2.37467 52.1215 2.216 52.8029 2.216ZM53.1669 3.35C52.3829 3.35 51.7529 3.602 51.2769 4.106C50.8102 4.60067 50.5769 5.28667 50.5769 6.164C50.5769 7.04133 50.8102 7.732 51.2769 8.236C51.7529 8.73067 52.3829 8.978 53.1669 8.978C53.6709 8.978 54.1189 8.86133 54.5109 8.628C54.9122 8.39467 55.2249 8.068 55.4489 7.648C55.6729 7.21867 55.7849 6.724 55.7849 6.164C55.7849 5.604 55.6729 5.10933 55.4489 4.68C55.2249 4.25067 54.9122 3.924 54.5109 3.7C54.1189 3.46667 53.6709 3.35 53.1669 3.35Z" fill="#000"/>
</svg>
