<svg width="59" height="12" viewBox="0 0 59 12" fill="none" xmlns="http://www.w3.org/2000/svg">
<path id="Chevron" d="M5.39 1.032C6.594 1.032 7.588 1.33067 8.372 1.928C9.156 2.516 9.69733 3.32333 9.996 4.35H8.652C8.4 3.69667 7.994 3.17867 7.434 2.796C6.874 2.404 6.188 2.208 5.376 2.208C4.732 2.208 4.15333 2.36667 3.64 2.684C3.136 2.992 2.73467 3.44 2.436 4.028C2.14667 4.60667 2.002 5.288 2.002 6.072C2.002 6.84667 2.14667 7.52333 2.436 8.102C2.73467 8.68067 3.136 9.12867 3.64 9.446C4.15333 9.754 4.732 9.908 5.376 9.908C6.188 9.908 6.874 9.71667 7.434 9.334C7.994 8.942 8.4 8.41933 8.652 7.766H9.996C9.69733 8.79267 9.156 9.60467 8.372 10.202C7.588 10.79 6.594 11.084 5.39 11.084C4.466 11.084 3.64933 10.874 2.94 10.454C2.23067 10.0247 1.67533 9.432 1.274 8.676C0.882 7.91067 0.686 7.04267 0.686 6.072C0.686 5.092 0.882 4.21933 1.274 3.454C1.67533 2.68867 2.23067 2.096 2.94 1.676C3.64933 1.24667 4.466 1.032 5.39 1.032ZM15.7457 3.188C16.6417 3.188 17.3651 3.47733 17.9157 4.056C18.4664 4.62533 18.7417 5.45133 18.7417 6.534V11H17.4677V6.646C17.4677 5.88067 17.2717 5.29267 16.8797 4.882C16.4877 4.47133 15.9557 4.266 15.2837 4.266C14.5837 4.266 14.0237 4.49467 13.6037 4.952C13.1837 5.4 12.9737 6.058 12.9737 6.926V11H11.6997V0.64H12.9737V5.134C13.1697 4.50867 13.5151 4.028 14.0097 3.692C14.5137 3.356 15.0924 3.188 15.7457 3.188ZM27.7658 6.73C27.7658 7.00067 27.7472 7.234 27.7098 7.43H21.5638C21.5918 8.30733 21.8392 8.96533 22.3058 9.404C22.7818 9.84267 23.3605 10.062 24.0418 10.062C24.6578 10.062 25.1712 9.908 25.5818 9.6C26.0018 9.28267 26.2585 8.86267 26.3518 8.34H27.7098C27.6165 8.872 27.4065 9.348 27.0798 9.768C26.7625 10.188 26.3472 10.5147 25.8338 10.748C25.3205 10.9813 24.7418 11.098 24.0978 11.098C23.3605 11.098 22.7072 10.9393 22.1378 10.622C21.5685 10.3047 21.1205 9.852 20.7938 9.264C20.4765 8.66667 20.3178 7.96667 20.3178 7.164C20.3178 6.36133 20.4765 5.66133 20.7938 5.064C21.1205 4.46667 21.5685 4.00933 22.1378 3.692C22.7072 3.37467 23.3605 3.216 24.0978 3.216C24.8445 3.216 25.4932 3.37467 26.0438 3.692C26.6038 4.00933 27.0285 4.434 27.3178 4.966C27.6165 5.498 27.7658 6.086 27.7658 6.73ZM26.4778 6.814C26.5058 6.24467 26.4125 5.76867 26.1978 5.386C25.9832 5.00333 25.6892 4.71867 25.3158 4.532C24.9425 4.34533 24.5365 4.252 24.0978 4.252C23.3978 4.252 22.8098 4.47133 22.3338 4.91C21.8578 5.33933 21.6012 5.974 21.5638 6.814H26.4778ZM32.4142 9.642L34.7942 3.314H36.1662L33.1562 11H31.6442L28.6342 3.314H30.0062L32.4142 9.642ZM38.6905 4.868C38.9425 4.336 39.3112 3.92533 39.7965 3.636C40.2819 3.33733 40.8605 3.188 41.5325 3.188V4.574H41.1405C40.4219 4.574 39.8339 4.76067 39.3765 5.134C38.9192 5.498 38.6905 6.10467 38.6905 6.954V11H37.4165V3.314H38.6905V4.868ZM46.2756 3.216C47.0129 3.216 47.6709 3.37467 48.2496 3.692C48.8376 4.00933 49.2949 4.46667 49.6216 5.064C49.9576 5.66133 50.1256 6.36133 50.1256 7.164C50.1256 7.96667 49.9576 8.66667 49.6216 9.264C49.2949 9.852 48.8376 10.3047 48.2496 10.622C47.6709 10.9393 47.0129 11.098 46.2756 11.098C45.5382 11.098 44.8756 10.9393 44.2876 10.622C43.7089 10.3047 43.2516 9.852 42.9156 9.264C42.5796 8.66667 42.4116 7.96667 42.4116 7.164C42.4116 6.36133 42.5796 5.66133 42.9156 5.064C43.2516 4.46667 43.7089 4.00933 44.2876 3.692C44.8756 3.37467 45.5382 3.216 46.2756 3.216ZM46.2756 4.336C45.8182 4.336 45.3936 4.43867 45.0016 4.644C44.6189 4.84933 44.3062 5.16667 44.0636 5.596C43.8302 6.016 43.7136 6.53867 43.7136 7.164C43.7136 7.78 43.8302 8.30267 44.0636 8.732C44.3062 9.152 44.6189 9.46467 45.0016 9.67C45.3936 9.87533 45.8182 9.978 46.2756 9.978C46.7329 9.978 47.1529 9.87533 47.5356 9.67C47.9276 9.46467 48.2402 9.152 48.4736 8.732C48.7162 8.30267 48.8376 7.78 48.8376 7.164C48.8376 6.53867 48.7162 6.016 48.4736 5.596C48.2402 5.16667 47.9276 4.84933 47.5356 4.644C47.1529 4.43867 46.7329 4.336 46.2756 4.336ZM55.8317 3.188C56.7277 3.188 57.451 3.47733 58.0017 4.056C58.5523 4.62533 58.8277 5.45133 58.8277 6.534V11H57.5537V6.646C57.5537 5.88067 57.3577 5.29267 56.9657 4.882C56.5737 4.47133 56.0417 4.266 55.3697 4.266C54.6697 4.266 54.1097 4.49467 53.6897 4.952C53.2697 5.4 53.0597 6.058 53.0597 6.926V11H51.7857V3.314H53.0597V5.134C53.2557 4.50867 53.601 4.028 54.0957 3.692C54.5997 3.356 55.1783 3.188 55.8317 3.188Z" fill="#000"/>
</svg>
