<svg width="24" height="24" viewBox="0 0 24 24" fill="none" xmlns="http://www.w3.org/2000/svg">
<g id="clicker 61" clip-path="url(#clip0)">
<path id="Vector" d="M19.7393 7.40704C19.4001 7.40704 19.0771 7.47783 18.7837 7.60502C18.4271 6.70385 17.5524 6.06498 16.5317 6.06498C16.1526 6.06498 15.7934 6.15322 15.4736 6.31015C15.0688 5.52978 14.2576 4.9954 13.3243 4.9954C13.0499 4.9954 12.7865 5.04219 12.5403 5.12728V2.44049C12.5404 1.09487 11.4532 0 10.1166 0C8.78018 0 7.69299 1.09487 7.69299 2.44049V12.1086L5.94738 10.1115C5.93517 10.0979 5.92273 10.0845 5.9098 10.0716C5.45146 9.61294 4.84144 9.35864 4.19214 9.35549C4.18794 9.35549 4.18398 9.35549 4.17978 9.35549C3.53202 9.35549 2.92556 9.60559 2.47101 10.0605C1.66956 10.8622 1.62519 12.0521 2.34964 13.3258C3.28742 14.9734 4.30681 16.5271 5.20629 17.898C5.86358 18.8998 6.48451 19.8461 6.93841 20.6285C7.33202 21.3074 8.37687 23.5094 8.38754 23.5316C8.52313 23.8177 8.81154 24.0001 9.12798 24.0001H19.4932C19.8494 24.0001 20.1646 23.7704 20.2738 23.4316C20.4671 22.8305 22.163 17.5005 22.163 15.442V9.84777C22.1628 8.50183 21.0757 7.40704 19.7393 7.40704ZM18.9555 9.84769C18.9555 9.40583 19.3071 9.04639 19.7393 9.04639C20.1717 9.04639 20.5234 9.40583 20.5234 9.84769V15.442C20.5234 16.8099 19.4721 20.4874 18.8919 22.3606H9.64491C9.30503 21.6534 8.66802 20.3433 8.35651 19.806C7.87998 18.9843 7.24701 18.0197 6.57695 16.9984C5.69081 15.6481 4.68661 14.1174 3.77445 12.515C3.53639 12.0963 3.3182 11.5319 3.63061 11.2195C3.77631 11.0735 3.97251 10.9972 4.18422 10.9949C4.39085 10.996 4.58519 11.0739 4.73412 11.2148L7.89566 14.8314C8.12031 15.0886 8.48136 15.1793 8.80087 15.0593C9.12071 14.9392 9.33251 14.6334 9.33251 14.2919V2.44049C9.33251 1.99871 9.68427 1.63944 10.1167 1.63944C10.5492 1.63944 10.901 1.99871 10.901 2.44049V10.0939C10.901 10.5466 11.2681 10.9136 11.7207 10.9136C12.1733 10.9136 12.5404 10.5466 12.5404 10.0939V7.43565C12.5404 6.99411 12.8921 6.63492 13.3243 6.63492C13.7568 6.63492 14.1084 6.99411 14.1084 7.43565V11.1631C14.1084 11.616 14.4755 11.9829 14.9281 11.9829C15.3808 11.9829 15.7479 11.6161 15.7479 11.1631V8.50546C15.7479 8.06369 16.0995 7.70433 16.5318 7.70433C16.9643 7.70433 17.3161 8.06369 17.3161 8.50546V12.2331C17.3161 12.6858 17.6831 13.0529 18.1358 13.0529C18.5886 13.0529 18.9556 12.6858 18.9556 12.2331V9.84769H18.9555Z" fill="#000"/>
</g>
<defs>
<clipPath id="clip0">
<rect width="24" height="24" fill="#000"/>
</clipPath>
</defs>
</svg>
