<svg width="37" height="14" viewBox="0 0 37 14" fill="none" xmlns="http://www.w3.org/2000/svg">
<path id="Copy" d="M5.39 0.0319998C6.594 0.0319998 7.588 0.330667 8.372 0.928C9.156 1.516 9.69733 2.32333 9.996 3.35H8.652C8.4 2.69667 7.994 2.17867 7.434 1.796C6.874 1.404 6.188 1.208 5.376 1.208C4.732 1.208 4.15333 1.36667 3.64 1.684C3.136 1.992 2.73467 2.44 2.436 3.028C2.14667 3.60667 2.002 4.288 2.002 5.072C2.002 5.84667 2.14667 6.52333 2.436 7.102C2.73467 7.68067 3.136 8.12867 3.64 8.446C4.15333 8.754 4.732 8.908 5.376 8.908C6.188 8.908 6.874 8.71667 7.434 8.334C7.994 7.942 8.4 7.41933 8.652 6.766H9.996C9.69733 7.79267 9.156 8.60467 8.372 9.202C7.588 9.79 6.594 10.084 5.39 10.084C4.466 10.084 3.64933 9.874 2.94 9.454C2.23067 9.02467 1.67533 8.432 1.274 7.676C0.882 6.91067 0.686 6.04267 0.686 5.072C0.686 4.092 0.882 3.21933 1.274 2.454C1.67533 1.68867 2.23067 1.096 2.94 0.676C3.64933 0.246667 4.466 0.0319998 5.39 0.0319998ZM15.1857 2.216C15.9231 2.216 16.5811 2.37467 17.1597 2.692C17.7477 3.00933 18.2051 3.46667 18.5317 4.064C18.8677 4.66133 19.0357 5.36133 19.0357 6.164C19.0357 6.96667 18.8677 7.66667 18.5317 8.264C18.2051 8.852 17.7477 9.30467 17.1597 9.622C16.5811 9.93933 15.9231 10.098 15.1857 10.098C14.4484 10.098 13.7857 9.93933 13.1977 9.622C12.6191 9.30467 12.1617 8.852 11.8257 8.264C11.4897 7.66667 11.3217 6.96667 11.3217 6.164C11.3217 5.36133 11.4897 4.66133 11.8257 4.064C12.1617 3.46667 12.6191 3.00933 13.1977 2.692C13.7857 2.37467 14.4484 2.216 15.1857 2.216ZM15.1857 3.336C14.7284 3.336 14.3037 3.43867 13.9117 3.644C13.5291 3.84933 13.2164 4.16667 12.9737 4.596C12.7404 5.016 12.6237 5.53867 12.6237 6.164C12.6237 6.78 12.7404 7.30267 12.9737 7.732C13.2164 8.152 13.5291 8.46467 13.9117 8.67C14.3037 8.87533 14.7284 8.978 15.1857 8.978C15.6431 8.978 16.0631 8.87533 16.4457 8.67C16.8377 8.46467 17.1504 8.152 17.3837 7.732C17.6264 7.30267 17.7477 6.78 17.7477 6.164C17.7477 5.53867 17.6264 5.016 17.3837 4.596C17.1504 4.16667 16.8377 3.84933 16.4457 3.644C16.0631 3.43867 15.6431 3.336 15.1857 3.336ZM24.9378 2.216C25.6192 2.216 26.2258 2.37467 26.7578 2.692C27.2898 3.00933 27.7052 3.46667 28.0038 4.064C28.3118 4.66133 28.4658 5.36133 28.4658 6.164C28.4658 6.96667 28.3118 7.66667 28.0038 8.264C27.7052 8.852 27.2898 9.30467 26.7578 9.622C26.2258 9.93933 25.6192 10.098 24.9378 10.098C24.1912 10.098 23.5565 9.91133 23.0338 9.538C22.5205 9.15533 22.1658 8.656 21.9698 8.04V13.64H20.6958V2.314H21.9698V4.274C22.1658 3.658 22.5205 3.16333 23.0338 2.79C23.5565 2.40733 24.1912 2.216 24.9378 2.216ZM24.5738 3.35C24.0792 3.35 23.6312 3.46667 23.2298 3.7C22.8285 3.924 22.5158 4.25067 22.2918 4.68C22.0678 5.10933 21.9558 5.604 21.9558 6.164C21.9558 6.724 22.0678 7.21867 22.2918 7.648C22.5158 8.068 22.8285 8.39467 23.2298 8.628C23.6312 8.86133 24.0792 8.978 24.5738 8.978C25.3672 8.978 25.9972 8.73067 26.4638 8.236C26.9398 7.732 27.1778 7.04133 27.1778 6.164C27.1778 5.28667 26.9398 4.60067 26.4638 4.106C25.9972 3.602 25.3672 3.35 24.5738 3.35ZM30.6614 2.314L33.1534 8.362L35.4634 2.314H36.8774L32.3134 13.64H30.8714L32.4674 9.874L29.2334 2.314H30.6614Z" fill="#000"/>
</svg>
