<svg width="44" height="12" viewBox="0 0 44 12" fill="none" xmlns="http://www.w3.org/2000/svg">
<path id="Delete" d="M8.338 6.058C8.338 7.05667 8.13733 7.92933 7.736 8.676C7.33467 9.41333 6.742 9.98733 5.958 10.398C5.18333 10.7993 4.25 11 3.158 11H0.0220001V1.13H3.158C4.25 1.13 5.18333 1.33067 5.958 1.732C6.742 2.124 7.33467 2.69333 7.736 3.44C8.13733 4.17733 8.338 5.05 8.338 6.058ZM3.06 9.852C4.348 9.852 5.33267 9.52067 6.014 8.858C6.69533 8.19533 7.036 7.262 7.036 6.058C7.036 4.854 6.69533 3.92067 6.014 3.258C5.342 2.586 4.35733 2.25 3.06 2.25H1.296V9.852H3.06ZM17.1272 6.73C17.1272 7.00067 17.1085 7.234 17.0712 7.43H10.9252C10.9532 8.30733 11.2005 8.96533 11.6672 9.404C12.1432 9.84267 12.7218 10.062 13.4032 10.062C14.0192 10.062 14.5325 9.908 14.9432 9.6C15.3632 9.28267 15.6198 8.86267 15.7132 8.34H17.0712C16.9778 8.872 16.7678 9.348 16.4412 9.768C16.1238 10.188 15.7085 10.5147 15.1952 10.748C14.6818 10.9813 14.1032 11.098 13.4592 11.098C12.7218 11.098 12.0685 10.9393 11.4992 10.622C10.9298 10.3047 10.4818 9.852 10.1552 9.264C9.83782 8.66667 9.67916 7.96667 9.67916 7.164C9.67916 6.36133 9.83782 5.66133 10.1552 5.064C10.4818 4.46667 10.9298 4.00933 11.4992 3.692C12.0685 3.37467 12.7218 3.216 13.4592 3.216C14.2058 3.216 14.8545 3.37467 15.4052 3.692C15.9652 4.00933 16.3898 4.434 16.6792 4.966C16.9778 5.498 17.1272 6.086 17.1272 6.73ZM15.8392 6.814C15.8672 6.24467 15.7738 5.76867 15.5592 5.386C15.3445 5.00333 15.0505 4.71867 14.6772 4.532C14.3038 4.34533 13.8978 4.252 13.4592 4.252C12.7592 4.252 12.1712 4.47133 11.6952 4.91C11.2192 5.33933 10.9625 5.974 10.9252 6.814H15.8392ZM20.0675 0.64V11H18.7935V0.64H20.0675ZM29.1858 6.73C29.1858 7.00067 29.1671 7.234 29.1298 7.43H22.9838C23.0118 8.30733 23.2591 8.96533 23.7258 9.404C24.2018 9.84267 24.7804 10.062 25.4618 10.062C26.0778 10.062 26.5911 9.908 27.0018 9.6C27.4218 9.28267 27.6784 8.86267 27.7718 8.34H29.1298C29.0364 8.872 28.8264 9.348 28.4998 9.768C28.1824 10.188 27.7671 10.5147 27.2538 10.748C26.7404 10.9813 26.1618 11.098 25.5178 11.098C24.7804 11.098 24.1271 10.9393 23.5578 10.622C22.9884 10.3047 22.5404 9.852 22.2138 9.264C21.8964 8.66667 21.7378 7.96667 21.7378 7.164C21.7378 6.36133 21.8964 5.66133 22.2138 5.064C22.5404 4.46667 22.9884 4.00933 23.5578 3.692C24.1271 3.37467 24.7804 3.216 25.5178 3.216C26.2644 3.216 26.9131 3.37467 27.4638 3.692C28.0238 4.00933 28.4484 4.434 28.7378 4.966C29.0364 5.498 29.1858 6.086 29.1858 6.73ZM27.8978 6.814C27.9258 6.24467 27.8324 5.76867 27.6178 5.386C27.4031 5.00333 27.1091 4.71867 26.7358 4.532C26.3624 4.34533 25.9564 4.252 25.5178 4.252C24.8178 4.252 24.2298 4.47133 23.7538 4.91C23.2778 5.33933 23.0211 5.974 22.9838 6.814H27.8978ZM34.5201 9.88V11H33.5681C32.7841 11 32.1961 10.8133 31.8041 10.44C31.4214 10.0667 31.2301 9.44133 31.2301 8.564V4.42H30.0821V3.314H31.2301V1.396H32.5181V3.314H34.5061V4.42H32.5181V8.592C32.5181 9.08667 32.6067 9.42733 32.7841 9.614C32.9707 9.79133 33.2881 9.88 33.7361 9.88H34.5201ZM43.1447 6.73C43.1447 7.00067 43.1261 7.234 43.0887 7.43H36.9427C36.9707 8.30733 37.2181 8.96533 37.6847 9.404C38.1607 9.84267 38.7394 10.062 39.4207 10.062C40.0367 10.062 40.5501 9.908 40.9607 9.6C41.3807 9.28267 41.6374 8.86267 41.7307 8.34H43.0887C42.9954 8.872 42.7854 9.348 42.4587 9.768C42.1414 10.188 41.7261 10.5147 41.2127 10.748C40.6994 10.9813 40.1207 11.098 39.4767 11.098C38.7394 11.098 38.0861 10.9393 37.5167 10.622C36.9474 10.3047 36.4994 9.852 36.1727 9.264C35.8554 8.66667 35.6967 7.96667 35.6967 7.164C35.6967 6.36133 35.8554 5.66133 36.1727 5.064C36.4994 4.46667 36.9474 4.00933 37.5167 3.692C38.0861 3.37467 38.7394 3.216 39.4767 3.216C40.2234 3.216 40.8721 3.37467 41.4227 3.692C41.9827 4.00933 42.4074 4.434 42.6967 4.966C42.9954 5.498 43.1447 6.086 43.1447 6.73ZM41.8567 6.814C41.8847 6.24467 41.7914 5.76867 41.5767 5.386C41.3621 5.00333 41.0681 4.71867 40.6947 4.532C40.3214 4.34533 39.9154 4.252 39.4767 4.252C38.7767 4.252 38.1887 4.47133 37.7127 4.91C37.2367 5.33933 36.9801 5.974 36.9427 6.814H41.8567Z" fill="#000"/>
</svg>
