<svg width="39" height="55" viewBox="0 0 39 55" fill="none" xmlns="http://www.w3.org/2000/svg">
<circle cx="19.5" cy="19.5" r="19.5" fill="#121C78"/>
<path fill-rule="evenodd" clip-rule="evenodd" d="M28 25H30C30.552 25 31 24.552 31 24V11C31 10.448 30.552 10 30 10H17C16.448 10 16 10.448 16 11V13H11.333C10.216 13 9.733 13.576 9.397 14.107C8.803 15.047 7.861 16.539 7.288 17.485C7.1 17.797 7 18.155 7 18.52V23C7 24.089 7.743 25 9 25H10C10 26.656 11.344 28 13 28C14.656 28 16 26.656 16 25H22C22 26.656 23.344 28 25 28C26.656 28 28 26.656 28 25ZM25 23.8C24.338 23.8 23.8 24.338 23.8 25C23.8 25.662 24.338 26.2 25 26.2C25.662 26.2 26.2 25.662 26.2 25C26.2 24.338 25.662 23.8 25 23.8ZM13 23.8C12.338 23.8 11.8 24.338 11.8 25C11.8 25.662 12.338 26.2 13 26.2C13.662 26.2 14.2 25.662 14.2 25C14.2 24.338 13.662 23.8 13 23.8ZM16 21H29V23H27.235C26.686 22.386 25.888 22 25 22C24.112 22 23.314 22.386 22.765 23H15.235C14.686 22.386 13.888 22 13 22C12.112 22 11.314 22.386 10.765 23H9V18.425L10.711 15.496C10.89 15.189 11.219 15 11.574 15H16V21ZM18 12H29V19H18V12ZM15 16V19H10L11.427 16.504C11.605 16.192 11.936 16 12.295 16H15Z" fill="white"/>
<circle cx="21" cy="48" r="7" fill="#121C78"/>
</svg>
