<svg width="70" height="69" viewBox="0 0 70 69" fill="none" xmlns="http://www.w3.org/2000/svg">
<path d="M48.79 46.8927L49.8814 46.3334V51.2587L48.79 51.8181V46.8927ZM46.9127 52.7705L48.0232 52.2111V47.2857L46.9127 47.8566V52.7705ZM53.2286 49.5376L54.32 48.9782V44.0528L53.2286 44.6122V49.5376ZM58.8636 41.7178L57.7755 42.2772V47.2025L58.8636 46.6432V41.7178ZM51.3991 50.4756L52.4936 49.9134V44.988L51.3991 45.5502V50.4756ZM70 19.9108V52.9196L38.9773 68.846L0 48.829V15.8202L31.0768 0L70 19.9108ZM25.9445 9.20242L54.6509 24.0559L60.06 21.4254L31.0641 6.59487L25.9445 9.20242ZM15.2091 45.3494C14.84 43.4906 15.4859 42.412 16.9909 40.5704L17.9264 41.8182L16.6027 37.2428L13.1027 35.3668L14.0159 36.6089C12.3264 38.7402 11.9 39.3971 15.2091 45.3494ZM20.1282 44.4516L16.7491 42.6214C15.4382 43.8865 15.7945 46.5657 16.6155 46.9788L19.9309 48.7745L20.1282 44.4516ZM20.1282 35.7024C19.3964 33.0518 17.4014 31.2676 16.9909 31.9216L15.3427 34.314L18.4545 38.1407L20.1282 35.7024ZM21.5823 37.6903L20.5482 37.7993L24.2105 40.186L25.8936 37.2686L24.8659 37.349C23.38 33.3215 23.1382 32.4523 18.3623 31.5544C19.7655 32.6474 20.4591 34.3312 21.5823 37.6903ZM23.1955 41.5773L24.8182 45.9318C26.8418 47.2456 28.42 46.3075 28.0064 45.2605L26.4123 40.9863L23.1955 41.5773ZM28.07 47.237C27.0773 48.0287 25.7568 47.4722 23.1668 46.0408L23.24 44.6897L21.0668 46.9186L22.8709 51.6345L22.9377 50.3207C26.0018 51.9787 26.7273 52.2971 28.07 47.237ZM44.6123 28.9125L16.5518 13.9471L10.0482 17.2947L38.2359 32.0335L44.6123 28.9125ZM63.6364 26.2074L57.2727 29.2997V37.2916L47.7273 42.1338V33.9411L41.3636 37.0334V61.0205L63.6364 49.5892V26.2074ZM55.0677 48.5938L56.1814 48.023V43.0976L55.0677 43.6684V48.5938Z" fill="#000"/>
</svg>
