<svg width="69" height="12" viewBox="0 0 69 12" fill="none" xmlns="http://www.w3.org/2000/svg">
<path id="Download" d="M8.338 6.058C8.338 7.05667 8.13733 7.92933 7.736 8.676C7.33467 9.41333 6.742 9.98733 5.958 10.398C5.18333 10.7993 4.25 11 3.158 11H0.0220001V1.13H3.158C4.25 1.13 5.18333 1.33067 5.958 1.732C6.742 2.124 7.33467 2.69333 7.736 3.44C8.13733 4.17733 8.338 5.05 8.338 6.058ZM3.06 9.852C4.348 9.852 5.33267 9.52067 6.014 8.858C6.69533 8.19533 7.036 7.262 7.036 6.058C7.036 4.854 6.69533 3.92067 6.014 3.258C5.342 2.586 4.35733 2.25 3.06 2.25H1.296V9.852H3.06ZM13.5432 3.216C14.2805 3.216 14.9385 3.37467 15.5172 3.692C16.1052 4.00933 16.5625 4.46667 16.8892 5.064C17.2252 5.66133 17.3932 6.36133 17.3932 7.164C17.3932 7.96667 17.2252 8.66667 16.8892 9.264C16.5625 9.852 16.1052 10.3047 15.5172 10.622C14.9385 10.9393 14.2805 11.098 13.5432 11.098C12.8058 11.098 12.1432 10.9393 11.5552 10.622C10.9765 10.3047 10.5192 9.852 10.1832 9.264C9.84716 8.66667 9.67916 7.96667 9.67916 7.164C9.67916 6.36133 9.84716 5.66133 10.1832 5.064C10.5192 4.46667 10.9765 4.00933 11.5552 3.692C12.1432 3.37467 12.8058 3.216 13.5432 3.216ZM13.5432 4.336C13.0858 4.336 12.6612 4.43867 12.2692 4.644C11.8865 4.84933 11.5738 5.16667 11.3312 5.596C11.0978 6.016 10.9812 6.53867 10.9812 7.164C10.9812 7.78 11.0978 8.30267 11.3312 8.732C11.5738 9.152 11.8865 9.46467 12.2692 9.67C12.6612 9.87533 13.0858 9.978 13.5432 9.978C14.0005 9.978 14.4205 9.87533 14.8032 9.67C15.1952 9.46467 15.5078 9.152 15.7412 8.732C15.9838 8.30267 16.1052 7.78 16.1052 7.164C16.1052 6.53867 15.9838 6.016 15.7412 5.596C15.5078 5.16667 15.1952 4.84933 14.8032 4.644C14.4205 4.43867 14.0005 4.336 13.5432 4.336ZM29.6093 3.314L27.3973 11H26.0253L23.9113 4.742L21.7833 11H20.3973L18.2133 3.314H19.5013L21.1393 9.782L23.2673 3.314H24.5973L26.7393 9.768L28.3913 3.314H29.6093ZM34.8434 3.188C35.7394 3.188 36.4627 3.47733 37.0134 4.056C37.5641 4.62533 37.8394 5.45133 37.8394 6.534V11H36.5654V6.646C36.5654 5.88067 36.3694 5.29267 35.9774 4.882C35.5854 4.47133 35.0534 4.266 34.3814 4.266C33.6814 4.266 33.1214 4.49467 32.7014 4.952C32.2814 5.4 32.0714 6.058 32.0714 6.926V11H30.7974V3.314H32.0714V5.134C32.2674 4.50867 32.6127 4.028 33.1074 3.692C33.6114 3.356 34.1901 3.188 34.8434 3.188ZM41.0675 0.64V11H39.7935V0.64H41.0675ZM46.6018 3.216C47.3391 3.216 47.9971 3.37467 48.5758 3.692C49.1638 4.00933 49.6211 4.46667 49.9478 5.064C50.2838 5.66133 50.4518 6.36133 50.4518 7.164C50.4518 7.96667 50.2838 8.66667 49.9478 9.264C49.6211 9.852 49.1638 10.3047 48.5758 10.622C47.9971 10.9393 47.3391 11.098 46.6018 11.098C45.8644 11.098 45.2018 10.9393 44.6138 10.622C44.0351 10.3047 43.5778 9.852 43.2418 9.264C42.9058 8.66667 42.7378 7.96667 42.7378 7.164C42.7378 6.36133 42.9058 5.66133 43.2418 5.064C43.5778 4.46667 44.0351 4.00933 44.6138 3.692C45.2018 3.37467 45.8644 3.216 46.6018 3.216ZM46.6018 4.336C46.1444 4.336 45.7198 4.43867 45.3278 4.644C44.9451 4.84933 44.6324 5.16667 44.3898 5.596C44.1564 6.016 44.0398 6.53867 44.0398 7.164C44.0398 7.78 44.1564 8.30267 44.3898 8.732C44.6324 9.152 44.9451 9.46467 45.3278 9.67C45.7198 9.87533 46.1444 9.978 46.6018 9.978C47.0591 9.978 47.4791 9.87533 47.8618 9.67C48.2538 9.46467 48.5664 9.152 48.7998 8.732C49.0424 8.30267 49.1637 7.78 49.1637 7.164C49.1637 6.53867 49.0424 6.016 48.7998 5.596C48.5664 5.16667 48.2538 4.84933 47.8618 4.644C47.4791 4.43867 47.0591 4.336 46.6018 4.336ZM55.2618 3.216C56.0085 3.216 56.6385 3.40267 57.1518 3.776C57.6745 4.14933 58.0385 4.64867 58.2438 5.274V3.314H59.5178V11H58.2438V9.04C58.0385 9.66533 57.6745 10.1647 57.1518 10.538C56.6385 10.9113 56.0085 11.098 55.2618 11.098C54.5805 11.098 53.9738 10.9393 53.4418 10.622C52.9098 10.3047 52.4898 9.852 52.1818 9.264C51.8832 8.66667 51.7338 7.96667 51.7338 7.164C51.7338 6.36133 51.8832 5.66133 52.1818 5.064C52.4898 4.46667 52.9098 4.00933 53.4418 3.692C53.9738 3.37467 54.5805 3.216 55.2618 3.216ZM55.6258 4.35C54.8418 4.35 54.2118 4.602 53.7358 5.106C53.2692 5.60067 53.0358 6.28667 53.0358 7.164C53.0358 8.04133 53.2692 8.732 53.7358 9.236C54.2118 9.73067 54.8418 9.978 55.6258 9.978C56.1298 9.978 56.5778 9.86133 56.9698 9.628C57.3712 9.39467 57.6838 9.068 57.9078 8.648C58.1318 8.21867 58.2438 7.724 58.2438 7.164C58.2438 6.604 58.1318 6.10933 57.9078 5.68C57.6838 5.25067 57.3712 4.924 56.9698 4.7C56.5778 4.46667 56.1298 4.35 55.6258 4.35ZM64.6954 3.216C65.4421 3.216 66.0721 3.40267 66.5854 3.776C67.1081 4.14933 67.4721 4.64867 67.6774 5.274V0.64H68.9514V11H67.6774V9.04C67.4721 9.66533 67.1081 10.1647 66.5854 10.538C66.0721 10.9113 65.4421 11.098 64.6954 11.098C64.0141 11.098 63.4074 10.9393 62.8754 10.622C62.3434 10.3047 61.9234 9.852 61.6154 9.264C61.3168 8.66667 61.1674 7.96667 61.1674 7.164C61.1674 6.36133 61.3168 5.66133 61.6154 5.064C61.9234 4.46667 62.3434 4.00933 62.8754 3.692C63.4074 3.37467 64.0141 3.216 64.6954 3.216ZM65.0594 4.35C64.2754 4.35 63.6454 4.602 63.1694 5.106C62.7028 5.60067 62.4694 6.28667 62.4694 7.164C62.4694 8.04133 62.7028 8.732 63.1694 9.236C63.6454 9.73067 64.2754 9.978 65.0594 9.978C65.5634 9.978 66.0114 9.86133 66.4034 9.628C66.8048 9.39467 67.1174 9.068 67.3414 8.648C67.5654 8.21867 67.6774 7.724 67.6774 7.164C67.6774 6.604 67.5654 6.10933 67.3414 5.68C67.1174 5.25067 66.8048 4.924 66.4034 4.7C66.0114 4.46667 65.5634 4.35 65.0594 4.35Z" fill="#000"/>
</svg>
