<svg width="24" height="12" viewBox="0 0 24 12" fill="none" xmlns="http://www.w3.org/2000/svg">
<path id="Edit" d="M1.296 2.166V5.54H5.048V6.52H1.296V9.964H5.468V11H0.0220001V1.13H5.468V2.166H1.296ZM10.254 3.216C11.0007 3.216 11.6307 3.40267 12.144 3.776C12.6667 4.14933 13.0307 4.64867 13.236 5.274V0.64H14.51V11H13.236V9.04C13.0307 9.66533 12.6667 10.1647 12.144 10.538C11.6307 10.9113 11.0007 11.098 10.254 11.098C9.5727 11.098 8.96603 10.9393 8.43403 10.622C7.90203 10.3047 7.48203 9.852 7.17403 9.264C6.87536 8.66667 6.72603 7.96667 6.72603 7.164C6.72603 6.36133 6.87536 5.66133 7.17403 5.064C7.48203 4.46667 7.90203 4.00933 8.43403 3.692C8.96603 3.37467 9.5727 3.216 10.254 3.216ZM10.618 4.35C9.83403 4.35 9.20403 4.602 8.72803 5.106C8.26136 5.60067 8.02803 6.28667 8.02803 7.164C8.02803 8.04133 8.26136 8.732 8.72803 9.236C9.20403 9.73067 9.83403 9.978 10.618 9.978C11.122 9.978 11.57 9.86133 11.962 9.628C12.3634 9.39467 12.676 9.068 12.9 8.648C13.124 8.21867 13.236 7.724 13.236 7.164C13.236 6.604 13.124 6.10933 12.9 5.68C12.676 5.25067 12.3634 4.924 11.962 4.7C11.57 4.46667 11.122 4.35 10.618 4.35ZM16.3136 1.06C16.3136 0.826666 16.393 0.64 16.5516 0.499999C16.7103 0.350666 16.9203 0.276 17.1816 0.276C17.443 0.276 17.653 0.350666 17.8116 0.499999C17.9703 0.64 18.0496 0.826666 18.0496 1.06C18.0496 1.29333 17.9703 1.48467 17.8116 1.634C17.653 1.774 17.443 1.844 17.1816 1.844C16.9203 1.844 16.7103 1.774 16.5516 1.634C16.393 1.48467 16.3136 1.29333 16.3136 1.06ZM17.8116 3.314V11H16.5376V3.314H17.8116ZM23.5279 9.88V11H22.5759C21.7919 11 21.2039 10.8133 20.8119 10.44C20.4292 10.0667 20.2379 9.44133 20.2379 8.564V4.42H19.0899V3.314H20.2379V1.396H21.5259V3.314H23.5139V4.42H21.5259V8.592C21.5259 9.08667 21.6146 9.42733 21.7919 9.614C21.9786 9.79133 22.2959 9.88 22.7439 9.88H23.5279Z" fill="#000"/>
</svg>
