<svg width="36" height="12" viewBox="0 0 36 12" fill="none" xmlns="http://www.w3.org/2000/svg">
<path id="Email" d="M1.296 2.166V5.54H5.048V6.52H1.296V9.964H5.468V11H0.0220001V1.13H5.468V2.166H1.296ZM16.554 3.188C17.45 3.188 18.1687 3.47733 18.71 4.056C19.2607 4.62533 19.536 5.45133 19.536 6.534V11H18.262V6.646C18.262 5.89 18.0754 5.31133 17.702 4.91C17.338 4.50867 16.834 4.308 16.19 4.308C15.518 4.308 14.9767 4.532 14.566 4.98C14.1647 5.41867 13.964 6.06733 13.964 6.926V11H12.69V6.646C12.69 5.89 12.5034 5.31133 12.13 4.91C11.7567 4.50867 11.2527 4.308 10.618 4.308C9.9367 4.308 9.3907 4.532 8.98003 4.98C8.5787 5.41867 8.37803 6.06733 8.37803 6.926V11H7.10403V3.314H8.37803V5.064C8.5647 4.45733 8.89603 3.99533 9.37203 3.678C9.85736 3.35133 10.4127 3.188 11.038 3.188C11.6914 3.188 12.256 3.356 12.732 3.692C13.2174 4.01867 13.5627 4.504 13.768 5.148C13.9827 4.52267 14.342 4.042 14.846 3.706C15.35 3.36067 15.9194 3.188 16.554 3.188ZM24.6642 3.216C25.4109 3.216 26.0409 3.40267 26.5542 3.776C27.0769 4.14933 27.4409 4.64867 27.6462 5.274V3.314H28.9202V11H27.6462V9.04C27.4409 9.66533 27.0769 10.1647 26.5542 10.538C26.0409 10.9113 25.4109 11.098 24.6642 11.098C23.9829 11.098 23.3762 10.9393 22.8442 10.622C22.3122 10.3047 21.8922 9.852 21.5842 9.264C21.2855 8.66667 21.1362 7.96667 21.1362 7.164C21.1362 6.36133 21.2855 5.66133 21.5842 5.064C21.8922 4.46667 22.3122 4.00933 22.8442 3.692C23.3762 3.37467 23.9829 3.216 24.6642 3.216ZM25.0282 4.35C24.2442 4.35 23.6142 4.602 23.1382 5.106C22.6715 5.60067 22.4382 6.28667 22.4382 7.164C22.4382 8.04133 22.6715 8.732 23.1382 9.236C23.6142 9.73067 24.2442 9.978 25.0282 9.978C25.5322 9.978 25.9802 9.86133 26.3722 9.628C26.7735 9.39467 27.0862 9.068 27.3102 8.648C27.5342 8.21867 27.6462 7.724 27.6462 7.164C27.6462 6.604 27.5342 6.10933 27.3102 5.68C27.0862 5.25067 26.7735 4.924 26.3722 4.7C25.9802 4.46667 25.5322 4.35 25.0282 4.35ZM30.7238 1.06C30.7238 0.826666 30.8031 0.64 30.9618 0.499999C31.1204 0.350666 31.3304 0.276 31.5918 0.276C31.8531 0.276 32.0631 0.350666 32.2218 0.499999C32.3804 0.64 32.4598 0.826666 32.4598 1.06C32.4598 1.29333 32.3804 1.48467 32.2218 1.634C32.0631 1.774 31.8531 1.844 31.5918 1.844C31.3304 1.844 31.1204 1.774 30.9618 1.634C30.8031 1.48467 30.7238 1.29333 30.7238 1.06ZM32.2218 3.314V11H30.9478V3.314H32.2218ZM35.544 0.64V11H34.27V0.64H35.544Z" fill="#000"/>
</svg>
