<svg width="23" height="14" viewBox="0 0 23 14" fill="none" xmlns="http://www.w3.org/2000/svg">
<path id="Eye" d="M1.296 1.166V4.54H5.048V5.52H1.296V8.964H5.468V10H0.0220001V0.129999H5.468V1.166H1.296ZM7.63603 2.314L10.128 8.362L12.438 2.314H13.852L9.28803 13.64H7.84603L9.44203 9.874L6.20803 2.314H7.63603ZM22.09 5.73C22.09 6.00067 22.0714 6.234 22.034 6.43H15.888C15.916 7.30733 16.1634 7.96533 16.63 8.404C17.106 8.84267 17.6847 9.062 18.366 9.062C18.982 9.062 19.4954 8.908 19.906 8.6C20.326 8.28267 20.5827 7.86267 20.676 7.34H22.034C21.9407 7.872 21.7307 8.348 21.404 8.768C21.0867 9.188 20.6714 9.51467 20.158 9.748C19.6447 9.98133 19.066 10.098 18.422 10.098C17.6847 10.098 17.0314 9.93933 16.462 9.622C15.8927 9.30467 15.4447 8.852 15.118 8.264C14.8007 7.66667 14.642 6.96667 14.642 6.164C14.642 5.36133 14.8007 4.66133 15.118 4.064C15.4447 3.46667 15.8927 3.00933 16.462 2.692C17.0314 2.37467 17.6847 2.216 18.422 2.216C19.1687 2.216 19.8174 2.37467 20.368 2.692C20.928 3.00933 21.3527 3.434 21.642 3.966C21.9407 4.498 22.09 5.086 22.09 5.73ZM20.802 5.814C20.83 5.24467 20.7367 4.76867 20.522 4.386C20.3074 4.00333 20.0134 3.71867 19.64 3.532C19.2667 3.34533 18.8607 3.252 18.422 3.252C17.722 3.252 17.134 3.47133 16.658 3.91C16.182 4.33933 15.9254 4.974 15.888 5.814H20.802Z" fill="#000"/>
</svg>
