<svg width="214" height="185" viewBox="0 0 214 185" fill="none" xmlns="http://www.w3.org/2000/svg">
<path d="M47.34 179.098C46.6587 179.098 46.0427 178.981 45.492 178.748C44.9507 178.515 44.5213 178.179 44.204 177.74C43.8867 177.301 43.7233 176.783 43.714 176.186H45.814C45.842 176.587 45.982 176.905 46.234 177.138C46.4953 177.371 46.85 177.488 47.298 177.488C47.7553 177.488 48.1147 177.381 48.376 177.166C48.6373 176.942 48.768 176.653 48.768 176.298C48.768 176.009 48.6793 175.771 48.502 175.584C48.3247 175.397 48.1007 175.253 47.83 175.15C47.5687 175.038 47.2047 174.917 46.738 174.786C46.1033 174.599 45.5853 174.417 45.184 174.24C44.792 174.053 44.4513 173.778 44.162 173.414C43.882 173.041 43.742 172.546 43.742 171.93C43.742 171.351 43.8867 170.847 44.176 170.418C44.4653 169.989 44.8713 169.662 45.394 169.438C45.9167 169.205 46.514 169.088 47.186 169.088C48.194 169.088 49.0107 169.335 49.636 169.83C50.2707 170.315 50.6207 170.997 50.686 171.874H48.53C48.5113 171.538 48.3667 171.263 48.096 171.048C47.8347 170.824 47.4847 170.712 47.046 170.712C46.6633 170.712 46.3553 170.81 46.122 171.006C45.898 171.202 45.786 171.487 45.786 171.86C45.786 172.121 45.87 172.341 46.038 172.518C46.2153 172.686 46.43 172.826 46.682 172.938C46.9433 173.041 47.3073 173.162 47.774 173.302C48.4087 173.489 48.9267 173.675 49.328 173.862C49.7293 174.049 50.0747 174.329 50.364 174.702C50.6533 175.075 50.798 175.565 50.798 176.172C50.798 176.695 50.6627 177.18 50.392 177.628C50.1213 178.076 49.7247 178.435 49.202 178.706C48.6793 178.967 48.0587 179.098 47.34 179.098ZM51.7133 175.122C51.7133 174.319 51.8766 173.619 52.2033 173.022C52.5299 172.415 52.9826 171.949 53.5613 171.622C54.1399 171.286 54.8026 171.118 55.5493 171.118C56.5106 171.118 57.3039 171.361 57.9293 171.846C58.5639 172.322 58.9886 172.994 59.2033 173.862H57.0893C56.9773 173.526 56.7859 173.265 56.5153 173.078C56.2539 172.882 55.9273 172.784 55.5353 172.784C54.9753 172.784 54.5319 172.989 54.2053 173.4C53.8786 173.801 53.7153 174.375 53.7153 175.122C53.7153 175.859 53.8786 176.433 54.2053 176.844C54.5319 177.245 54.9753 177.446 55.5353 177.446C56.3286 177.446 56.8466 177.091 57.0893 176.382H59.2033C58.9886 177.222 58.5639 177.889 57.9293 178.384C57.2946 178.879 56.5013 179.126 55.5493 179.126C54.8026 179.126 54.1399 178.963 53.5613 178.636C52.9826 178.3 52.5299 177.833 52.2033 177.236C51.8766 176.629 51.7133 175.925 51.7133 175.122ZM59.8551 175.094C59.8551 174.31 60.0091 173.615 60.3171 173.008C60.6345 172.401 61.0591 171.935 61.5911 171.608C62.1325 171.281 62.7345 171.118 63.3971 171.118C63.9758 171.118 64.4798 171.235 64.9091 171.468C65.3478 171.701 65.6978 171.995 65.9591 172.35V171.244H67.9331V179H65.9591V177.866C65.7071 178.23 65.3571 178.533 64.9091 178.776C64.4705 179.009 63.9618 179.126 63.3831 179.126C62.7298 179.126 62.1325 178.958 61.5911 178.622C61.0591 178.286 60.6345 177.815 60.3171 177.208C60.0091 176.592 59.8551 175.887 59.8551 175.094ZM65.9591 175.122C65.9591 174.646 65.8658 174.24 65.6791 173.904C65.4925 173.559 65.2405 173.297 64.9231 173.12C64.6058 172.933 64.2651 172.84 63.9011 172.84C63.5371 172.84 63.2011 172.929 62.8931 173.106C62.5851 173.283 62.3331 173.545 62.1371 173.89C61.9505 174.226 61.8571 174.627 61.8571 175.094C61.8571 175.561 61.9505 175.971 62.1371 176.326C62.3331 176.671 62.5851 176.937 62.8931 177.124C63.2105 177.311 63.5465 177.404 63.9011 177.404C64.2651 177.404 64.6058 177.315 64.9231 177.138C65.2405 176.951 65.4925 176.69 65.6791 176.354C65.8658 176.009 65.9591 175.598 65.9591 175.122ZM73.8654 171.132C74.7894 171.132 75.5361 171.426 76.1054 172.014C76.6747 172.593 76.9594 173.405 76.9594 174.45V179H74.9994V174.716C74.9994 174.1 74.8454 173.629 74.5374 173.302C74.2294 172.966 73.8094 172.798 73.2774 172.798C72.7361 172.798 72.3067 172.966 71.9894 173.302C71.6814 173.629 71.5274 174.1 71.5274 174.716V179H69.5674V171.244H71.5274V172.21C71.7887 171.874 72.1201 171.613 72.5214 171.426C72.9321 171.23 73.3801 171.132 73.8654 171.132ZM87.1432 173.988C87.6939 174.091 88.1465 174.366 88.5012 174.814C88.8559 175.262 89.0332 175.775 89.0332 176.354C89.0332 176.877 88.9025 177.339 88.6412 177.74C88.3892 178.132 88.0205 178.44 87.5352 178.664C87.0499 178.888 86.4759 179 85.8132 179H81.5992V169.228H85.6312C86.2939 169.228 86.8632 169.335 87.3392 169.55C87.8245 169.765 88.1885 170.063 88.4312 170.446C88.6832 170.829 88.8092 171.263 88.8092 171.748C88.8092 172.317 88.6552 172.793 88.3472 173.176C88.0485 173.559 87.6472 173.829 87.1432 173.988ZM83.5592 173.26H85.3512C85.8179 173.26 86.1772 173.157 86.4292 172.952C86.6812 172.737 86.8072 172.434 86.8072 172.042C86.8072 171.65 86.6812 171.347 86.4292 171.132C86.1772 170.917 85.8179 170.81 85.3512 170.81H83.5592V173.26ZM85.5332 177.404C86.0092 177.404 86.3779 177.292 86.6392 177.068C86.9099 176.844 87.0452 176.527 87.0452 176.116C87.0452 175.696 86.9052 175.369 86.6252 175.136C86.3452 174.893 85.9672 174.772 85.4912 174.772H83.5592V177.404H85.5332ZM89.8113 175.094C89.8113 174.31 89.9653 173.615 90.2733 173.008C90.5906 172.401 91.0153 171.935 91.5473 171.608C92.0886 171.281 92.6906 171.118 93.3533 171.118C93.932 171.118 94.436 171.235 94.8653 171.468C95.304 171.701 95.654 171.995 95.9153 172.35V171.244H97.8893V179H95.9153V177.866C95.6633 178.23 95.3133 178.533 94.8653 178.776C94.4266 179.009 93.918 179.126 93.3393 179.126C92.686 179.126 92.0886 178.958 91.5473 178.622C91.0153 178.286 90.5906 177.815 90.2733 177.208C89.9653 176.592 89.8113 175.887 89.8113 175.094ZM95.9153 175.122C95.9153 174.646 95.822 174.24 95.6353 173.904C95.4486 173.559 95.1966 173.297 94.8793 173.12C94.562 172.933 94.2213 172.84 93.8573 172.84C93.4933 172.84 93.1573 172.929 92.8493 173.106C92.5413 173.283 92.2893 173.545 92.0933 173.89C91.9066 174.226 91.8133 174.627 91.8133 175.094C91.8133 175.561 91.9066 175.971 92.0933 176.326C92.2893 176.671 92.5413 176.937 92.8493 177.124C93.1666 177.311 93.5026 177.404 93.8573 177.404C94.2213 177.404 94.562 177.315 94.8793 177.138C95.1966 176.951 95.4486 176.69 95.6353 176.354C95.822 176.009 95.9153 175.598 95.9153 175.122ZM101.484 172.448C101.736 172.037 102.062 171.715 102.464 171.482C102.874 171.249 103.341 171.132 103.864 171.132V173.19H103.346C102.73 173.19 102.263 173.335 101.946 173.624C101.638 173.913 101.484 174.417 101.484 175.136V179H99.5236V171.244H101.484V172.448ZM104.4 175.122C104.4 174.319 104.563 173.619 104.89 173.022C105.216 172.415 105.669 171.949 106.248 171.622C106.826 171.286 107.489 171.118 108.236 171.118C109.197 171.118 109.99 171.361 110.616 171.846C111.25 172.322 111.675 172.994 111.89 173.862H109.776C109.664 173.526 109.472 173.265 109.202 173.078C108.94 172.882 108.614 172.784 108.222 172.784C107.662 172.784 107.218 172.989 106.892 173.4C106.565 173.801 106.402 174.375 106.402 175.122C106.402 175.859 106.565 176.433 106.892 176.844C107.218 177.245 107.662 177.446 108.222 177.446C109.015 177.446 109.533 177.091 109.776 176.382H111.89C111.675 177.222 111.25 177.889 110.616 178.384C109.981 178.879 109.188 179.126 108.236 179.126C107.489 179.126 106.826 178.963 106.248 178.636C105.669 178.3 105.216 177.833 104.89 177.236C104.563 176.629 104.4 175.925 104.4 175.122ZM116.49 179.126C115.743 179.126 115.071 178.963 114.474 178.636C113.876 178.3 113.405 177.829 113.06 177.222C112.724 176.615 112.556 175.915 112.556 175.122C112.556 174.329 112.728 173.629 113.074 173.022C113.428 172.415 113.909 171.949 114.516 171.622C115.122 171.286 115.799 171.118 116.546 171.118C117.292 171.118 117.969 171.286 118.576 171.622C119.182 171.949 119.658 172.415 120.004 173.022C120.358 173.629 120.536 174.329 120.536 175.122C120.536 175.915 120.354 176.615 119.99 177.222C119.635 177.829 119.15 178.3 118.534 178.636C117.927 178.963 117.246 179.126 116.49 179.126ZM116.49 177.418C116.844 177.418 117.176 177.334 117.484 177.166C117.801 176.989 118.053 176.727 118.24 176.382C118.426 176.037 118.52 175.617 118.52 175.122C118.52 174.385 118.324 173.82 117.932 173.428C117.549 173.027 117.078 172.826 116.518 172.826C115.958 172.826 115.486 173.027 115.104 173.428C114.73 173.82 114.544 174.385 114.544 175.122C114.544 175.859 114.726 176.429 115.09 176.83C115.463 177.222 115.93 177.418 116.49 177.418ZM121.189 175.094C121.189 174.31 121.343 173.615 121.651 173.008C121.969 172.401 122.398 171.935 122.939 171.608C123.481 171.281 124.083 171.118 124.745 171.118C125.249 171.118 125.73 171.23 126.187 171.454C126.645 171.669 127.009 171.958 127.279 172.322V168.64H129.267V179H127.279V177.852C127.037 178.235 126.696 178.543 126.257 178.776C125.819 179.009 125.31 179.126 124.731 179.126C124.078 179.126 123.481 178.958 122.939 178.622C122.398 178.286 121.969 177.815 121.651 177.208C121.343 176.592 121.189 175.887 121.189 175.094ZM127.293 175.122C127.293 174.646 127.2 174.24 127.013 173.904C126.827 173.559 126.575 173.297 126.257 173.12C125.94 172.933 125.599 172.84 125.235 172.84C124.871 172.84 124.535 172.929 124.227 173.106C123.919 173.283 123.667 173.545 123.471 173.89C123.285 174.226 123.191 174.627 123.191 175.094C123.191 175.561 123.285 175.971 123.471 176.326C123.667 176.671 123.919 176.937 124.227 177.124C124.545 177.311 124.881 177.404 125.235 177.404C125.599 177.404 125.94 177.315 126.257 177.138C126.575 176.951 126.827 176.69 127.013 176.354C127.2 176.009 127.293 175.598 127.293 175.122ZM138.112 174.954C138.112 175.234 138.093 175.486 138.056 175.71H132.386C132.432 176.27 132.628 176.709 132.974 177.026C133.319 177.343 133.744 177.502 134.248 177.502C134.976 177.502 135.494 177.189 135.802 176.564H137.916C137.692 177.311 137.262 177.927 136.628 178.412C135.993 178.888 135.214 179.126 134.29 179.126C133.543 179.126 132.871 178.963 132.274 178.636C131.686 178.3 131.224 177.829 130.888 177.222C130.561 176.615 130.398 175.915 130.398 175.122C130.398 174.319 130.561 173.615 130.888 173.008C131.214 172.401 131.672 171.935 132.26 171.608C132.848 171.281 133.524 171.118 134.29 171.118C135.027 171.118 135.685 171.277 136.264 171.594C136.852 171.911 137.304 172.364 137.622 172.952C137.948 173.531 138.112 174.198 138.112 174.954ZM136.082 174.394C136.072 173.89 135.89 173.489 135.536 173.19C135.181 172.882 134.747 172.728 134.234 172.728C133.748 172.728 133.338 172.877 133.002 173.176C132.675 173.465 132.474 173.871 132.4 174.394H136.082ZM148.352 169.228V170.81H144.278V173.316H147.4V174.87H144.278V179H142.318V169.228H148.352ZM150.456 170.32C150.111 170.32 149.821 170.213 149.588 169.998C149.364 169.774 149.252 169.499 149.252 169.172C149.252 168.845 149.364 168.575 149.588 168.36C149.821 168.136 150.111 168.024 150.456 168.024C150.801 168.024 151.086 168.136 151.31 168.36C151.543 168.575 151.66 168.845 151.66 169.172C151.66 169.499 151.543 169.774 151.31 169.998C151.086 170.213 150.801 170.32 150.456 170.32ZM151.422 171.244V179H149.462V171.244H151.422ZM155.039 172.448C155.291 172.037 155.617 171.715 156.019 171.482C156.429 171.249 156.896 171.132 157.419 171.132V173.19H156.901C156.285 173.19 155.818 173.335 155.501 173.624C155.193 173.913 155.039 174.417 155.039 175.136V179H153.079V171.244H155.039V172.448ZM161.427 179.126C160.792 179.126 160.223 179.014 159.719 178.79C159.215 178.557 158.813 178.244 158.515 177.852C158.225 177.46 158.067 177.026 158.039 176.55H160.013C160.05 176.849 160.195 177.096 160.447 177.292C160.708 177.488 161.03 177.586 161.413 177.586C161.786 177.586 162.075 177.511 162.281 177.362C162.495 177.213 162.603 177.021 162.603 176.788C162.603 176.536 162.472 176.349 162.211 176.228C161.959 176.097 161.553 175.957 160.993 175.808C160.414 175.668 159.938 175.523 159.565 175.374C159.201 175.225 158.883 174.996 158.613 174.688C158.351 174.38 158.221 173.965 158.221 173.442C158.221 173.013 158.342 172.621 158.585 172.266C158.837 171.911 159.191 171.631 159.649 171.426C160.115 171.221 160.661 171.118 161.287 171.118C162.211 171.118 162.948 171.351 163.499 171.818C164.049 172.275 164.353 172.896 164.409 173.68H162.533C162.505 173.372 162.374 173.129 162.141 172.952C161.917 172.765 161.613 172.672 161.231 172.672C160.876 172.672 160.601 172.737 160.405 172.868C160.218 172.999 160.125 173.181 160.125 173.414C160.125 173.675 160.255 173.876 160.517 174.016C160.778 174.147 161.184 174.282 161.735 174.422C162.295 174.562 162.757 174.707 163.121 174.856C163.485 175.005 163.797 175.239 164.059 175.556C164.329 175.864 164.469 176.275 164.479 176.788C164.479 177.236 164.353 177.637 164.101 177.992C163.858 178.347 163.503 178.627 163.037 178.832C162.579 179.028 162.043 179.126 161.427 179.126ZM168.09 172.854V176.606C168.09 176.867 168.15 177.059 168.272 177.18C168.402 177.292 168.617 177.348 168.916 177.348H169.826V179H168.594C166.942 179 166.116 178.197 166.116 176.592V172.854H165.192V171.244H166.116V169.326H168.09V171.244H169.826V172.854H168.09Z" fill="#424141"/>
<path d="M50.2015 30.3213C33.4769 30.3213 17.0292 29.4629 0.304631 29.4629L0 127.431H53.109V30.2659C52.1399 30.2659 51.1707 30.3213 50.2015 30.3213Z" fill="#D8A337"/>
<path d="M102.425 28.8809C86.0879 28.8809 69.474 30.1269 53.1094 30.2654V127.402H102.12C102.12 95.0604 102.425 61.223 102.425 28.8809Z" fill="#8E6A2E"/>
<path d="M23.0636 29.9609H10.7969V56.8481H23.0636V29.9609Z" fill="#AD8235"/>
<path d="M86.7529 29.5181H74.4863V56.4052H86.7529V29.5181Z" fill="#775220"/>
<path d="M25.5846 116.963L5.12187 115.883L4.90039 108.296L25.4738 108.96L25.5846 116.963Z" fill="#F4DDA3"/>
<path d="M145.345 65.5708H79.6367V131.28H145.345V65.5708Z" fill="#D8A337"/>
<path d="M145.345 65.5708H79.6367V73.767H145.345V65.5708Z" fill="#B58837"/>
<path d="M99.5469 77.6436H82.0469V84.5661H99.5469V77.6436Z" fill="#F4DDA3"/>
<path d="M116.74 65.4595H106.301V87.1685H116.74V65.4595Z" fill="#775A29"/>
<path d="M213.985 66.291H148.277V132H213.985V66.291Z" fill="#D8A337"/>
<path d="M213.985 66.291H148.277V74.4873H213.985V66.291Z" fill="#B58837"/>
<path d="M168.187 78.3628H150.688V85.2854H168.187V78.3628Z" fill="#F4DDA3"/>
<path d="M185.382 66.1797H174.943V87.8888H185.382V66.1797Z" fill="#775A29"/>
<path d="M177.382 0.111328H111.674V65.8201H177.382V0.111328Z" fill="#D8A337"/>
<path d="M177.382 0.111328H111.674V8.30758H177.382V0.111328Z" fill="#B58837"/>
<path d="M131.584 12.1841H114.084V19.1066H131.584V12.1841Z" fill="#F4DDA3"/>
<path d="M148.779 0H138.34V21.7091H148.779V0Z" fill="#775A29"/>
</svg>
