<svg width="79" height="79" viewBox="0 0 79 79" fill="none" xmlns="http://www.w3.org/2000/svg">
<rect width="79" height="79" rx="5" fill="#17B055"/>
<path transform="rotate(90 39 40)" fill-rule="evenodd" clip-rule="evenodd" d="M12.165 43C13.6574 56.4999 25.1026 67 39.0003 67C53.9119 67 66.0003 54.9117 66.0003 40C66.0003 25.0883 53.9119 13 39.0003 13V16C52.2551 16 63.0003 26.7452 63.0003 40C63.0003 53.2548 52.2551 64 39.0003 64C26.7614 64 16.6622 54.8389 15.1859 43H12.165Z" fill="white"/>
<path d="M44.1818 49.75V52H32.8182V49.75H44.1818ZM44.1818 45.25H32.8182V47.5H44.1818V45.25ZM32.8182 37.375V43H44.1818V37.375H51L38.5 25L26 37.375H32.8182Z" fill="white"/>
</svg>
