<svg width="80" height="60" viewBox="0 0 80 60" fill="white" xmlns="http://www.w3.org/2000/svg">
<rect x="0" y="0" width="80" height="80" fill="white"/>
<path d="M24.5 64.1667V17.5H71.1667V39.5004C71.1667 51.4792 53.6667 46.6667 53.6667 46.6667C53.6667 46.6667 58.0942 64.1667 45.9725 64.1667H24.5ZM77 41.9592V11.6667H18.6667V70H48.3846C57.61 70 77 48.9329 77 41.9592ZM47.8333 46.6667H33.25V43.75H47.8333V46.6667ZM62.4167 35H33.25V37.9167H62.4167V35ZM62.4167 26.25H33.25V29.1667H62.4167V26.25ZM68.25 5.83333H12.8333V61.25H7V0H68.25V5.83333Z" fill="#6C6B6B"/>
<rect x="31" y="21" width="32" height="26" fill="white"/>
<path d="M39.5342 36.138H35.6422L34.9982 38H32.9402L36.4542 28.214H38.7362L42.2502 38H40.1782L39.5342 36.138ZM39.0022 34.57L37.5882 30.482L36.1742 34.57H39.0022ZM46.9377 38.098C46.2563 38.098 45.6403 37.9813 45.0897 37.748C44.5483 37.5147 44.119 37.1787 43.8017 36.74C43.4843 36.3013 43.321 35.7833 43.3117 35.186H45.4117C45.4397 35.5873 45.5797 35.9047 45.8317 36.138C46.093 36.3713 46.4477 36.488 46.8957 36.488C47.353 36.488 47.7123 36.3807 47.9737 36.166C48.235 35.942 48.3657 35.6527 48.3657 35.298C48.3657 35.0087 48.277 34.7707 48.0997 34.584C47.9223 34.3973 47.6983 34.2527 47.4277 34.15C47.1663 34.038 46.8023 33.9167 46.3357 33.786C45.701 33.5993 45.183 33.4173 44.7817 33.24C44.3897 33.0533 44.049 32.778 43.7597 32.414C43.4797 32.0407 43.3397 31.546 43.3397 30.93C43.3397 30.3513 43.4843 29.8473 43.7737 29.418C44.063 28.9887 44.469 28.662 44.9917 28.438C45.5143 28.2047 46.1117 28.088 46.7837 28.088C47.7917 28.088 48.6083 28.3353 49.2337 28.83C49.8683 29.3153 50.2183 29.9967 50.2837 30.874H48.1277C48.109 30.538 47.9643 30.2627 47.6937 30.048C47.4323 29.824 47.0823 29.712 46.6437 29.712C46.261 29.712 45.953 29.81 45.7197 30.006C45.4957 30.202 45.3837 30.4867 45.3837 30.86C45.3837 31.1213 45.4677 31.3407 45.6357 31.518C45.813 31.686 46.0277 31.826 46.2797 31.938C46.541 32.0407 46.905 32.162 47.3717 32.302C48.0063 32.4887 48.5243 32.6753 48.9257 32.862C49.327 33.0487 49.6723 33.3287 49.9617 33.702C50.251 34.0753 50.3957 34.5653 50.3957 35.172C50.3957 35.6947 50.2603 36.18 49.9897 36.628C49.719 37.076 49.3223 37.4353 48.7997 37.706C48.277 37.9673 47.6563 38.098 46.9377 38.098ZM60.4529 38H58.4929L54.0549 31.294V38H52.0949V28.214H54.0549L58.4929 34.934V28.214H60.4529V38Z" fill="#6C6B6B"/>
</svg>
