<svg width="208" height="151" viewBox="0 0 208 151" fill="none" xmlns="http://www.w3.org/2000/svg">
<path d="M10.6318 42.9982V150.868H197.086V42.9982L103.854 4.73682L10.6318 42.9982Z" fill="#F08122"/>
<path d="M101.408 0L0 42.2669L3.26532 49.9209L103.854 8.74247V0" fill="#ABACAC"/>
<path d="M106.31 0L207.717 42.2669L204.452 49.9209L103.854 8.74247V0" fill="#ABACAC"/>
<path d="M178.931 69.9658H28.7871V150.868H178.931V69.9658Z" fill="#2A3156"/>
<path d="M107.869 123.544H75.9817V150.329H107.869V123.544Z" fill="#171D30"/>
<path d="M58.3751 80.4235C52.602 80.4235 46.9247 80.1274 41.1516 80.1274L41.0471 113.939H59.3764V80.4061C59.0455 80.4148 58.7147 80.4235 58.3751 80.4235Z" fill="#D8A337"/>
<path d="M76.4087 79.9272C70.7662 79.9272 65.0367 80.3626 59.3855 80.4062V113.939H76.3042C76.3042 102.767 76.4087 91.0991 76.4087 79.9272Z" fill="#8E6A2E"/>
<path d="M49.0143 80.3018H44.7825V89.5754H49.0143V80.3018Z" fill="#AD8235"/>
<path d="M70.9921 80.1538H66.7603V89.4274H70.9921V80.1538Z" fill="#775220"/>
<path d="M49.8768 110.343L42.815 109.969L42.7454 107.348L49.842 107.574L49.8768 110.343Z" fill="#F4DDA3"/>
<path d="M155.977 128.315H133.294V150.999H155.977V128.315Z" fill="#D8A337"/>
<path d="M155.977 128.315H133.294V131.145H155.977V128.315Z" fill="#B58837"/>
<path d="M140.165 132.478H134.122V134.863H140.165V132.478Z" fill="#F4DDA3"/>
<path d="M146.103 128.281H142.498V135.769H146.103V128.281Z" fill="#775A29"/>
<path d="M178.234 86.7539H155.551V109.437H178.234V86.7539Z" fill="#D8A337"/>
<path d="M178.234 86.7539H155.551V89.5839H178.234V86.7539Z" fill="#B58837"/>
<path d="M162.421 90.9165H156.378V93.3024H162.421V90.9165Z" fill="#F4DDA3"/>
<path d="M168.36 86.7192H164.755V94.2078H168.36V86.7192Z" fill="#775A29"/>
<g style="mix-blend-mode:overlay">
<path d="M145.112 87.0244H122.429V109.708H145.112V87.0244Z" fill="#D8A337"/>
<path d="M145.112 87.0244H122.429V89.8544H145.112V87.0244Z" fill="#B58837"/>
<path d="M129.299 91.1855H123.256V93.5714H129.299V91.1855Z" fill="#F4DDA3"/>
<path d="M135.237 86.9888H131.633V94.4773H135.237V86.9888Z" fill="#775A29"/>
</g>
<g style="mix-blend-mode:overlay">
<path d="M101.08 100.984H78.3972V123.668H101.08V100.984Z" fill="#D8A337"/>
<path d="M101.08 100.984H78.3972V103.814H101.08V100.984Z" fill="#B58837"/>
<path d="M85.2676 105.146H79.2246V107.532H85.2676V105.146Z" fill="#F4DDA3"/>
<path d="M91.2062 100.95H87.6013V108.438H91.2062V100.95Z" fill="#775A29"/>
</g>
<path d="M179.174 128.194H156.491V150.877H179.174V128.194Z" fill="#D8A337"/>
<path d="M179.174 128.194H156.491V131.024H179.174V128.194Z" fill="#B58837"/>
<path d="M163.37 132.356H157.327V134.742H163.37V132.356Z" fill="#F4DDA3"/>
<path d="M169.299 128.159H165.694V135.648H169.299V128.159Z" fill="#775A29"/>
<path d="M55.1445 92.5605H34.8909V112.815H55.1445V92.5605Z" fill="#D8A337"/>
<path d="M55.1445 92.5605H34.8909V95.0858H55.1445V92.5605Z" fill="#B58837"/>
<path d="M41.0298 96.2891H35.6311V98.4224H41.0298V96.2891Z" fill="#F4DDA3"/>
<path d="M46.3329 92.5361H43.1111V99.2236H46.3329V92.5361Z" fill="#775A29"/>
<path d="M90.6628 112.485H32.636V150.634H90.6628V112.485Z" fill="#D8A337"/>
<path d="M37.9475 114.305H36.563V149.066H37.9475V114.305Z" fill="#B58837"/>
<path d="M44.1037 114.305H42.7192V149.066H44.1037V114.305Z" fill="#B58837"/>
<path d="M50.26 114.305H48.8755V149.066H50.26V114.305Z" fill="#B58837"/>
<path d="M56.416 114.305H55.0315V149.066H56.416V114.305Z" fill="#B58837"/>
<path d="M62.5722 114.305H61.1877V149.066H62.5722V114.305Z" fill="#B58837"/>
<path d="M68.7285 114.305H67.344V149.066H68.7285V114.305Z" fill="#B58837"/>
<path d="M74.8843 114.305H73.4998V149.066H74.8843V114.305Z" fill="#B58837"/>
<path d="M81.0324 114.305H79.6479V149.066H81.0324V114.305Z" fill="#B58837"/>
<path d="M87.1887 114.305H85.8042V149.066H87.1887V114.305Z" fill="#B58837"/>
<path d="M183.119 67.4146H23.3186V75.8H183.119V67.4146Z" fill="#ABACAC"/>
<path d="M183.485 66.6919H22.7705V71.6117H183.485V66.6919Z" fill="#EAEAEA"/>
<path d="M10.6844 50.5043L104.099 11.8685L196.79 50.6262L196.059 44.7921L103.855 6.16504L10.3796 45.5236L10.6844 50.5043Z" fill="#D8B088" style="mix-blend-mode:multiply"/>
<path d="M120.19 44.2783H85.8213V57.035H120.19V44.2783Z" fill="#414A94"/>
<path d="M157.789 44.2783H123.42V57.035H157.789V44.2783Z" fill="#414A94"/>
<path d="M82.7211 44.2783H48.3525V57.035H82.7211V44.2783Z" fill="#414A94"/>
<path d="M82.9043 56.5732H48.3704V58.4889H82.9043V56.5732Z" fill="#BABABA" style="mix-blend-mode:multiply"/>
<path d="M120.442 56.5732H85.9082V58.4889H120.442V56.5732Z" fill="#BABABA" style="mix-blend-mode:multiply"/>
<path d="M157.893 56.5732H123.359V58.4889H157.893V56.5732Z" fill="#BABABA" style="mix-blend-mode:multiply"/>
<path d="M178.364 109.568H116.646V150.146H178.364V109.568Z" fill="#D8A337"/>
<path d="M122.297 111.51H120.825V148.492H122.297V111.51Z" fill="#B58837"/>
<path d="M128.845 111.51H127.373V148.492H128.845V111.51Z" fill="#B58837"/>
<path d="M135.392 111.51H133.921V148.492H135.392V111.51Z" fill="#B58837"/>
<path d="M141.941 111.51H140.469V148.492H141.941V111.51Z" fill="#B58837"/>
<path d="M148.489 111.51H147.017V148.492H148.489V111.51Z" fill="#B58837"/>
<path d="M155.037 111.51H153.565V148.492H155.037V111.51Z" fill="#B58837"/>
<path d="M161.585 111.51H160.113V148.492H161.585V111.51Z" fill="#B58837"/>
<path d="M168.124 111.51H166.653V148.492H168.124V111.51Z" fill="#B58837"/>
<path d="M174.672 111.51H173.201V148.492H174.672V111.51Z" fill="#B58837"/>
</svg>
