<svg width="80" height="60" viewBox="0 0 80 60" fill="none" xmlns="http://www.w3.org/2000/svg">
<path d="M24.5 64.1667V17.5H71.1667V39.5004C71.1667 51.4792 53.6667 46.6667 53.6667 46.6667C53.6667 46.6667 58.0942 64.1667 45.9725 64.1667H24.5ZM77 41.9592V11.6667H18.6667V70H48.3846C57.61 70 77 48.9329 77 41.9592ZM47.8333 46.6667H33.25V43.75H47.8333V46.6667ZM62.4167 35H33.25V37.9167H62.4167V35ZM62.4167 26.25H33.25V29.1667H62.4167V26.25ZM68.25 5.83333H12.8333V61.25H7V0H68.25V5.83333Z" fill="#6C6B6B"/>
<rect x="31" y="21" width="32" height="26" fill="white"/>
<path d="M39.7651 31.168C39.5411 30.7573 39.2331 30.4447 38.8411 30.23C38.4491 30.0153 37.9918 29.908 37.4691 29.908C36.8905 29.908 36.3771 30.0387 35.9291 30.3C35.4811 30.5613 35.1311 30.9347 34.8791 31.42C34.6271 31.9053 34.5011 32.4653 34.5011 33.1C34.5011 33.7533 34.6271 34.3227 34.8791 34.808C35.1405 35.2933 35.4998 35.6667 35.9571 35.928C36.4145 36.1893 36.9465 36.32 37.5531 36.32C38.2998 36.32 38.9111 36.124 39.3871 35.732C39.8631 35.3307 40.1758 34.7753 40.3251 34.066H36.9651V32.568H42.2571V34.276C42.1265 34.9573 41.8465 35.5873 41.4171 36.166C40.9878 36.7447 40.4325 37.2113 39.7511 37.566C39.0791 37.9113 38.3231 38.084 37.4831 38.084C36.5405 38.084 35.6865 37.874 34.9211 37.454C34.1651 37.0247 33.5678 36.432 33.1291 35.676C32.6998 34.92 32.4851 34.0613 32.4851 33.1C32.4851 32.1387 32.6998 31.28 33.1291 30.524C33.5678 29.7587 34.1651 29.166 34.9211 28.746C35.6865 28.3167 36.5358 28.102 37.4691 28.102C38.5705 28.102 39.5271 28.3727 40.3391 28.914C41.1511 29.446 41.7111 30.1973 42.0191 31.168H39.7651ZM48.7472 38L46.5912 34.192H45.6672V38H43.7072V28.228H47.3752C48.1312 28.228 48.7752 28.3633 49.3072 28.634C49.8392 28.8953 50.2359 29.2547 50.4972 29.712C50.7679 30.16 50.9032 30.664 50.9032 31.224C50.9032 31.868 50.7165 32.4513 50.3432 32.974C49.9699 33.4873 49.4145 33.842 48.6772 34.038L51.0152 38H48.7472ZM45.6672 32.722H47.3052C47.8372 32.722 48.2339 32.596 48.4952 32.344C48.7565 32.0827 48.8872 31.7233 48.8872 31.266C48.8872 30.818 48.7565 30.4727 48.4952 30.23C48.2339 29.978 47.8372 29.852 47.3052 29.852H45.6672V32.722ZM61.034 38H59.074L54.636 31.294V38H52.676V28.214H54.636L59.074 34.934V28.214H61.034V38Z" fill="#0F2B5B"/>
</svg>
