<svg width="214" height="132" viewBox="0 0 214 132" fill="none" xmlns="http://www.w3.org/2000/svg">
<path d="M50.2015 30.3213C33.4769 30.3213 17.0292 29.4629 0.304631 29.4629L0 127.431H53.109V30.2659C52.1399 30.2659 51.1707 30.3213 50.2015 30.3213Z" fill="#D8A337"/>
<path d="M102.425 28.8809C86.0879 28.8809 69.474 30.1269 53.1094 30.2654V127.402H102.12C102.12 95.0604 102.425 61.223 102.425 28.8809Z" fill="#8E6A2E"/>
<path d="M23.0636 29.9609H10.7969V56.8481H23.0636V29.9609Z" fill="#AD8235"/>
<path d="M86.7529 29.5181H74.4863V56.4052H86.7529V29.5181Z" fill="#775220"/>
<path d="M25.5846 116.963L5.12187 115.883L4.90039 108.296L25.4738 108.96L25.5846 116.963Z" fill="#F4DDA3"/>
<path d="M145.345 65.5708H79.6367V131.28H145.345V65.5708Z" fill="#D8A337"/>
<path d="M145.345 65.5708H79.6367V73.767H145.345V65.5708Z" fill="#B58837"/>
<path d="M99.5469 77.6436H82.0469V84.5661H99.5469V77.6436Z" fill="#F4DDA3"/>
<path d="M116.74 65.4595H106.301V87.1685H116.74V65.4595Z" fill="#775A29"/>
<path d="M213.985 66.291H148.277V132H213.985V66.291Z" fill="#D8A337"/>
<path d="M213.985 66.291H148.277V74.4873H213.985V66.291Z" fill="#B58837"/>
<path d="M168.187 78.3628H150.688V85.2854H168.187V78.3628Z" fill="#F4DDA3"/>
<path d="M185.382 66.1797H174.943V87.8888H185.382V66.1797Z" fill="#775A29"/>
<path d="M177.382 0.111328H111.674V65.8201H177.382V0.111328Z" fill="#D8A337"/>
<path d="M177.382 0.111328H111.674V8.30758H177.382V0.111328Z" fill="#B58837"/>
<path d="M131.584 12.1841H114.084V19.1066H131.584V12.1841Z" fill="#F4DDA3"/>
<path d="M148.779 0H138.34V21.7091H148.779V0Z" fill="#775A29"/>
</svg>
