<svg width="47" height="15" viewBox="0 0 47 15" fill="none" xmlns="http://www.w3.org/2000/svg">
<path id="History" d="M7.596 1.13V11H6.308V6.436H1.296V11H0.0220001V1.13H1.296V5.4H6.308V1.13H7.596ZM9.40933 1.06C9.40933 0.826666 9.48866 0.64 9.64733 0.499999C9.80599 0.350666 10.016 0.276 10.2773 0.276C10.5387 0.276 10.7487 0.350666 10.9073 0.499999C11.066 0.64 11.1453 0.826666 11.1453 1.06C11.1453 1.29333 11.066 1.48467 10.9073 1.634C10.7487 1.774 10.5387 1.844 10.2773 1.844C10.016 1.844 9.80599 1.774 9.64733 1.634C9.48866 1.48467 9.40933 1.29333 9.40933 1.06ZM10.9073 3.314V11H9.63333V3.314H10.9073ZM15.3636 3.216C16.2316 3.216 16.9269 3.44467 17.4496 3.902C17.9816 4.35 18.3036 4.95667 18.4156 5.722H17.1976C17.1416 5.26467 16.9503 4.89133 16.6236 4.602C16.3063 4.30333 15.8769 4.154 15.3356 4.154C14.8783 4.154 14.5189 4.266 14.2576 4.49C14.0056 4.70467 13.8796 4.99867 13.8796 5.372C13.8796 5.652 13.9636 5.88067 14.1316 6.058C14.3089 6.226 14.5236 6.35667 14.7756 6.45C15.0369 6.534 15.3916 6.62733 15.8396 6.73C16.4089 6.86067 16.8663 6.996 17.2116 7.136C17.5663 7.26667 17.8649 7.48133 18.1076 7.78C18.3596 8.07867 18.4856 8.48 18.4856 8.984C18.4856 9.60933 18.2476 10.118 17.7716 10.51C17.3049 10.902 16.6796 11.098 15.8956 11.098C14.9809 11.098 14.2343 10.8787 13.6556 10.44C13.0769 10.0013 12.7363 9.39 12.6336 8.606H13.8656C13.9123 9.07267 14.1129 9.45067 14.4676 9.74C14.8316 10.0293 15.3076 10.174 15.8956 10.174C16.3343 10.174 16.6749 10.062 16.9176 9.838C17.1696 9.614 17.2956 9.32 17.2956 8.956C17.2956 8.65733 17.2069 8.41933 17.0296 8.242C16.8523 8.06467 16.6329 7.92933 16.3716 7.836C16.1103 7.74267 15.7509 7.64467 15.2936 7.542C14.7243 7.41133 14.2669 7.28067 13.9216 7.15C13.5856 7.01933 13.2963 6.814 13.0536 6.534C12.8203 6.24467 12.7036 5.85733 12.7036 5.372C12.7036 4.728 12.9416 4.21 13.4176 3.818C13.8936 3.41667 14.5423 3.216 15.3636 3.216ZM23.856 9.88V11H22.904C22.12 11 21.532 10.8133 21.14 10.44C20.7573 10.0667 20.566 9.44133 20.566 8.564V4.42H19.418V3.314H20.566V1.396H21.854V3.314H23.842V4.42H21.854V8.592C21.854 9.08667 21.9427 9.42733 22.12 9.614C22.3067 9.79133 22.624 9.88 23.072 9.88H23.856ZM28.8967 3.216C29.634 3.216 30.292 3.37467 30.8707 3.692C31.4587 4.00933 31.916 4.46667 32.2427 5.064C32.5787 5.66133 32.7467 6.36133 32.7467 7.164C32.7467 7.96667 32.5787 8.66667 32.2427 9.264C31.916 9.852 31.4587 10.3047 30.8707 10.622C30.292 10.9393 29.634 11.098 28.8967 11.098C28.1593 11.098 27.4967 10.9393 26.9087 10.622C26.33 10.3047 25.8727 9.852 25.5367 9.264C25.2007 8.66667 25.0327 7.96667 25.0327 7.164C25.0327 6.36133 25.2007 5.66133 25.5367 5.064C25.8727 4.46667 26.33 4.00933 26.9087 3.692C27.4967 3.37467 28.1593 3.216 28.8967 3.216ZM28.8967 4.336C28.4393 4.336 28.0147 4.43867 27.6227 4.644C27.24 4.84933 26.9273 5.16667 26.6847 5.596C26.4513 6.016 26.3347 6.53867 26.3347 7.164C26.3347 7.78 26.4513 8.30267 26.6847 8.732C26.9273 9.152 27.24 9.46467 27.6227 9.67C28.0147 9.87533 28.4393 9.978 28.8967 9.978C29.354 9.978 29.774 9.87533 30.1567 9.67C30.5487 9.46467 30.8613 9.152 31.0947 8.732C31.3373 8.30267 31.4587 7.78 31.4587 7.164C31.4587 6.53867 31.3373 6.016 31.0947 5.596C30.8613 5.16667 30.5487 4.84933 30.1567 4.644C29.774 4.43867 29.354 4.336 28.8967 4.336ZM35.6808 4.868C35.9328 4.336 36.3014 3.92533 36.7868 3.636C37.2721 3.33733 37.8508 3.188 38.5228 3.188V4.574H38.1308C37.4121 4.574 36.8241 4.76067 36.3668 5.134C35.9094 5.498 35.6808 6.10467 35.6808 6.954V11H34.4068V3.314H35.6808V4.868ZM40.3118 3.314L42.8038 9.362L45.1138 3.314H46.5278L41.9638 14.64H40.5218L42.1178 10.874L38.8838 3.314H40.3118Z" fill="#000"/>
</svg>
