<svg width="42" height="11" viewBox="0 0 42 11" fill="none" xmlns="http://www.w3.org/2000/svg">
<path id="House" d="M7.596 0.129999V10H6.308V5.436H1.296V10H0.0220001V0.129999H1.296V4.4H6.308V0.129999H7.596ZM13.1193 2.216C13.8567 2.216 14.5147 2.37467 15.0933 2.692C15.6813 3.00933 16.1387 3.46667 16.4653 4.064C16.8013 4.66133 16.9693 5.36133 16.9693 6.164C16.9693 6.96667 16.8013 7.66667 16.4653 8.264C16.1387 8.852 15.6813 9.30467 15.0933 9.622C14.5147 9.93933 13.8567 10.098 13.1193 10.098C12.382 10.098 11.7193 9.93933 11.1313 9.622C10.5527 9.30467 10.0953 8.852 9.75933 8.264C9.42333 7.66667 9.25533 6.96667 9.25533 6.164C9.25533 5.36133 9.42333 4.66133 9.75933 4.064C10.0953 3.46667 10.5527 3.00933 11.1313 2.692C11.7193 2.37467 12.382 2.216 13.1193 2.216ZM13.1193 3.336C12.662 3.336 12.2373 3.43867 11.8453 3.644C11.4627 3.84933 11.15 4.16667 10.9073 4.596C10.674 5.016 10.5573 5.53867 10.5573 6.164C10.5573 6.78 10.674 7.30267 10.9073 7.732C11.15 8.152 11.4627 8.46467 11.8453 8.67C12.2373 8.87533 12.662 8.978 13.1193 8.978C13.5767 8.978 13.9967 8.87533 14.3793 8.67C14.7713 8.46467 15.084 8.152 15.3173 7.732C15.56 7.30267 15.6813 6.78 15.6813 6.164C15.6813 5.53867 15.56 5.016 15.3173 4.596C15.084 4.16667 14.7713 3.84933 14.3793 3.644C13.9967 3.43867 13.5767 3.336 13.1193 3.336ZM25.4614 2.314V10H24.1874V8.194C23.9914 8.81933 23.6414 9.3 23.1374 9.636C22.6428 9.96267 22.0641 10.126 21.4014 10.126C20.5148 10.126 19.7961 9.84133 19.2454 9.272C18.6948 8.69333 18.4194 7.86733 18.4194 6.794V2.314H19.6934V6.668C19.6934 7.43333 19.8894 8.026 20.2814 8.446C20.6734 8.85667 21.2054 9.062 21.8774 9.062C22.5774 9.062 23.1374 8.838 23.5574 8.39C23.9774 7.93267 24.1874 7.27 24.1874 6.402V2.314H25.4614ZM29.9105 2.216C30.7785 2.216 31.4738 2.44467 31.9965 2.902C32.5285 3.35 32.8505 3.95667 32.9625 4.722H31.7445C31.6885 4.26467 31.4971 3.89133 31.1705 3.602C30.8531 3.30333 30.4238 3.154 29.8825 3.154C29.4251 3.154 29.0658 3.266 28.8045 3.49C28.5525 3.70467 28.4265 3.99867 28.4265 4.372C28.4265 4.652 28.5105 4.88067 28.6785 5.058C28.8558 5.226 29.0705 5.35667 29.3225 5.45C29.5838 5.534 29.9385 5.62733 30.3865 5.73C30.9558 5.86067 31.4131 5.996 31.7585 6.136C32.1131 6.26667 32.4118 6.48133 32.6545 6.78C32.9065 7.07867 33.0325 7.48 33.0325 7.984C33.0325 8.60933 32.7945 9.118 32.3185 9.51C31.8518 9.902 31.2265 10.098 30.4425 10.098C29.5278 10.098 28.7811 9.87867 28.2025 9.44C27.6238 9.00133 27.2831 8.39 27.1805 7.606H28.4125C28.4591 8.07267 28.6598 8.45067 29.0145 8.74C29.3785 9.02933 29.8545 9.174 30.4425 9.174C30.8811 9.174 31.2218 9.062 31.4645 8.838C31.7165 8.614 31.8425 8.32 31.8425 7.956C31.8425 7.65733 31.7538 7.41933 31.5765 7.242C31.3991 7.06467 31.1798 6.92933 30.9185 6.836C30.6571 6.74267 30.2978 6.64467 29.8405 6.542C29.2711 6.41133 28.8138 6.28067 28.4685 6.15C28.1325 6.01933 27.8431 5.814 27.6005 5.534C27.3671 5.24467 27.2505 4.85733 27.2505 4.372C27.2505 3.728 27.4885 3.21 27.9645 2.818C28.4405 2.41667 29.0891 2.216 29.9105 2.216ZM41.8049 5.73C41.8049 6.00067 41.7862 6.234 41.7489 6.43H35.6029C35.6309 7.30733 35.8782 7.96533 36.3449 8.404C36.8209 8.84267 37.3996 9.062 38.0809 9.062C38.6969 9.062 39.2102 8.908 39.6209 8.6C40.0409 8.28267 40.2976 7.86267 40.3909 7.34H41.7489C41.6556 7.872 41.4456 8.348 41.1189 8.768C40.8016 9.188 40.3862 9.51467 39.8729 9.748C39.3596 9.98133 38.7809 10.098 38.1369 10.098C37.3996 10.098 36.7462 9.93933 36.1769 9.622C35.6076 9.30467 35.1596 8.852 34.8329 8.264C34.5156 7.66667 34.3569 6.96667 34.3569 6.164C34.3569 5.36133 34.5156 4.66133 34.8329 4.064C35.1596 3.46667 35.6076 3.00933 36.1769 2.692C36.7462 2.37467 37.3996 2.216 38.1369 2.216C38.8836 2.216 39.5322 2.37467 40.0829 2.692C40.6429 3.00933 41.0676 3.434 41.3569 3.966C41.6556 4.498 41.8049 5.086 41.8049 5.73ZM40.5169 5.814C40.5449 5.24467 40.4516 4.76867 40.2369 4.386C40.0222 4.00333 39.7282 3.71867 39.3549 3.532C38.9816 3.34533 38.5756 3.252 38.1369 3.252C37.4369 3.252 36.8489 3.47133 36.3729 3.91C35.8969 4.33933 35.6402 4.974 35.6029 5.814H40.5169Z" fill="#000"/>
</svg>
