<svg width="24" height="24" viewBox="0 0 24 24" fill="none" xmlns="http://www.w3.org/2000/svg">
<g id="iconmonstr-help-6 1" clip-path="url(#clip0)">
<path id="Vector" d="M12 3C17.514 3 22 6.592 22 11.007C22 15.924 16.855 18.968 12.09 18.968C10.153 18.968 8.707 18.571 7.696 18.324C6.696 18.937 6.101 19.361 3.424 20.144C3.959 18.771 4.147 17.396 4.026 15.879C3.188 14.879 2.001 13.479 2.001 11.007C2 6.592 6.486 3 12 3ZM12 1C5.662 1 0 5.226 0 11.007C0 13.057 0.738 15.07 2.047 16.632C2.102 18.462 1.024 21.088 0.054 23C2.656 22.53 6.355 21.492 8.032 20.464C9.45 20.809 10.807 20.967 12.091 20.967C19.175 20.967 24.001 16.13 24.001 11.006C24 5.195 18.299 1 12 1ZM13.024 14.975C13.024 15.541 12.566 16 12 16C11.435 16 10.976 15.541 10.976 14.975C10.976 14.41 11.435 13.951 12 13.951C12.566 13.951 13.024 14.41 13.024 14.975ZM14.165 6.783C13.667 6.278 12.924 6 12.075 6C10.289 6 9.134 7.271 9.134 9.237H10.781C10.781 8.02 11.461 7.588 12.042 7.588C12.561 7.588 13.112 7.933 13.159 8.592C13.211 9.286 12.84 9.638 12.371 10.085C11.214 11.185 11.192 11.718 11.198 12.927H12.841C12.831 12.383 12.866 11.941 13.607 11.142C14.162 10.544 14.852 9.8 14.866 8.665C14.874 7.907 14.633 7.256 14.165 6.783Z" fill="#000"/>
</g>
<defs>
<clipPath id="clip0">
<rect width="24" height="24" fill="#000"/>
</clipPath>
</defs>
</svg>
