<svg width="20" height="20" viewBox="0 0 20 20" fill="none" xmlns="http://www.w3.org/2000/svg">
<g id="iconmonstr-x-mark-5 1">
<path id="Vector" d="M10 1.66667C14.595 1.66667 18.3333 5.405 18.3333 10C18.3333 14.595 14.595 18.3333 10 18.3333C5.405 18.3333 1.66667 14.595 1.66667 10C1.66667 5.405 5.405 1.66667 10 1.66667ZM10 0C4.4775 0 0 4.4775 0 10C0 15.5225 4.4775 20 10 20C15.5225 20 20 15.5225 20 10C20 4.4775 15.5225 0 10 0ZM15 13.4117L11.5358 9.99167L14.9525 6.54083L13.4117 5L9.99083 8.46583L6.5275 5.0475L5 6.57583L8.4675 10.0092L5.0475 13.4733L6.57583 15L10.0075 11.5342L13.46 14.9525L15 13.4117Z" fill="#000"/>
</g>
</svg>
