<svg width="24" height="24" viewBox="0 0 24 24" fill="none" xmlns="http://www.w3.org/2000/svg">
<path fill-rule="evenodd" clip-rule="evenodd" d="M2 11.741C0.779 10.732 0 9.206 0 7.5C0 4.464 2.464 2 5.5 2C7.206 2 8.732 2.779 9.741 4H14C14.552 4 15 4.448 15 5V7H19.667C20.784 7 21.267 7.576 21.603 8.107C22.197 9.047 23.139 10.539 23.712 11.485C23.9 11.797 24 12.155 24 12.52V17C24 18.156 23.384 19 22 19H21C21 20.656 19.656 22 18 22C16.344 22 15 20.656 15 19H11C11 20.656 9.656 22 8 22C6.344 22 5 20.656 5 19H3C2.448 19 2 18.552 2 18V11.741ZM8 17.8C8.662 17.8 9.2 18.338 9.2 19C9.2 19.662 8.662 20.2 8 20.2C7.338 20.2 6.8 19.662 6.8 19C6.8 18.338 7.338 17.8 8 17.8ZM18 17.8C18.662 17.8 19.2 18.338 19.2 19C19.2 19.662 18.662 20.2 18 20.2C17.338 20.2 16.8 19.662 16.8 19C16.8 18.338 17.338 17.8 18 17.8ZM10.793 6C10.928 6.477 11 6.98 11 7.5C11 10.536 8.536 13 5.5 13C4.98 13 4.477 12.928 4 12.793V17H5.765C6.314 16.386 7.112 16 8 16C8.888 16 9.686 16.386 10.235 17H15.765C16.314 16.386 17.112 16 18 16C18.888 16 19.686 16.386 20.235 17H22V12.425L20.289 9.496C20.11 9.189 19.781 9 19.426 9H15V15H13V6H10.793ZM16 10V13H21L19.573 10.504C19.395 10.192 19.064 10 18.705 10H16ZM5.5 4C7.432 4 9 5.568 9 7.5C9 9.432 7.432 11 5.5 11C3.568 11 2 9.432 2 7.5C2 5.568 3.568 4 5.5 4ZM6 7H8V8H5V5H6V7Z" fill="#000"/>
</svg>
