<svg width="20" height="20" viewBox="0 0 20 20" fill="none" xmlns="http://www.w3.org/2000/svg">
<g id="iconmonstr-airport-8" clip-path="url(#clip0)">
<path id="Vector" fill-rule="evenodd" clip-rule="evenodd" d="M10.5967 8.27234L15.0992 9.6565L17.1383 8.619C18.2425 8.12317 19.9892 8.5315 20 9.82734C20.0075 10.5407 19.5042 11.4332 18.7542 11.8482L16.75 12.869L15.22 17.3365L13.1425 18.3332L12.9233 14.8173L11.5008 15.5415L10.9392 17.049L9.11417 17.9007L8.72667 14.929L6.54583 12.8007L8.3175 11.8898L9.85 12.329L11.2742 11.604L8.53333 9.329L10.5967 8.27234ZM7.58667 17.1382C3.53667 18.3348 0.3275 14.3873 0 12.4998C1.24833 13.8748 3.43167 14.9173 5.99 14.2365L6.91583 15.1407C6.05417 15.494 4.75 15.7082 3.63917 15.4798C4.79333 16.2065 5.87917 16.424 7.44083 16.024L7.58667 17.1382ZM18.5675 9.91734C18.4508 9.86734 18.0208 9.75567 17.7667 9.90067L15.21 11.1998L10.965 9.72734L13.8217 11.9065L10.1025 13.8023L8.75583 13.2157L9.97667 14.3165L10.0475 15.849L10.5192 14.4598L14.0933 12.6898L14.2775 15.9565L15.5792 11.9023C15.5792 11.9023 17.84 10.7157 18.1658 10.5382C18.4758 10.3682 18.5675 9.91734 18.5675 9.91734ZM0.0108333 10.4257L0 9.99984C0 5.39817 3.73083 1.6665 8.33333 1.6665C12.0517 1.6665 15.2025 4.10317 16.2742 7.46734C16.2742 7.46734 15.3758 7.93484 14.9608 8.1465C14.915 8.05234 11.0133 6.91817 11.0133 6.91817C10.7033 6.82484 10.3883 6.804 9.87 7.05234L9.64417 6.71567C9.56417 6.66317 8.94083 6.22567 9.11083 6.5115L9.65833 7.0565C9.63167 7.07484 9.515 6.85734 9.515 7.0165C9.5375 6.95484 9.53667 7.14317 9.50917 7.23734L9.44833 7.26817L9.44167 7.2565C9.40417 7.19484 9.50333 7.16067 9.44583 7.07067C9.44583 7.0115 9.28917 6.954 9.2575 6.914C9.17 6.8065 8.94 6.569 8.815 6.5115C8.78 6.49567 8.28417 6.57234 8.2425 6.58817L8.11833 6.804C8.015 6.84234 7.91917 6.8915 7.8275 6.95317L7.71833 7.19734C7.67 7.23984 7.18667 7.39984 7.18417 7.40567C7.205 7.35317 6.84583 7.2865 6.86917 7.18234C6.89583 7.06817 7.0175 6.71067 6.98583 6.57984C6.9525 6.44234 7.73167 6.77734 7.78333 6.41567C7.8025 6.26067 7.81417 6.07817 7.565 6.0515C7.61167 6.0565 8.0475 5.88067 8.11917 5.8015C8.22083 5.68484 8.45333 5.494 8.6225 5.494C8.82 5.494 8.77667 5.20734 8.8675 5.0665C8.95833 5.10317 8.81917 5.32734 8.92833 5.419C8.92083 5.34734 9.23667 5.45817 9.2675 5.4415C9.34083 5.40317 9.74333 5.42567 9.68083 5.23567C9.61083 5.044 9.71583 5.10067 9.80667 5.06067C9.79 5.0665 10.0417 4.63067 10.0858 4.774C10.0558 4.6265 9.79333 4.82484 9.70167 4.81817C9.49083 4.80067 9.57917 4.4565 9.66 4.35567C9.72167 4.27567 9.49083 4.17817 9.48833 4.33067C9.48417 4.559 9.27167 4.76567 9.32 5.06984C9.39667 5.52817 8.81 4.95984 8.75917 4.99067C8.565 5.10817 8.40583 4.84234 8.50667 4.6815C8.60917 4.519 8.85667 4.52734 8.95917 4.35234C9.03083 4.22817 9.115 4.08484 9.22667 3.99067C9.59833 3.679 9.70083 3.929 10.07 3.96234C10.4333 3.99567 10.1925 4.049 10.1433 4.18734C10.095 4.31984 10.3417 4.3665 10.4275 4.2565C10.475 4.19234 10.5867 4.03234 10.6342 3.91317C10.6958 3.759 11.26 3.7765 10.8658 3.54067C10.6067 3.3865 9.47417 3.074 8.71583 3.074C8.5525 3.074 8.4375 3.2565 8.3125 3.36067C8.065 3.56567 7.43333 3.96734 7.08 3.84567C6.72 3.72067 5.94833 4.30317 5.82417 4.30817C5.77833 4.30984 5.82583 3.8665 6.0725 3.83484C5.965 3.84984 6.93833 3.34317 6.9125 3.23734C6.88 3.11234 4.96833 3.80817 5.05333 3.949C5.09333 4.0115 5.26167 4.0115 5.0425 4.15317C4.9175 4.22734 4.78333 4.70817 4.66583 4.70817C4.315 4.8615 4.29333 4.4065 3.90333 4.99234L3.2825 5.24317C2.36083 6.22234 1.7225 7.46317 1.49083 8.84234C1.48167 8.89734 1.72333 8.99817 1.75417 9.0365C1.83167 9.12984 1.83167 9.5315 1.87 9.66234C1.96667 9.994 2.2025 10.179 2.38417 10.4807C2.49083 10.6607 2.66917 11.1157 2.6125 11.3048C2.68833 11.1815 3.35667 11.8707 3.47833 12.0148C3.73083 12.3123 3.93333 12.6648 3.65917 12.974C1.38667 12.6623 0.0108333 10.4257 0.0108333 10.4257ZM6.065 11.454C5.49667 11.0773 5.33583 10.2373 5.53833 9.59567C5.56417 9.46317 5.45917 9.219 5.505 9.11734C5.61417 8.87234 5.83917 8.59817 6.03417 8.41234C6.14417 8.30817 6.285 8.33484 6.41417 8.254C6.61333 8.129 6.61583 7.87067 6.81167 7.71234C7.08917 7.48567 7.46833 7.49067 7.83083 7.44234C8.02417 7.4165 8.75833 7.25734 8.875 7.40067L8.90917 7.54484L7.88833 8.06734C7.13167 8.48234 6.93583 9.33067 7.26333 9.9565C7.40333 10.2215 7.80833 10.5682 7.80833 10.5682C7.73833 10.5965 6.065 11.454 6.065 11.454ZM7.63333 5.20734L7.70833 5.18567L7.67333 5.28067C7.7325 5.38817 7.68833 5.45317 7.67917 5.5115L7.575 5.57484C7.53833 5.6215 7.75417 5.62817 7.75667 5.634C7.76417 5.65734 7.49583 5.69567 7.54583 5.75317C7.61167 5.84734 8.11833 5.61734 8.0375 5.63067C8.19333 5.55234 8.05833 5.544 7.97 5.49817C7.94 5.34984 7.91583 5.119 7.8225 5.0265L7.88333 4.9565C7.74 4.74817 7.63333 5.20734 7.63333 5.20734ZM7.27583 5.5865C7.21583 5.61067 7.1575 5.57234 7.215 5.514L7.27583 5.44067L7.27 5.40734L7.31833 5.3465L7.36833 5.334L7.47167 5.2615C7.50167 5.26817 7.57333 5.32734 7.54833 5.364L7.49333 5.43234C7.48083 5.54817 7.36417 5.54734 7.2775 5.58567L7.27583 5.5865L7.2775 5.58567L7.27583 5.5865Z" fill="#000"/>
</g>
<defs>
<clipPath id="clip0">
<rect width="20" height="20" fill="#000"/>
</clipPath>
</defs>
</svg>
