<svg width="24" height="24" viewBox="0 0 24 24" fill="none" xmlns="http://www.w3.org/2000/svg">
<g id="iconmonstr-bell-8" clip-path="url(#clip0)">
<path id="Vector" d="M15 21C15 22.598 13.608 24 12.029 24C10.45 24 9 22.598 9 21H15ZM15.137 3.945C14.493 3.571 14.095 2.875 14.096 2.125V2.122C14.097 0.95 13.158 0 12 0C10.842 0 9.903 0.95 9.903 2.122V2.125C9.904 2.876 9.507 3.571 8.862 3.945C4.194 6.654 6.877 15.66 2 17.251V19H22V17.251C17.123 15.66 19.807 6.653 15.137 3.945ZM12 1C12.552 1 13 1.449 13 2C13 2.552 12.552 3 12 3C11.448 3 11 2.552 11 2C11 1.449 11.448 1 12 1ZM5.549 17C6.738 15.333 7.154 13.109 7.513 11.185C7.96 8.795 8.382 6.537 9.867 5.676C11.247 4.875 12.823 4.916 14.134 5.676C15.619 6.537 16.041 8.795 16.488 11.185C16.847 13.109 17.263 15.333 18.452 17H5.549ZM20.778 9.321C20.958 10.042 20.828 10.767 20.474 11.356L21.444 11.94C21.948 11.102 22.132 10.071 21.877 9.048C21.622 8.024 20.977 7.2 20.138 6.697L19.556 7.667C20.145 8.022 20.599 8.601 20.778 9.321ZM21.174 4.975L20.577 5.97C21.6 6.586 22.389 7.593 22.702 8.844C23.013 10.095 22.787 11.354 22.172 12.378L23.166 12.976C23.702 12.084 24.001 11.05 24.001 9.976C24 7.996 22.991 6.067 21.174 4.975ZM4.444 7.667L3.862 6.697C3.023 7.201 2.378 8.024 2.123 9.048C1.868 10.071 2.052 11.101 2.556 11.94L3.526 11.356C3.172 10.768 3.042 10.042 3.222 9.321C3.401 8.601 3.855 8.022 4.444 7.667ZM0 9.975C0 11.049 0.299 12.083 0.835 12.975L1.829 12.377C1.214 11.353 0.988 10.094 1.299 8.843C1.611 7.592 2.4 6.585 3.423 5.97L2.826 4.975C1.009 6.067 0 7.996 0 9.975Z" fill="#000"/>
</g>
<defs>
<clipPath id="clip0">
<rect width="24" height="24" fill="#000"/>
</clipPath>
</defs>
</svg>
