<svg width="20" height="20" viewBox="0 0 20 20" fill="none" xmlns="http://www.w3.org/2000/svg">
<g id="iconmonstr-banknote-20" clip-path="url(#clip0)">
<path id="Vector" d="M17.2225 11.6665C18.7067 11.6665 20 11.1073 20 10.4165C20 9.72567 18.7067 9.1665 17.2225 9.1665C15.7383 9.1665 14.445 9.72567 14.445 10.4165C14.445 11.1073 15.7375 11.6665 17.2225 11.6665ZM17.2742 10.5498C17.1083 10.4998 16.5992 10.4573 16.5992 10.1748C16.5992 10.0173 16.785 9.8765 17.1317 9.84484V9.7215H17.31V9.839C17.44 9.84234 17.585 9.8565 17.7458 9.889L17.6808 10.0798C17.5583 10.0515 17.4217 10.0248 17.2875 10.0248L17.2475 10.0257C16.98 10.0365 16.9583 10.1848 17.1433 10.2482C17.4467 10.3415 17.8467 10.4107 17.8467 10.659C17.8467 10.8573 17.6058 10.964 17.3092 10.9898V11.1115H17.1308V10.9957C16.9475 10.994 16.755 10.964 16.5958 10.9107L16.6775 10.7198C16.8133 10.7548 16.9833 10.7898 17.1375 10.7898L17.2533 10.7815C17.4592 10.7532 17.5 10.6157 17.2742 10.5498ZM17.2225 14.9998C18.2733 14.9998 19.3642 14.7307 20 14.2215V14.5832C20 15.274 18.7067 15.8332 17.2225 15.8332C15.7383 15.8332 14.445 15.274 14.445 14.5832V14.2215C15.0808 14.7307 16.1708 14.9998 17.2225 14.9998ZM17.2225 12.2223C18.2733 12.2223 19.3642 11.9532 20 11.444V11.8057C20 12.4965 18.7067 13.0557 17.2225 13.0557C15.7383 13.0557 14.445 12.4965 14.445 11.8057V11.444C15.0808 11.9532 16.1708 12.2223 17.2225 12.2223ZM17.2225 13.6107C18.2733 13.6107 19.3642 13.3415 20 12.8315V13.194C20 13.884 18.7067 14.444 17.2225 14.444C15.7383 14.444 14.445 13.884 14.445 13.194V12.8315C15.0808 13.3415 16.1708 13.6107 17.2225 13.6107ZM7.08333 10.4165C7.08333 11.5665 8.01667 12.4998 9.16667 12.4998C10.3167 12.4998 11.25 11.5665 11.25 10.4165C11.25 9.2665 10.3167 8.33317 9.16667 8.33317C8.01667 8.33317 7.08333 9.2665 7.08333 10.4165ZM9.78 9.4665L9.705 9.809C9.545 9.75317 9.3675 9.70234 9.19583 9.71234C8.88583 9.73067 8.85833 9.999 9.075 10.1115C9.43167 10.279 9.89583 10.4032 9.89583 10.8498C9.89667 11.2073 9.6175 11.399 9.27167 11.4465V11.6665H9.0625V11.4582C8.84667 11.4548 8.62417 11.4032 8.43833 11.3073L8.5325 10.9648C8.73167 11.0415 8.9975 11.124 9.205 11.0773C9.44417 11.0232 9.49333 10.7773 9.22833 10.6582C9.03417 10.5682 8.44167 10.4907 8.44167 9.98234C8.44167 9.69817 8.65917 9.444 9.06333 9.38817V9.1665H9.2725V9.37817C9.42167 9.38234 9.59083 9.409 9.78 9.4665ZM15 4.99984H0.833333V13.3332H0V4.1665H15V4.99984ZM16.6667 5.83317V8.19484C16.0708 8.244 15.4992 8.37317 15 8.5765V7.49984H3.33333V13.3332H13.3333V14.9998H1.66667V5.83317H16.6667Z" fill="#000"/>
</g>
<defs>
<clipPath id="clip0">
<rect width="20" height="20" fill="#000"/>
</clipPath>
</defs>
</svg>
