<svg width="20" height="20" viewBox="0 0 20 20" fill="none" xmlns="http://www.w3.org/2000/svg">
<g id="iconmonstr-x-mark-7">
<path id="Vector" d="M10 1.66667C14.595 1.66667 18.3333 5.405 18.3333 10C18.3333 14.595 14.595 18.3333 10 18.3333C5.405 18.3333 1.66667 14.595 1.66667 10C1.66667 5.405 5.405 1.66667 10 1.66667ZM10 0C4.4775 0 0 4.4775 0 10C0 15.5225 4.4775 20 10 20C15.5225 20 20 15.5225 20 10C20 4.4775 15.5225 0 10 0ZM15 13.7817L11.1733 9.99167L14.9617 6.16917L13.7817 5L9.99417 8.82417L6.17083 5.03833L5 6.20917L8.8275 10.0025L5.03833 13.8292L6.20917 15L10.005 11.17L13.8308 14.9617L15 13.7817Z" fill="#000"/>
</g>
</svg>
