<svg width="20" height="20" viewBox="0 0 20 20" fill="none" xmlns="http://www.w3.org/2000/svg">
<g id="iconmonstr-paypal-9">
<path id="Vector" d="M18.3333 3.3335H1.66667C0.746667 3.3335 0 4.08016 0 5.00016V15.0002C0 15.9202 0.746667 16.6668 1.66667 16.6668H18.3333C19.2533 16.6668 20 15.9202 20 15.0002V5.00016C20 4.08016 19.2533 3.3335 18.3333 3.3335ZM18.3333 14.5835C18.3333 14.8135 18.1467 15.0002 17.9167 15.0002H2.08333C1.85333 15.0002 1.66667 14.8135 1.66667 14.5835V5.41683C1.66667 5.18683 1.85333 5.00016 2.08333 5.00016H17.9167C18.1467 5.00016 18.3333 5.18683 18.3333 5.41683V14.5835ZM13.1942 9.3785C13.1942 9.52766 13.1758 9.67933 13.1475 9.83016C12.9125 11.0577 12.1067 11.4818 11.0783 11.4818H10.9192C10.7933 11.4818 10.6867 11.5743 10.6667 11.701L10.4433 13.1152C10.4242 13.241 10.3175 13.3335 10.1917 13.3335H9.43167C9.32333 13.3335 9.24083 13.2368 9.2575 13.1302L9.6425 10.6635L9.66 10.6477H10.2583C11.7125 10.6477 12.6217 9.92016 12.89 8.54516C13.115 8.77183 13.1942 9.06683 13.1942 9.3785ZM9.24583 10.5593C9.27833 10.3302 9.37333 10.2327 9.63083 10.2318L10.2583 10.231C11.5292 10.231 12.2575 9.65016 12.4867 8.456C12.7092 7.30766 11.9025 6.66683 10.8117 6.66683H8.77167C8.62833 6.66683 8.50583 6.77266 8.48333 6.91683C7.84333 11.0377 7.65833 12.0852 7.63917 12.4052C7.63333 12.506 7.71417 12.5918 7.81583 12.5918H8.92417L9.24583 10.5593Z" fill="#000"/>
</g>
</svg>
