<svg width="24" height="24" viewBox="0 0 24 24" fill="none" xmlns="http://www.w3.org/2000/svg">
<g id="iconmonstr-paypal-9">
<path id="Vector" d="M22 4H2C0.896 4 0 4.896 0 6V18C0 19.104 0.896 20 2 20H22C23.104 20 24 19.104 24 18V6C24 4.896 23.104 4 22 4ZM22 17.5C22 17.776 21.776 18 21.5 18H2.5C2.224 18 2 17.776 2 17.5V6.5C2 6.224 2.224 6 2.5 6H21.5C21.776 6 22 6.224 22 6.5V17.5ZM15.833 11.254C15.833 11.433 15.811 11.615 15.777 11.796C15.495 13.269 14.528 13.778 13.294 13.778H13.103C12.952 13.778 12.824 13.889 12.8 14.041L12.532 15.738C12.509 15.889 12.381 16 12.23 16H11.318C11.188 16 11.089 15.884 11.109 15.756L11.571 12.796L11.592 12.777H12.31C14.055 12.777 15.146 11.904 15.468 10.254C15.738 10.526 15.833 10.88 15.833 11.254ZM11.095 12.671C11.134 12.396 11.248 12.279 11.557 12.278L12.31 12.277C13.835 12.277 14.709 11.58 14.984 10.147C15.251 8.769 14.283 8 12.974 8H10.526C10.354 8 10.207 8.127 10.18 8.3C9.412 13.245 9.19 14.502 9.167 14.886C9.16 15.007 9.257 15.11 9.379 15.11H10.709L11.095 12.671Z" fill="#000"/>
</g>
</svg>
