<svg width="20" height="20" viewBox="0 0 20 20" fill="none" xmlns="http://www.w3.org/2000/svg">
<g id="iconmonstr-file-26">
<path id="Vector" d="M9.46842 1.66667C12.9317 1.66667 11.6667 6.66667 11.6667 6.66667C11.6667 6.66667 16.6667 5.29167 16.6667 8.71417V18.3333H3.33341V1.66667H9.46842ZM10.1576 0H1.66675V20H18.3334V8.01167C18.3334 6.01917 12.7934 0 10.1576 0ZM5.83342 10.4167C5.83342 9.72667 6.39342 9.16667 7.08425 9.16667C7.77342 9.16667 8.33342 9.72667 8.33342 10.4167C8.33342 11.1067 7.77342 11.6667 7.08425 11.6667C6.39342 11.6667 5.83342 11.1067 5.83342 10.4167ZM11.2501 10.8333L9.50591 13.3067L8.41425 12.5L5.83342 15.8333H14.1667L11.2501 10.8333Z" fill="#000"/>
</g>
</svg>
