<svg width="20" height="20" viewBox="0 0 20 20" fill="none" xmlns="http://www.w3.org/2000/svg">
<g id="iconmonstr-building-6" clip-path="url(#clip0)">
<path id="Vector" fill-rule="evenodd" clip-rule="evenodd" d="M4.16667 19.1668H2.5V10.8335L9.9925 4.16266C10.9292 4.99433 11.8675 5.82683 12.8075 6.65933L14.6867 8.3235C15.6258 9.156 16.5633 10.001 17.5 10.8335V19.1668H15.8333V11.5685L9.9925 6.38933L4.16667 11.5727V19.1668ZM5.83333 17.5002H14.1667V19.1668H5.83333V17.5002ZM5.83333 15.0002H14.1667V16.6668H5.83333V15.0002ZM14.1667 12.5002V14.1668H5.83333V12.5002H14.1667ZM10 0.833496L20 9.69349L18.8933 10.9377L10 3.03683L1.10667 10.9377L0 9.69349L10 0.833496Z" fill="#000"/>
</g>
<defs>
<clipPath id="clip0">
<rect width="20" height="20" fill="#000"/>
</clipPath>
</defs>
</svg>
