<svg width="20" height="20" viewBox="0 0 20 20" fill="none" xmlns="http://www.w3.org/2000/svg">
<g id="iconmonstr-pen-7 1" clip-path="url(#clip0)">
<path id="Vector" d="M13.1767 4.01583C12.9017 3.73167 12.9167 3.285 13.2 3.01L16.0908 0.205833C16.2325 0.0691667 16.4133 0 16.5933 0C16.7758 0 16.9583 0.0708333 17.0967 0.214167L13.1767 4.01583ZM8.4225 11.1592C8.36417 11.2167 8.33333 11.2942 8.33333 11.3717C8.33333 11.5333 8.465 11.6667 8.62833 11.6667C8.7025 11.6667 8.77667 11.6392 8.83417 11.5833L9.32 11.1108L8.90917 10.6867L8.4225 11.1592ZM12.5258 5.69917L10.8642 7.31C9.97083 8.17583 9.515 9.015 9.09417 10.1858L9.82833 10.9433C11.0108 10.5592 11.8633 10.13 12.7567 9.26333L14.4183 7.65167L12.5258 5.69917ZM17.3725 0.734167L13.0917 4.88583L15.2467 7.11167L19.5283 2.96167C19.8425 2.65667 20 2.2525 20 1.8475C20 0.494167 18.36 -0.224167 17.3725 0.734167ZM7.5 10.8333H4.16667V11.6667H7.5V10.8333ZM15 9.70833V11.2858C15 14.7083 10 13.3333 10 13.3333C10 13.3333 11.265 18.3333 7.80167 18.3333H1.66667V1.66667H12.1908L13.9092 0H0V20H8.49083C11.1267 20 16.6667 13.9808 16.6667 11.9883V8.0825L15 9.70833Z" fill="#000"/>
</g>
<defs>
<clipPath id="clip0">
<rect width="20" height="20" fill="#000"/>
</clipPath>
</defs>
</svg>
