<svg width="30" height="24" viewBox="0 0 30 24" fill="none" xmlns="http://www.w3.org/2000/svg">
<path d="M30 14.9725L22.9487 22.0225C22.1312 22.8412 21.0575 23.25 19.9812 23.25C16.2663 23.25 14.365 18.7337 17.0138 16.0863L23.9375 9.16125C24.5475 8.55375 25.345 8.25 26.145 8.25C28.0125 8.25 29.2675 9.79125 29.2675 11.3988C29.2675 12.1613 28.9838 12.9387 28.35 13.5737L22.2025 19.7213C21.41 20.5138 20.1213 20.5138 19.3288 19.7213C18.5375 18.93 18.5375 17.6412 19.3288 16.8487L24.2925 11.8863L25.3275 12.9213L20.3638 17.8838C20.1413 18.105 20.1413 18.4663 20.3638 18.6875C20.5863 18.9088 20.945 18.9088 21.1675 18.6875L27.3162 12.54C27.9625 11.8938 27.9625 10.8438 27.3162 10.1975C26.67 9.55125 25.6213 9.55125 24.9738 10.1975L18.05 17.1225C16.9825 18.1887 16.9825 19.9237 18.05 20.9888C19.115 22.055 20.85 22.055 21.9163 20.9888L28.9663 13.9387L30 14.9725ZM8.75 7.625C8.75 6.59 7.91 5.75 6.875 5.75C5.84 5.75 5 6.59 5 7.625C5 8.66125 5.84 9.5 6.875 9.5C7.91 9.5 8.75 8.66125 8.75 7.625ZM18.2125 11.3912L16.25 8.25L13.1 13.25L10 10.8L5 18.25H13.3675C13.5475 16.8263 14.155 15.4475 15.2462 14.3575L18.2125 11.3912ZM13.52 20.75H2.5V3.25H25V5.9075C25.3738 5.83 25.755 5.7875 26.145 5.7875C26.6088 5.7875 27.06 5.8625 27.5 5.97125V0.75H0V23.25H14.7725C14.17 22.4937 13.75 21.6462 13.52 20.75Z" fill="white"/>
</svg>