<svg width="20" height="20" viewBox="0 0 20 20" fill="none" xmlns="http://www.w3.org/2000/svg">
<g id="iconmonstr-banknote-19">
<path id="Vector" d="M17.2225 11.6532C18.7075 11.6532 20 11.094 20 10.4032C20 9.71234 18.7067 9.15317 17.2225 9.15317C15.7383 9.15317 14.445 9.71234 14.445 10.4032C14.445 11.094 15.7375 11.6532 17.2225 11.6532ZM17.2742 10.5373C17.1083 10.4873 16.5992 10.4448 16.5992 10.1623C16.5992 10.0048 16.785 9.864 17.1317 9.83234V9.709H17.31V9.8265C17.44 9.82984 17.585 9.844 17.7458 9.8765L17.6808 10.0673C17.5583 10.039 17.4217 10.0123 17.2875 10.0123L17.2475 10.0132C16.98 10.024 16.9583 10.1723 17.1433 10.2357C17.4467 10.329 17.8467 10.3982 17.8467 10.6465C17.8467 10.8448 17.6058 10.9515 17.3092 10.9773V11.099H17.1308V10.9832C16.9475 10.9815 16.755 10.9515 16.5958 10.8982L16.6775 10.7073C16.8133 10.7423 16.9833 10.7773 17.1375 10.7773L17.2533 10.769C17.4592 10.7407 17.5 10.6023 17.2742 10.5373ZM17.2225 14.9865C18.2733 14.9865 19.3642 14.7173 20 14.2082V14.5698C20 15.2607 18.7067 15.8332 17.2225 15.8332C15.7383 15.8332 14.445 15.2607 14.445 14.5698V14.2082C15.0808 14.7182 16.1708 14.9865 17.2225 14.9865ZM17.2225 12.209C18.2733 12.209 19.3642 11.9398 20 11.4307V11.7923C20 12.4832 18.7067 13.0423 17.2225 13.0423C15.7383 13.0423 14.445 12.4832 14.445 11.7923V11.4307C15.0808 11.9398 16.1708 12.209 17.2225 12.209ZM17.2225 13.5982C18.2733 13.5982 19.3642 13.329 20 12.819V13.1815C20 13.8715 18.7067 14.4315 17.2225 14.4315C15.7383 14.4315 14.445 13.8715 14.445 13.1815V12.819C15.0808 13.329 16.1708 13.5982 17.2225 13.5982ZM10.1883 11.024C10.1883 11.5248 9.79667 11.7923 9.31333 11.859V12.1665H9.02083V11.8748C8.71917 11.8698 8.40667 11.7982 8.14583 11.6632L8.27917 11.184C8.5575 11.2915 8.92917 11.4065 9.21917 11.3415C9.55417 11.2657 9.62333 10.9207 9.25333 10.754C8.98167 10.629 8.15083 10.5198 8.15083 9.809C8.15083 9.4115 8.45333 9.05567 9.02083 8.97734V8.6665H9.31333V8.96317C9.52417 8.96817 9.76167 9.00567 10.0258 9.08567L9.92 9.56567C9.69583 9.48734 9.44833 9.41567 9.2075 9.43067C8.77333 9.4565 8.735 9.83234 9.0375 9.98984C9.53667 10.2248 10.1883 10.399 10.1883 11.024ZM15 4.99984H0.833333V13.3332H0V4.1665H15V4.99984ZM1.66667 5.83317V14.9998H13.3333V10.4032C13.3333 8.90984 14.9875 8.14484 16.6667 8.00734V5.83317H1.66667ZM9.16667 13.3332C7.55583 13.3332 6.25 12.0273 6.25 10.4165C6.25 8.80567 7.55583 7.49984 9.16667 7.49984C10.7775 7.49984 12.0833 8.80567 12.0833 10.4165C12.0833 12.0273 10.7775 13.3332 9.16667 13.3332Z" fill="#000"/>
</g>
</svg>
