<svg width="20" height="20" viewBox="0 0 20 20" fill="none" xmlns="http://www.w3.org/2000/svg">
<g id="iconmonstr-speech-bubble-26" clip-path="url(#clip0)">
<path id="Vector" d="M8.33333 2.50183C12.0092 2.50183 15 4.876 15 7.7935C15 10.3227 12.4758 13.0527 8.39583 13.0527C7.07917 13.0527 6.13083 12.7885 5.2975 12.5852C4.4925 13.0793 4.25083 13.2627 2.7925 13.7293C3.13833 12.4643 3.09417 11.911 3.06833 11.076C2.37083 10.2418 1.66667 9.35183 1.66667 7.7935C1.66667 4.876 4.6575 2.50183 8.33333 2.50183ZM8.33333 0.833496C3.9325 0.833496 0 3.77183 0 7.7935C0 9.21933 0.5125 10.6193 1.42083 11.706C1.46 12.9785 0.711667 14.8043 0.0366667 16.1327C1.84333 15.8068 4.41333 15.0843 5.5775 14.3702C6.56167 14.611 7.50417 14.721 8.39583 14.721C13.315 14.721 16.6667 11.356 16.6667 7.7935C16.6667 3.75016 12.7075 0.833496 8.33333 0.833496ZM17.9458 10.1452C17.8117 10.5518 17.645 10.946 17.445 11.3252C18.8425 12.3768 19.3258 14.0135 17.8317 15.796C17.8142 16.4168 17.7908 16.6702 17.9467 17.3502C17.2033 17.0943 17.1308 17.0235 16.5592 16.6727C14.7867 17.1052 13.005 17.2527 11.485 15.9602C11.0167 16.0927 10.5308 16.1918 10.035 16.2635C11.2958 17.8277 13.6167 18.6777 16.3492 18.0135C17.1108 18.481 18.7933 18.9527 19.9758 19.1677C19.5342 18.2968 19.045 17.1018 19.0692 16.2685C20.5317 14.5202 20.355 11.7385 17.9458 10.1452ZM5.41667 7.00933C4.92417 7.00933 4.52417 7.4085 4.52417 7.90183C4.52417 8.39516 4.92417 8.79433 5.41667 8.79433C5.90917 8.79433 6.30917 8.39516 6.30917 7.90183C6.30917 7.4085 5.90917 7.00933 5.41667 7.00933ZM8.33333 7.00933C7.84083 7.00933 7.44083 7.4085 7.44083 7.90183C7.44083 8.39516 7.84083 8.79433 8.33333 8.79433C8.82583 8.79433 9.22583 8.39516 9.22583 7.90183C9.22583 7.4085 8.82583 7.00933 8.33333 7.00933ZM11.25 7.00933C10.7575 7.00933 10.3575 7.4085 10.3575 7.90183C10.3575 8.39516 10.7575 8.79433 11.25 8.79433C11.7425 8.79433 12.1425 8.39516 12.1425 7.90183C12.1425 7.4085 11.7425 7.00933 11.25 7.00933Z" fill="#000"/>
</g>
<defs>
<clipPath id="clip0">
<rect width="20" height="20" fill="#000"/>
</clipPath>
</defs>
</svg>
