<svg width="20" height="20" viewBox="0 0 20 20" fill="none" xmlns="http://www.w3.org/2000/svg">
<g id="iconmonstr-navigation-10 2">
<path id="Vector" d="M9.55583 7.03667L10.2817 9.89583L12.445 4.17833L6.66667 6.3225L9.55583 7.03667ZM10 0C6.31833 0 3.33333 2.89917 3.33333 6.475C3.33333 10.1067 6.25 12.5892 10 15.8333C13.75 12.5892 16.6667 10.1067 16.6667 6.475C16.6667 2.89917 13.6817 0 10 0ZM10 11.4358C7.29917 11.4358 5.11167 9.26917 5.11167 6.5975C5.11167 3.92583 7.29917 1.75917 10 1.75917C12.7008 1.75917 14.8883 3.92583 14.8883 6.5975C14.8883 9.26917 12.7008 11.4358 10 11.4358ZM16.6667 13.3333H15.1658C14.6417 13.8942 14.0692 14.4458 13.465 15H15.6358L16.0525 15.8333H12.5375L11.5825 16.6667H12.4367L13.1517 18.3333H6.9125L7.6275 16.6667H8.41667C8.0925 16.3867 7.77333 16.1092 7.46083 15.8333H5.79833L4.95583 15H6.535C5.93083 14.4467 5.36 13.8942 4.83583 13.3333H3.33333L0 20H20L16.6667 13.3333ZM6.005 18.3333H2.69667L4.16667 15.3933L5.43 16.6667H6.72083L6.005 18.3333ZM13.345 16.6667H16.47L17.3033 18.3333H14.06L13.345 16.6667Z" fill="#000"/>
</g>
</svg>
