<svg width="20" height="20" viewBox="0 0 20 20" fill="none" xmlns="http://www.w3.org/2000/svg">
<g id="iconmonstr-barcode-3 2">
<path id="Vector" d="M3.33333 13.3335V6.66683H5V13.3335H3.33333ZM13.3333 13.3335V6.66683H15V13.3335H13.3333ZM5.83333 13.3335V6.66683H6.66667V13.3335H5.83333ZM7.5 13.3335V6.66683H9.16667V13.3335H7.5ZM10 13.3335V6.66683H10.8333V13.3335H10ZM11.6667 13.3335V6.66683H12.5V13.3335H11.6667ZM15.8333 13.3335V6.66683H16.6667V13.3335H15.8333ZM15 5.00016H18.3333V8.3335H20V3.3335H15V5.00016ZM1.66667 8.3335V5.00016H5V3.3335H0V8.3335H1.66667ZM5 15.0002H1.66667V11.6668H0V16.6668H5V15.0002ZM18.3333 11.6668V15.0002H15V16.6668H20V11.6668H18.3333Z" fill="#000"/>
</g>
</svg>
