<svg width="20" height="20" viewBox="0 0 20 20" fill="none" xmlns="http://www.w3.org/2000/svg">
<g id="iconmonstr-shipping-box-2" clip-path="url(#clip0)">
<path id="Vector" d="M13.1199 13.9025L13.4108 13.7367V15.1675L13.1199 15.33V13.9025ZM15.9649 13.7133L16.2499 13.55V12.1192L15.9641 12.2817V13.7133H15.9649ZM14.7741 14.3908L15.0599 14.2283V12.7975L14.7741 12.96V14.3908ZM15.2557 14.1167L15.5466 13.9508V12.52L15.2557 12.6858V14.1167ZM14.2958 14.6633L14.5816 14.5V13.0692L14.2958 13.2325V14.6633ZM13.6116 15.0525L13.8974 14.89V13.4592L13.6116 13.6217V15.0525ZM19.1666 5.78417V15.3733L11.0416 20L0.833252 14.185V4.59583L8.97242 0L19.1666 5.78417ZM8.96992 1.915L7.21492 2.90667L14.6241 7.26833L14.6224 7.27083L16.5641 6.22417L8.96992 1.915ZM9.99992 10.74L2.49992 6.39167V13.2167L9.99992 17.4883V10.74ZM12.9108 8.19333L5.53825 3.85333L3.46492 5.02417L10.8483 9.30583L12.9108 8.19333ZM17.4999 7.61333L11.6666 10.7575V17.7258L17.4999 14.405V7.61333Z" fill="#000"/>
</g>
<defs>
<clipPath id="clip0">
<rect width="20" height="20" fill="#000"/>
</clipPath>
</defs>
</svg>
