<svg width="24" height="24" viewBox="0 0 24 24" fill="none" xmlns="http://www.w3.org/2000/svg">
<g id="iconmonstr-file-36 1">
<path id="Vector" d="M11.362 2C15.518 2 14 8 14 8C14 8 20 6.35 20 10.457V22H4V2H11.362ZM12.189 0H2V24H22V9.614C22 7.223 15.352 0 12.189 0ZM8.448 17.261C8.794 16.934 9.38 16.614 10.19 16.307C10.556 15.582 10.921 14.784 11.208 14.075C10.966 13.569 10.811 13.036 10.744 12.487C10.494 10.426 12.827 10.58 12.473 12.499C12.405 12.867 12.243 13.383 11.99 14.035C12.357 14.689 12.839 15.181 13.223 15.507C13.747 15.423 14.494 15.337 15.02 15.414C16.416 15.619 16.239 17.158 14.999 17.158C14.35 17.158 13.536 16.651 13.027 16.262C12.248 16.406 11.414 16.627 10.697 16.88C10.468 17.32 10.161 17.881 9.886 18.276C8.743 19.922 7.236 18.403 8.448 17.261ZM9.647 17.316C9.394 17.444 9.038 17.664 8.846 17.875C8.547 18.203 8.743 18.461 9.103 18.108C9.281 17.936 9.495 17.616 9.647 17.316ZM14.087 16.115C14.322 16.273 14.645 16.438 14.998 16.445C15.41 16.453 15.375 16.184 14.916 16.117C14.716 16.087 14.428 16.087 14.087 16.115ZM11.14 15.987C11.468 15.878 12.176 15.713 12.353 15.672C12.333 15.651 11.825 15.128 11.658 14.84C11.524 15.175 11.149 15.967 11.14 15.987ZM11.454 12.004C11.397 12.3 11.483 12.775 11.583 13.065C11.696 12.828 11.838 12.259 11.78 11.98C11.724 11.701 11.518 11.681 11.454 12.004Z" fill="#000"/>
</g>
</svg>
