<svg width="20" height="20" viewBox="0 0 20 20" fill="none" xmlns="http://www.w3.org/2000/svg">
<g id="iconmonstr-bell-14">
<path id="Vector" d="M6.66658 17.5H11.6666C11.6666 18.8317 10.5066 20 9.19075 20C7.87492 20 6.66658 18.8317 6.66658 17.5ZM11.5133 15.8333H0.833252V14.3758C4.89742 13.05 2.66158 5.545 6.55242 3.2875C7.08992 2.97583 7.42075 2.39667 7.41992 1.77083V1.76833C7.41909 0.791667 8.20158 0 9.16658 0C10.1316 0 10.9141 0.791667 10.9141 1.76833V1.77083C10.9133 2.39583 11.2441 2.97667 11.7816 3.2875C13.0691 4.03417 13.6808 5.35833 14.0766 6.84083C13.5208 6.9825 13.0008 7.20833 12.5291 7.50667C12.2216 6.2625 11.7924 5.22083 10.9458 4.72917C9.85242 4.09583 8.53992 4.06167 7.38992 4.72917C6.15158 5.4475 5.79992 7.32833 5.42742 9.32083C5.12825 10.9242 4.78158 12.7775 3.79075 14.1667H10.4166C10.6766 14.7908 11.0524 15.3533 11.5133 15.8333ZM8.33325 1.66667C8.33325 2.12667 8.70658 2.5 9.16658 2.5C9.62658 2.5 9.99992 2.12667 9.99992 1.66667C9.99992 1.2075 9.62658 0.833333 9.16658 0.833333C8.70658 0.833333 8.33325 1.2075 8.33325 1.66667ZM19.1666 12.0833C19.1666 14.1542 17.4866 15.8333 15.4166 15.8333C13.3449 15.8333 11.6666 14.1542 11.6666 12.0833C11.6666 10.0125 13.3449 8.33333 15.4166 8.33333C17.4866 8.33333 19.1666 10.0125 19.1666 12.0833ZM17.3699 11.3483L16.7891 10.7683L15.0266 12.5758L14.1999 11.7925L13.6208 12.3733L15.0274 13.7375L17.3699 11.3483Z" fill="#000"/>
</g>
</svg>
