<svg width="20" height="20" viewBox="0 0 20 20" fill="none" xmlns="http://www.w3.org/2000/svg">
<g id="iconmonstr-email-12">
<path id="Vector" d="M10.035 19.7068C3.52417 19.7068 0 15.6435 0 10.3976C0 4.79179 3.96833 0.293457 11.0633 0.293457C16.2417 0.293457 20 3.65846 20 8.29429C20 15.5543 11.3917 17.471 11.8233 13.3293C11.2317 14.2526 10.2783 15.291 8.44583 15.291C6.34917 15.291 5.04583 13.756 5.04583 11.2851C5.04583 7.58179 7.48 4.45262 10.3617 4.45262C11.7442 4.45262 12.695 5.18262 13.0925 6.30346L13.4792 4.94346H15.4275C15.2242 5.63679 13.4933 12.0493 13.4933 12.0493C12.9533 14.271 14.6183 14.3101 16.095 13.1301C18.8692 10.9801 19.0125 5.35762 15.2633 3.01262C11.2458 0.603457 2.10083 2.09429 2.10083 10.2568C2.10083 14.9326 5.3925 18.0743 10.2917 18.0743C13.155 18.0743 14.91 17.2993 16.3708 16.451L17.3517 17.866C15.9258 18.671 13.6342 19.7068 10.035 19.7068ZM8.08167 7.78596C7.48583 8.90262 7.10083 10.3493 7.10083 11.4726C7.10083 14.481 10.0358 14.5001 11.4775 11.6718C12.0708 10.5101 12.4533 9.02929 12.4533 7.89762C12.4533 5.46679 9.54083 5.03596 8.08167 7.78596Z" fill="#000"/>
</g>
</svg>
