<svg width="20" height="20" viewBox="0 0 20 20" fill="none" xmlns="http://www.w3.org/2000/svg">
<g id="iconmonstr-phone-9 1">
<path id="Vector" d="M10 1.66667C14.595 1.66667 18.3333 5.405 18.3333 10C18.3333 14.595 14.595 18.3333 10 18.3333C5.405 18.3333 1.66667 14.595 1.66667 10C1.66667 5.405 5.405 1.66667 10 1.66667ZM10 0C4.4775 0 0 4.4775 0 10C0 15.5225 4.4775 20 10 20C15.5225 20 20 15.5225 20 10C20 4.4775 15.5225 0 10 0ZM13.75 14.4258L12.2833 11.595L11.4233 12.0158C10.49 12.4683 8.59 8.7575 9.5025 8.26833L10.3708 7.84083L8.915 5L8.0375 5.43333C5.03667 6.9975 9.80167 16.2592 12.8708 14.8567L13.75 14.4258Z" fill="#000"/>
</g>
</svg>
