<svg width="24" height="24" viewBox="0 0 24 24" fill="none" xmlns="http://www.w3.org/2000/svg">
<path d="M12 2C15.032 2 17.5 4.467 17.5 7.5C17.5 8.958 17.017 10.696 14.252 13.09C18.363 15.051 20.854 18.343 21.734 21.999H2.248C3.203 17.811 6.253 14.6 9.767 13.11C8.166 11.823 6.5 9.787 6.5 7.5C6.5 4.467 8.968 2 12 2ZM12 0C7.858 0 4.5 3.357 4.5 7.5C4.5 9.512 5.297 11.334 6.586 12.682C1.556 15.691 0 21.183 0 24H24C24 21.209 22.343 15.72 17.41 12.686C18.702 11.338 19.5 9.514 19.5 7.5C19.5 3.357 16.142 0 12 0Z" fill="#000"/>
</svg>