<svg width="20" height="20" viewBox="0 0 20 20" fill="none" xmlns="http://www.w3.org/2000/svg">
<g id="iconmonstr-file-14">
<path id="Vector" d="M15.4166 12.5C13.3474 12.5 11.6666 14.1792 11.6666 16.25C11.6666 18.3208 13.3474 20 15.4166 20C17.4858 20 19.1666 18.3208 19.1666 16.25C19.1666 14.1792 17.4858 12.5 15.4166 12.5ZM17.4999 16.6667H15.8333V18.3333H14.9999V16.6667H13.3333V15.8333H14.9999V14.1667H15.8333V15.8333H17.4999V16.6667ZM11.5166 20H0.833252V0H9.32408C11.9599 0 17.4999 6.01917 17.4999 8.01167V11.2508C16.9799 11.0333 16.4191 10.8992 15.8333 10.8542V8.71333C15.8333 5.29167 10.8333 6.66667 10.8333 6.66667C10.8333 6.66667 12.0983 1.66667 8.63492 1.66667H2.49992V18.3333H10.4174C10.6783 18.9575 11.0549 19.52 11.5166 20Z" fill="#000"/>
</g>
</svg>
