<svg width="20" height="20" viewBox="0 0 20 20" fill="none" xmlns="http://www.w3.org/2000/svg">
<g id="iconmonstr-shipping-box-11" clip-path="url(#clip0)">
<path id="Vector" d="M14.7308 14.066L14.445 14.2285V12.7977L14.7308 12.6352V14.066ZM17.0833 11.296L16.7983 11.4585V12.8893L17.0833 12.726V11.296ZM20 4.961V14.5502L11.875 19.1668L3.33333 15.0093V5.42016L11.4725 0.833496L20 4.961ZM10.1283 3.49683L15.98 6.1635L17.3967 5.39933L11.4692 2.7385L10.1283 3.49683ZM10.8333 9.916L5 7.216V14.041L10.8333 16.6643V9.916ZM13.3508 7.57516L7.66917 4.87516L5.965 5.8485L11.6808 8.48266L13.3508 7.57516ZM18.3333 6.78933L16.6667 7.68766V10.0093L14.1667 11.416V9.036L12.5 9.93433V16.9027L18.3333 13.5818V6.78933ZM14.2442 12.9127L13.9533 13.0785V14.506L14.2442 14.3435V12.9127ZM15.415 12.246L15.1283 12.4093V13.8402L15.415 13.6768V12.246ZM15.8933 11.9735L15.6075 12.136V13.5668L15.8933 13.4043V11.9735ZM16.38 11.6968L16.0883 11.8627V13.2935L16.38 13.1277V11.6968ZM2.5 8.3335H0.833333V9.16683H2.5V8.3335ZM2.5 10.0002H0V10.8335H2.5V10.0002ZM2.5 11.6668H0.833333V12.5002H2.5V11.6668Z" fill="#000"/>
</g>
<defs>
<clipPath id="clip0">
<rect width="20" height="20" fill="#000"/>
</clipPath>
</defs>
</svg>
