<svg width="20" height="20" viewBox="0 0 20 20" fill="none" xmlns="http://www.w3.org/2000/svg">
<g id="iconmonstr-gear-2" clip-path="url(#clip0)">
<path id="Vector" d="M20 11.8225V8.1775C18.21 7.53917 17.7283 7.50917 17.4775 6.90333C17.225 6.29583 17.5467 5.92917 18.36 4.2175L15.7825 1.64C14.0942 2.4425 13.7092 2.77667 13.0958 2.5225C12.49 2.27083 12.4558 1.78167 11.8233 0H8.1775C7.54083 1.78667 7.51083 2.27083 6.90333 2.5225C6.27667 2.78333 5.90083 2.43917 4.2175 1.64L1.64 4.2175C2.45417 5.93 2.775 6.295 2.5225 6.90417C2.27083 7.51 1.78833 7.54083 0 8.1775V11.8233C1.7825 12.4567 2.27083 12.49 2.5225 13.0967C2.77583 13.7083 2.455 14.0692 1.64 15.7825L4.2175 18.36C5.88333 17.5683 6.27583 17.2158 6.90333 17.4775C7.51 17.7292 7.54 18.2108 8.1775 20H11.8225C12.4542 18.2242 12.4883 17.7308 13.1033 17.4742C13.7242 17.2175 14.0917 17.5567 15.7825 18.3592L18.36 15.7817C17.5475 14.0733 17.225 13.705 17.4775 13.0958C17.7275 12.4908 18.2108 12.46 20 11.8225ZM15.9375 12.4592C15.4567 13.6208 15.8808 14.5075 16.3442 15.4408L15.4408 16.3442C14.53 15.8917 13.64 15.4475 12.4633 15.9358C11.3 16.42 10.9717 17.3467 10.64 18.3333H9.36167C9.03 17.3458 8.7025 16.4192 7.5425 15.9375C6.36 15.4475 5.45333 15.9 4.56 16.3442L3.6575 15.4408C4.12167 14.5092 4.54583 13.6242 4.06333 12.4575C3.58083 11.2983 2.65417 10.9708 1.66667 10.6392V9.36167C2.65417 9.03 3.58083 8.7025 4.0625 7.54167C4.54417 6.38 4.11917 5.4925 3.65583 4.55917L4.55917 3.65583C5.46083 4.10417 6.36083 4.55333 7.5425 4.0625C8.7025 3.58167 9.03 2.65417 9.36167 1.66667H10.64C10.9717 2.65417 11.3 3.58083 12.46 4.0625C13.6425 4.5525 14.5483 4.1 15.4425 3.65583L16.3458 4.55917C15.8825 5.49333 15.4583 6.38167 15.9392 7.5425C16.42 8.70167 17.3467 9.02917 18.335 9.36167V10.64C17.345 10.9717 16.4167 11.2992 15.9375 12.4592ZM10 7.5C11.3783 7.5 12.5 8.62167 12.5 10C12.5 11.3783 11.3783 12.5 10 12.5C8.62167 12.5 7.5 11.3783 7.5 10C7.5 8.62167 8.62167 7.5 10 7.5ZM10 5.83333C7.69833 5.83333 5.83333 7.69833 5.83333 10C5.83333 12.3017 7.69833 14.1667 10 14.1667C12.3017 14.1667 14.1667 12.3017 14.1667 10C14.1667 7.69833 12.3017 5.83333 10 5.83333Z" fill="#000"/>
</g>
<defs>
<clipPath id="clip0">
<rect width="20" height="20" fill="#000"/>
</clipPath>
</defs>
</svg>
