<svg width="24" height="24" viewBox="0 0 24 24" fill="none" xmlns="http://www.w3.org/2000/svg">
<g id="iconmonstr-banknote-19">
<path id="Vector" d="M20.667 13.984C22.449 13.984 24 13.313 24 12.484C24 11.655 22.448 10.984 20.667 10.984C18.886 10.984 17.334 11.655 17.334 12.484C17.334 13.313 18.885 13.984 20.667 13.984ZM20.729 12.645C20.53 12.585 19.919 12.534 19.919 12.195C19.919 12.006 20.142 11.837 20.558 11.799V11.651H20.772V11.792C20.928 11.796 21.102 11.813 21.295 11.852L21.217 12.081C21.07 12.047 20.906 12.015 20.745 12.015L20.697 12.016C20.376 12.029 20.35 12.207 20.572 12.283C20.936 12.395 21.416 12.478 21.416 12.776C21.416 13.014 21.127 13.142 20.771 13.173V13.319H20.557V13.18C20.337 13.178 20.106 13.142 19.915 13.078L20.013 12.849C20.176 12.891 20.38 12.933 20.565 12.933L20.704 12.923C20.951 12.889 21 12.723 20.729 12.645ZM20.667 17.984C21.928 17.984 23.237 17.661 24 17.05V17.484C24 18.313 22.448 19 20.667 19C18.886 19 17.334 18.313 17.334 17.484V17.05C18.097 17.662 19.405 17.984 20.667 17.984ZM20.667 14.651C21.928 14.651 23.237 14.328 24 13.717V14.151C24 14.98 22.448 15.651 20.667 15.651C18.886 15.651 17.334 14.98 17.334 14.151V13.717C18.097 14.328 19.405 14.651 20.667 14.651ZM20.667 16.318C21.928 16.318 23.237 15.995 24 15.383V15.818C24 16.646 22.448 17.318 20.667 17.318C18.886 17.318 17.334 16.646 17.334 15.818V15.383C18.097 15.995 19.405 16.318 20.667 16.318ZM12.226 13.229C12.226 13.83 11.756 14.151 11.176 14.231V14.6H10.825V14.25C10.463 14.244 10.088 14.158 9.775 13.996L9.935 13.421C10.269 13.55 10.715 13.688 11.063 13.61C11.465 13.519 11.548 13.105 11.104 12.905C10.778 12.755 9.781 12.624 9.781 11.771C9.781 11.294 10.144 10.867 10.825 10.773V10.4H11.176V10.756C11.429 10.762 11.714 10.807 12.031 10.903L11.904 11.479C11.635 11.385 11.338 11.299 11.049 11.317C10.528 11.348 10.482 11.799 10.845 11.988C11.444 12.27 12.226 12.479 12.226 13.229ZM18 6H1V16H0V5H18V6ZM2 7V18H16V12.484C16 10.692 17.985 9.774 20 9.609V7H2ZM11 16C9.067 16 7.5 14.433 7.5 12.5C7.5 10.567 9.067 9 11 9C12.933 9 14.5 10.567 14.5 12.5C14.5 14.433 12.933 16 11 16Z" fill="#000"/>
</g>
</svg>
