<svg width="24" height="24" viewBox="0 0 24 24" fill="none" xmlns="http://www.w3.org/2000/svg">
<g id="iconmonstr-delivery-6">
<path id="Vector" fill-rule="evenodd" clip-rule="evenodd" d="M5 11V12H13V5H3V4C3 3.448 3.448 3 4 3H14C14.552 3 15 3.448 15 4V6H19.667C20.784 6 21.267 6.576 21.603 7.107C22.197 8.047 23.139 9.539 23.712 10.485C23.9 10.797 24 11.155 24 11.52V16C24 17.089 23.257 18 22 18H21C21 19.656 19.656 21 18 21C16.344 21 15 19.656 15 18H11C11 19.656 9.656 21 8 21C6.344 21 5 19.656 5 18H4C3.448 18 3 17.552 3 17V11H1V9H8V11H5ZM8 16.8C8.662 16.8 9.2 17.338 9.2 18C9.2 18.662 8.662 19.2 8 19.2C7.338 19.2 6.8 18.662 6.8 18C6.8 17.338 7.338 16.8 8 16.8ZM18 16.8C18.662 16.8 19.2 17.338 19.2 18C19.2 18.662 18.662 19.2 18 19.2C17.338 19.2 16.8 18.662 16.8 18C16.8 17.338 17.338 16.8 18 16.8ZM15 14H5V16H5.765C6.314 15.386 7.112 15 8 15C8.888 15 9.686 15.386 10.235 16H15.765C16.314 15.386 17.112 15 18 15C18.888 15 19.686 15.386 20.235 16H22V11.425L20.289 8.496C20.11 8.189 19.781 8 19.426 8H15V14ZM16 9V12H21L19.573 9.504C19.395 9.192 19.064 9 18.705 9H16ZM0 6H8V8H0V6Z" fill="#000"/>
</g>
</svg>
