<svg width="20" height="20" viewBox="0 0 20 20" fill="none" xmlns="http://www.w3.org/2000/svg">
<g id="iconmonstr-search-thin">
<path id="Vector" fill-rule="evenodd" clip-rule="evenodd" d="M13.2108 13.8C11.8083 15.0642 9.95167 15.8333 7.91667 15.8333C3.5475 15.8333 0 12.2858 0 7.91667C0 3.5475 3.5475 0 7.91667 0C12.2858 0 15.8333 3.5475 15.8333 7.91667C15.8333 9.95167 15.0642 11.8083 13.8 13.2108L20 19.4108L19.4108 20L13.2108 13.8ZM7.91667 0.833333C11.8258 0.833333 15 4.0075 15 7.91667C15 11.8258 11.8258 15 7.91667 15C4.0075 15 0.833333 11.8258 0.833333 7.91667C0.833333 4.0075 4.0075 0.833333 7.91667 0.833333Z" fill="#000"/>
</g>
</svg>
