<svg width="20" height="20" viewBox="0 0 20 20" fill="none" xmlns="http://www.w3.org/2000/svg">
<g id="iconmonstr-map-4" clip-path="url(#clip0)">
<path id="Vector" d="M19.9675 7.02417C19.275 7.8425 18.6225 8.6225 18.3333 10.17V15.7392L15 17.805V10.1708C14.8283 9.25083 14.5283 8.6 14.1667 8.055V17.6175L10.8333 15.2133V4.3225L12.1475 5.27083C11.865 4.68667 11.6667 4.00583 11.6667 3.1675L11.6825 2.88L10 1.66667L5.37917 5L0 1.66667V16.6667L5.37917 20L10 16.6667L14.6208 20L20 16.6667V6.985L19.9675 7.02417ZM5 17.8042L1.66667 15.7383V4.66L5 6.72583V17.8042ZM9.16667 15.2125L5.83333 17.6167V6.7275L9.16667 4.3225V15.2125ZM16.6667 0C14.9167 0 13.3333 1.41833 13.3333 3.1675C13.3333 5.76833 15.99 6.04333 16.6667 10C17.3433 6.04333 20 5.76833 20 3.1675C20 1.41833 18.4167 0 16.6667 0ZM16.6667 4.58333C15.9767 4.58333 15.4167 4.02417 15.4167 3.33333C15.4167 2.6425 15.9767 2.08333 16.6667 2.08333C17.3567 2.08333 17.9167 2.6425 17.9167 3.33333C17.9167 4.02417 17.3567 4.58333 16.6667 4.58333Z" fill="#000"/>
</g>
<defs>
<clipPath id="clip0">
<rect width="20" height="20" fill="#000"/>
</clipPath>
</defs>
</svg>
