<svg width="20" height="20" viewBox="0 0 20 20" fill="none" xmlns="http://www.w3.org/2000/svg">
<g id="iconmonstr-cube-18">
<path id="Vector" d="M15 8.35917V3.00667L9.97 0L5 2.97417V8.39L0 11.0767V17.09L5.11333 20L10 17.1725L14.8867 20L20 17.09V11.1092L15 8.35917ZM14.0475 8.38917L10.4467 10.3758V6.24583L14.0475 4.13V8.38917ZM9.96833 1.13083L13.5283 3.29417L9.97167 5.385L6.49167 3.25667L9.96833 1.13083ZM1.49167 11.3592L5.47333 9.25083L9.00417 11.265L5.11417 13.4875L1.49167 11.3592ZM5.58917 14.3483L9.52417 12.1008V16.3142L5.58917 18.6117V14.3483ZM11.0158 11.2267L14.555 9.235L18.5292 11.3967L14.89 13.4875L11.0158 11.2267ZM19.0475 16.4958L15.3633 18.6117V14.3483L19.0475 12.2333V16.4958Z" fill="#000"/>
</g>
</svg>
