<svg width="60" height="60" viewBox="0 0 60 60" fill="none" xmlns="http://www.w3.org/2000/svg">
<path fill-rule="evenodd" clip-rule="evenodd" d="M50.0625 40C55.5525 40.035 60 44.5025 60 50C60 55.52 55.5175 60 50 60H10C4.48 60 0 55.52 0 50C0 44.48 4.48 40 10 40H50.0625ZM50 55C52.7575 55 55 52.76 55 50C55 47.25 52.775 45.0175 50.0325 45H10C7.24 45 5 47.24 5 50C5 52.76 7.24 55 10 55H50ZM10 47.5C11.38 47.5 12.5 48.62 12.5 50C12.5 51.38 11.38 52.5 10 52.5C8.62 52.5 7.5 51.38 7.5 50C7.5 48.62 8.62 47.5 10 47.5ZM30 47.5C31.38 47.5 32.5 48.62 32.5 50C32.5 51.38 31.38 52.5 30 52.5C28.62 52.5 27.5 51.38 27.5 50C27.5 48.62 28.62 47.5 30 47.5ZM20 47.5C21.38 47.5 22.5 48.62 22.5 50C22.5 51.38 21.38 52.5 20 52.5C18.62 52.5 17.5 51.38 17.5 50C17.5 48.62 18.62 47.5 20 47.5ZM40 47.5C41.38 47.5 42.5 48.62 42.5 50C42.5 51.38 41.38 52.5 40 52.5C38.62 52.5 37.5 51.38 37.5 50C37.5 48.62 38.62 47.5 40 47.5ZM50 47.5C51.38 47.5 52.5 48.62 52.5 50C52.5 51.38 51.38 52.5 50 52.5C48.62 52.5 47.5 51.38 47.5 50C47.5 48.62 48.62 47.5 50 47.5ZM50 37.5H10V0H50V37.5ZM25 5H15V32.5H45V5H35V17.5H25V5ZM42.5 30H32.5V25H42.5V30Z" fill="#000"/>
</svg>
