<svg width="24" height="24" viewBox="0 0 24 24" fill="none" xmlns="http://www.w3.org/2000/svg">
<g id="iconmonstr-user-30" clip-path="url(#clip0)">
<path id="Vector" d="M17.997 18H16.999C16.999 16.448 17.059 16.225 16.119 16.007C14.681 15.675 13.322 15.362 12.826 14.278C12.646 13.882 12.525 13.23 12.981 12.371C14.002 10.442 14.258 8.788 13.683 7.833C13.011 6.718 10.976 6.713 10.298 7.85C9.722 8.818 9.982 10.463 11.011 12.362C11.476 13.218 11.359 13.872 11.179 14.27C10.689 15.359 9.343 15.67 7.917 15.998C6.935 16.225 6.997 16.433 6.997 18H6.002L6 17.377C6 16.118 6.1 15.392 7.588 15.048C9.27 14.659 10.932 14.312 10.133 12.839C7.767 8.474 9.457 6 11.998 6C14.49 6 16.225 8.383 13.865 12.839C13.09 14.303 14.689 14.651 16.41 15.048C17.9 15.392 17.999 16.12 17.999 17.381L17.997 18ZM22.807 15.786C21.518 15.488 20.318 15.227 20.899 14.129C22.669 10.787 21.369 9 19.499 9C18.234 9 17.251 9.817 17.251 11.325C17.251 12.594 17.825 13.5 18.155 14.25H19.203C19.033 13.5 17.737 11.688 18.437 10.514C18.849 9.822 20.141 9.821 20.551 10.502C20.931 11.133 20.732 12.314 20.017 13.663C19.629 14.396 19.737 14.964 19.896 15.311C20.201 15.977 20.873 16.298 21.633 16.519C23.14 16.96 23.001 16.561 23.001 17.999H23.998L24 17.536C24 16.591 23.926 16.044 22.807 15.786ZM0.002 18H0.999C0.999 16.562 0.86 16.961 2.367 16.52C3.128 16.299 3.8 15.978 4.104 15.312C4.263 14.964 4.371 14.397 3.983 13.664C3.268 12.315 3.069 11.134 3.449 10.503C3.859 9.821 5.151 9.822 5.563 10.515C6.263 11.69 4.967 13.501 4.797 14.251H5.845C6.175 13.501 6.749 12.595 6.749 11.326C6.75 9.817 5.767 9 4.502 9C2.632 9 1.332 10.787 3.102 14.129C3.683 15.228 2.483 15.488 1.194 15.786C0.074 16.044 0 16.591 0 17.537L0.002 18Z" fill="#000"/>
</g>
<defs>
<clipPath id="clip0">
<rect width="24" height="24" fill="#000"/>
</clipPath>
</defs>
</svg>
