<svg width="25" height="25" viewBox="0 0 25 25" fill="none" xmlns="http://www.w3.org/2000/svg">
<path d="M0.0593872 25L1.81668 18.5802C0.732304 16.701 0.162512 14.5708 0.163554 12.3865C0.166679 5.55729 5.72397 0 12.5521 0C15.8656 0.00104167 18.9761 1.29167 21.3156 3.63333C23.6542 5.975 24.9417 9.0875 24.9406 12.3979C24.9375 19.2281 19.3802 24.7854 12.5521 24.7854C10.4792 24.7844 8.43647 24.2646 6.6271 23.2771L0.0593872 25ZM6.93126 21.0344C8.67709 22.0708 10.3438 22.6917 12.5479 22.6927C18.2229 22.6927 22.8458 18.074 22.849 12.3958C22.8511 6.70625 18.25 2.09375 12.5563 2.09167C6.87709 2.09167 2.2573 6.71042 2.25522 12.3875C2.25418 14.7052 2.93335 16.4406 4.07397 18.2562L3.03335 22.0562L6.93126 21.0344ZM18.7927 15.3427C18.7156 15.2135 18.5094 15.1365 18.199 14.9812C17.8896 14.826 16.3677 14.0771 16.0833 13.974C15.8 13.8708 15.5938 13.8187 15.3865 14.1292C15.1802 14.4385 14.5865 15.1365 14.4063 15.3427C14.2261 15.549 14.0448 15.575 13.7354 15.4198C13.4261 15.2646 12.4281 14.9385 11.2458 13.8833C10.3261 13.0625 9.70418 12.049 9.52397 11.7385C9.34376 11.4292 9.50522 11.2615 9.65939 11.1073C9.79897 10.9688 9.96876 10.7458 10.124 10.5646C10.2813 10.3854 10.3323 10.2563 10.4365 10.049C10.5396 9.84271 10.4886 9.66146 10.4104 9.50625C10.3323 9.35208 9.71355 7.82812 9.45626 7.20833C9.20418 6.60521 8.94897 6.68646 8.75939 6.67708L8.16564 6.66667C7.95939 6.66667 7.62397 6.74375 7.34064 7.05417C7.0573 7.36458 6.2573 8.1125 6.2573 9.63646C6.2573 11.1604 7.36668 12.6323 7.52084 12.8385C7.67605 13.0448 9.70314 16.1719 12.8083 17.5125C13.5469 17.8312 14.124 18.0219 14.5729 18.1646C15.3146 18.4 15.9896 18.3667 16.5229 18.2875C17.1177 18.199 18.3542 17.5385 18.6125 16.8156C18.8708 16.0917 18.8708 15.4719 18.7927 15.3427Z" fill="#000"/>
</svg>
