<svg width="20" height="20" viewBox="0 0 20 20" fill="none" xmlns="http://www.w3.org/2000/svg">
<g id="iconmonstr-delivery-12" clip-path="url(#clip0)">
<path id="Vector" fill-rule="evenodd" clip-rule="evenodd" d="M6.59917 14.4808L2.54167 3.33333H0.833333C0.611667 3.33333 0.4 3.24583 0.244167 3.08917C0.0875 2.93333 0 2.72083 0 2.5C0 2.04 0.3725 1.66667 0.833333 1.66667H3.70833L8.26583 14.1875C8.96667 14.2717 9.59083 14.6042 10.0483 15.0942L19.43 11.68L20 13.2458L10.7925 16.5967C10.8192 16.755 10.8333 16.9175 10.8333 17.0833C10.8333 18.6933 9.52583 20 7.91667 20C6.30667 20 5 18.6933 5 17.0833C5 15.9475 5.65083 14.9625 6.59917 14.4808ZM7.91667 15.99C8.52 15.99 9.01 16.48 9.01 17.0833C9.01 17.6867 8.52 18.1775 7.91667 18.1775C7.3125 18.1775 6.8225 17.6867 6.8225 17.0833C6.8225 16.48 7.3125 15.99 7.91667 15.99ZM19.0117 10.5633L9.49667 14.0267L7.21667 7.76167L16.7317 4.29833L19.0117 10.5633ZM11.7533 7.88417L9.35333 8.7575L10.4933 11.89L16.8758 9.5675L15.7358 6.435L13.3192 7.31417L13.8892 8.88L12.3233 9.45083L11.7533 7.88417ZM13.98 4.41333L6.93167 6.97833L5.32583 2.565L12.3733 0L13.98 4.41333ZM11.3775 2.13583L7.46167 3.56167L7.92833 4.8425L11.8433 3.4175L11.3775 2.13583Z" fill="#000"/>
</g>
<defs>
<clipPath id="clip0">
<rect width="20" height="20" fill="#000"/>
</clipPath>
</defs>
</svg>
