<svg width="20" height="20" viewBox="0 0 20 20" fill="none" xmlns="http://www.w3.org/2000/svg">
<g id="iconmonstr-payment-22">
<path id="Vector" d="M17.9167 5.00016C18.1467 5.00016 18.3333 5.18683 18.3333 5.41683V14.5835C18.3333 14.8135 18.1467 15.0002 17.9167 15.0002H2.08333C1.85333 15.0002 1.66667 14.8135 1.66667 14.5835V5.41683C1.66667 5.18683 1.85333 5.00016 2.08333 5.00016H17.9167ZM20 5.00016C20 4.08016 19.2533 3.3335 18.3333 3.3335H1.66667C0.745833 3.3335 0 4.08016 0 5.00016V15.0002C0 15.9202 0.745833 16.6668 1.66667 16.6668H18.3333C19.2533 16.6668 20 15.9202 20 15.0002V5.00016ZM12.1067 10.796C11.9467 10.5743 11.7758 10.3943 11.7758 9.98266V8.61516C11.7758 8.036 11.8167 7.5035 11.3892 7.10433C11.0525 6.781 10.495 6.66683 10.0675 6.66683C9.2325 6.66683 8.3 6.9785 8.105 8.011C8.08333 8.12016 8.16417 8.1785 8.23583 8.19433L9.08667 8.28683C9.16667 8.28266 9.22417 8.20433 9.23917 8.12516C9.3125 7.77016 9.61 7.5985 9.945 7.5985C10.1258 7.5985 10.3308 7.66516 10.4383 7.826C10.5617 8.00683 10.545 8.2535 10.545 8.4635V8.57766C10.0358 8.63433 9.37083 8.67266 8.89417 8.88183C8.34417 9.11933 7.95833 9.6035 7.95833 10.316C7.95833 11.2285 8.53333 11.6843 9.2725 11.6843C9.89667 11.6843 10.2375 11.5368 10.7192 11.046C10.8792 11.2768 10.9308 11.3885 11.2233 11.631C11.2883 11.6668 11.3725 11.6627 11.43 11.6102C11.605 11.4543 11.9258 11.1793 12.105 11.0293C12.1758 10.971 12.1633 10.8752 12.1067 10.796ZM10.5442 9.46933C10.5442 9.81183 10.5525 10.096 10.38 10.4002C10.2408 10.6477 10.0183 10.7993 9.7725 10.7993C9.435 10.7993 9.23833 10.5427 9.23833 10.1627C9.23833 9.41516 9.90917 9.2785 10.5442 9.2785V9.46933ZM12.4175 12.1618C11.6542 12.571 10.8242 12.7677 10.0692 12.7677C8.95083 12.7677 7.8675 12.381 6.99083 11.7385C6.91417 11.6827 6.8575 11.781 6.92083 11.8543C7.73417 12.7777 8.80667 13.3335 9.99833 13.3335C10.8483 13.3335 11.8358 12.996 12.5167 12.3627C12.6292 12.2585 12.5325 12.1002 12.4175 12.1618ZM12.6033 12.7777C12.5783 12.841 12.6325 12.8668 12.6892 12.8185C13.0608 12.5077 13.1575 11.856 13.0808 11.7618C13.005 11.6685 12.355 11.5877 11.9583 11.8668C11.8975 11.9093 11.9075 11.9685 11.9758 11.9602C12.1992 11.9335 12.6967 11.8735 12.785 11.9877C12.8742 12.101 12.6875 12.5693 12.6033 12.7777Z" fill="#000"/>
</g>
</svg>
