<svg width="20" height="20" viewBox="0 0 20 20" fill="none" xmlns="http://www.w3.org/2000/svg">
<g id="iconmonstr-user-30" clip-path="url(#clip0)">
<path id="Vector" d="M14.9975 15H14.1658C14.1658 13.7067 14.2158 13.5208 13.4325 13.3392C12.2342 13.0625 11.1017 12.8017 10.6883 11.8983C10.5383 11.5683 10.4375 11.025 10.8175 10.3092C11.6683 8.70167 11.8817 7.32333 11.4025 6.5275C10.8425 5.59833 9.14667 5.59417 8.58167 6.54167C8.10167 7.34833 8.31833 8.71917 9.17583 10.3017C9.56333 11.015 9.46583 11.56 9.31583 11.8917C8.9075 12.7992 7.78583 13.0583 6.5975 13.3317C5.77917 13.5208 5.83083 13.6942 5.83083 15H5.00167L5 14.4808C5 13.4317 5.08333 12.8267 6.32333 12.54C7.725 12.2158 9.11 11.9267 8.44417 10.6992C6.4725 7.06167 7.88083 5 9.99833 5C12.075 5 13.5208 6.98583 11.5542 10.6992C10.9083 11.9192 12.2408 12.2092 13.675 12.54C14.9167 12.8267 14.9992 13.4333 14.9992 14.4842L14.9975 15ZM19.0058 13.155C17.9317 12.9067 16.9317 12.6892 17.4158 11.7742C18.8908 8.98917 17.8075 7.5 16.2492 7.5C15.195 7.5 14.3758 8.18083 14.3758 9.4375C14.3758 10.495 14.8542 11.25 15.1292 11.875H16.0025C15.8608 11.25 14.7808 9.74 15.3642 8.76167C15.7075 8.185 16.7842 8.18417 17.1258 8.75167C17.4425 9.2775 17.2767 10.2617 16.6808 11.3858C16.3575 11.9967 16.4475 12.47 16.58 12.7592C16.8342 13.3142 17.3942 13.5817 18.0275 13.7658C19.2833 14.1333 19.1675 13.8008 19.1675 14.9992H19.9983L20 14.6133C20 13.8258 19.9383 13.37 19.0058 13.155ZM0.00166667 15H0.8325C0.8325 13.8017 0.716667 14.1342 1.9725 13.7667C2.60667 13.5825 3.16667 13.315 3.42 12.76C3.5525 12.47 3.6425 11.9975 3.31917 11.3867C2.72333 10.2625 2.5575 9.27833 2.87417 8.7525C3.21583 8.18417 4.2925 8.185 4.63583 8.7625C5.21917 9.74167 4.13917 11.2508 3.9975 11.8758H4.87083C5.14583 11.2508 5.62417 10.4958 5.62417 9.43833C5.625 8.18083 4.80583 7.5 3.75167 7.5C2.19333 7.5 1.11 8.98917 2.585 11.7742C3.06917 12.69 2.06917 12.9067 0.995 13.155C0.0616667 13.37 0 13.8258 0 14.6142L0.00166667 15Z" fill="#000"/>
</g>
<defs>
<clipPath id="clip0">
<rect width="20" height="20" fill="#000"/>
</clipPath>
</defs>
</svg>
