<svg width="24" height="24" viewBox="0 0 24 24" fill="none" xmlns="http://www.w3.org/2000/svg">
<g id="iconmonstr-shipping-box-8" clip-path="url(#clip0)">
<path id="Vector" d="M14.039 8.968L10.078 5H12.046C12.046 5 13.037 1.822 9.061 0C15.252 0.222 16.033 5 16.033 5H18L14.039 8.968ZM20.5 14.543L20.158 14.738V16.455L20.5 16.26V14.543ZM19.656 15.024L19.306 15.223V16.94L19.656 16.741V15.024ZM20.562 5L19.256 6.55L20.876 7.469L14.017 11.167L5.157 6.029L9.593 3.344C9.359 2.844 8.967 2.355 8.28 2.006L3.156 4.984L0 10.471L2 11.577V17.022L14.25 24L24 18.449V6.941L20.562 5ZM3.938 7.688L11.835 12.228L10.643 14.319L2.771 9.714L3.938 7.688ZM13 20.986L4 15.86V12.748L11.377 17.067L13 14.222V20.986ZM22 17.286L15 21.271V12.91L22 9.137V17.286ZM17.093 16.484L16.744 16.683V18.396L17.093 18.201V16.484ZM17.677 16.151L17.334 16.346V18.063L17.677 17.868V16.151ZM19.072 15.357L18.729 15.552V17.269L19.072 17.074V15.357ZM18.498 15.684L18.154 15.88V17.597L18.498 17.401V15.684Z" fill="#000"/>
</g>
<defs>
<clipPath id="clip0">
<rect width="24" height="24" fill="#000"/>
</clipPath>
</defs>
</svg>
