<svg width="24" height="24" viewBox="0 0 24 24" fill="none" xmlns="http://www.w3.org/2000/svg">
<g id="iconmonstr-delivery-19">
<path id="Vector" fill-rule="evenodd" clip-rule="evenodd" d="M18.5 12C15.464 12 13 14.463 13 17.5C13 20.537 15.464 23 18.5 23C21.535 23 24 20.537 24 17.5C24 14.463 21.535 12 18.5 12ZM11.866 21H0V1H22V10.866C21.38 10.538 20.708 10.294 20 10.15V3H13V9H9V3H2V19H11.15C11.294 19.708 11.538 20.38 11.866 21ZM17.885 18.06L16.626 16.878L15.664 17.867L17.904 20L21.669 16.166L20.69 15.196L17.885 18.06ZM9 17H4V15H9V17Z" fill="#000"/>
</g>
</svg>
