<svg width="20" height="20" viewBox="0 0 20 20" fill="none" xmlns="http://www.w3.org/2000/svg">
<g id="iconmonstr-check-mark-8">
<path id="Vector" d="M10 1.66667C14.595 1.66667 18.3333 5.405 18.3333 10C18.3333 14.595 14.595 18.3333 10 18.3333C5.405 18.3333 1.66667 14.595 1.66667 10C1.66667 5.405 5.405 1.66667 10 1.66667ZM10 0C4.4775 0 0 4.4775 0 10C0 15.5225 4.4775 20 10 20C15.5225 20 20 15.5225 20 10C20 4.4775 15.5225 0 10 0ZM15.2083 7.40917L14.0242 6.235L8.93667 11.4167L6.37167 8.96917L5.20833 10.1658L8.95833 13.765L15.2083 7.40917Z" fill="#000"/>
</g>
</svg>
