<svg width="20" height="20" viewBox="0 0 20 20" fill="none" xmlns="http://www.w3.org/2000/svg">
<g id="iconmonstr-award-23 1" clip-path="url(#clip0)">
<path id="Vector" d="M11.6092 8.53766L13.2933 6.836L10.9783 6.50016L9.95917 4.28933L8.94083 6.50016L6.62583 6.83516L8.31 8.53683L7.9 10.956L9.95917 9.79683L12.0192 10.956L11.6092 8.53766ZM3.70833 12.3027C2.98667 11.151 2.56333 9.79266 2.56333 8.3335C2.56333 4.191 5.92083 0.833496 10.0633 0.833496C14.2058 0.833496 17.5633 4.191 17.5633 8.3335C17.5633 9.82683 17.1217 11.2152 16.3692 12.3843C15.8633 12.126 15.3458 11.8968 14.8175 11.7018C15.4942 10.7493 15.8967 9.5885 15.8967 8.3335C15.8967 5.11683 13.2792 2.50016 10.0633 2.50016C6.8475 2.50016 4.23 5.11683 4.23 8.3335C4.23 9.5635 4.615 10.7035 5.26667 11.6452C4.73667 11.8327 4.21667 12.0518 3.70833 12.3027ZM16.4642 14.3443L14.5192 17.1127C13.1833 16.3427 11.6458 15.8927 10 15.8852C8.35417 15.8927 6.81667 16.3427 5.48083 17.1127L3.53583 14.3443C5.42417 13.1893 7.62917 12.5093 10 12.5018C12.3708 12.5093 14.5758 13.1893 16.4642 14.3443ZM20 16.6668H18.0342L17.5625 19.1668C17.0517 18.3235 16.4058 17.5735 15.665 16.9335L17.6175 14.1543C18.5242 14.8868 19.3275 15.6943 20 16.6668ZM2.38333 14.1543L4.33583 16.9335C3.59417 17.5743 2.94917 18.3235 2.43833 19.1668L1.96667 16.6668H0C0.6725 15.6943 1.47583 14.8868 2.38333 14.1543Z" fill="#000"/>
</g>
<defs>
<clipPath id="clip0">
<rect width="20" height="20" fill="#000"/>
</clipPath>
</defs>
</svg>
