<svg width="24" height="24" viewBox="0 0 24 24" fill="none" xmlns="http://www.w3.org/2000/svg">
<g id="iconmonstr-banknote-20" clip-path="url(#clip0)">
<path id="Vector" d="M20.667 14C22.448 14 24 13.329 24 12.5C24 11.671 22.448 11 20.667 11C18.886 11 17.334 11.671 17.334 12.5C17.334 13.329 18.885 14 20.667 14ZM20.729 12.66C20.53 12.6 19.919 12.549 19.919 12.21C19.919 12.021 20.142 11.852 20.558 11.814V11.666H20.772V11.807C20.928 11.811 21.102 11.828 21.295 11.867L21.217 12.096C21.07 12.062 20.906 12.03 20.745 12.03L20.697 12.031C20.376 12.044 20.35 12.222 20.572 12.298C20.936 12.41 21.416 12.493 21.416 12.791C21.416 13.029 21.127 13.157 20.771 13.188V13.334H20.557V13.195C20.337 13.193 20.106 13.157 19.915 13.093L20.013 12.864C20.176 12.906 20.38 12.948 20.565 12.948L20.704 12.938C20.951 12.904 21 12.739 20.729 12.66ZM20.667 18C21.928 18 23.237 17.677 24 17.066V17.5C24 18.329 22.448 19 20.667 19C18.886 19 17.334 18.329 17.334 17.5V17.066C18.097 17.677 19.405 18 20.667 18ZM20.667 14.667C21.928 14.667 23.237 14.344 24 13.733V14.167C24 14.996 22.448 15.667 20.667 15.667C18.886 15.667 17.334 14.996 17.334 14.167V13.733C18.097 14.344 19.405 14.667 20.667 14.667ZM20.667 16.333C21.928 16.333 23.237 16.01 24 15.398V15.833C24 16.661 22.448 17.333 20.667 17.333C18.886 17.333 17.334 16.661 17.334 15.833V15.398C18.097 16.01 19.405 16.333 20.667 16.333ZM8.5 12.5C8.5 13.88 9.62 15 11 15C12.38 15 13.5 13.88 13.5 12.5C13.5 11.12 12.38 10 11 10C9.62 10 8.5 11.12 8.5 12.5ZM11.736 11.36L11.646 11.771C11.454 11.704 11.241 11.643 11.035 11.655C10.663 11.677 10.63 11.999 10.89 12.134C11.318 12.335 11.875 12.484 11.875 13.02C11.876 13.449 11.541 13.679 11.126 13.736V14H10.875V13.75C10.616 13.746 10.349 13.684 10.126 13.569L10.239 13.158C10.478 13.25 10.797 13.349 11.046 13.293C11.333 13.228 11.392 12.933 11.074 12.79C10.841 12.682 10.13 12.589 10.13 11.979C10.13 11.638 10.391 11.333 10.876 11.266V11H11.127V11.254C11.306 11.259 11.509 11.291 11.736 11.36ZM18 6H1V16H0V5H18V6ZM20 7V9.834C19.285 9.893 18.599 10.048 18 10.292V9H4V16H16V18H2V7H20Z" fill="#000"/>
</g>
<defs>
<clipPath id="clip0">
<rect width="24" height="24" fill="#000"/>
</clipPath>
</defs>
</svg>
