<svg width="20" height="20" viewBox="0 0 20 20" fill="none" xmlns="http://www.w3.org/2000/svg">
<g id="iconmonstr-shipping-box-9" clip-path="url(#clip0)">
<path id="Vector" d="M11.5867 7.5C8.65833 4.18 11.5033 1.16833 11.5033 1.16833L10.3425 0.0108333L15 0V4.6725L13.8567 3.51333C13.8567 3.51417 10.8725 4.10167 11.5867 7.5ZM16.38 12.52L16.0883 12.6858V14.1167L16.38 13.9508V12.52ZM17.0833 12.1192L16.7983 12.2817V13.7125L17.0833 13.55V12.1192ZM14.2442 13.7367L13.9533 13.9025V15.33L14.2442 15.1675V13.7367ZM15.8933 12.7975L15.6075 12.96V14.3908L15.8933 14.2283V12.7975ZM16.6842 3.90333V5.81583L17.3967 6.22333L11.6808 9.305L4.2975 5.02333L9.60917 1.97833L8.35917 0.806667L2.63917 4.115L0 8.72583L1.66667 9.6475V14.185L11.875 20L20 15.3742V5.78417L16.6842 3.90333ZM3.28167 6.40667L9.8625 10.19L8.86833 11.9325L2.30917 8.095L3.28167 6.40667ZM10.8333 17.4883L3.33333 13.2167V10.6233L8.02667 13.3708L9.48167 14.2225L10.3167 12.7583L10.8333 11.8517V17.4883ZM18.3333 14.405L12.5 17.7258V10.7583L18.3333 7.61417V14.405ZM14.7308 13.4592L14.445 13.6217V15.0525L14.7308 14.89V13.4592ZM15.415 13.07L15.1283 13.2333V14.6642L15.415 14.5008V13.07Z" fill="#000"/>
</g>
<defs>
<clipPath id="clip0">
<rect width="20" height="20" fill="#000"/>
</clipPath>
</defs>
</svg>
