<svg width="70" height="70" viewBox="0 0 70 70" fill="none" xmlns="http://www.w3.org/2000/svg">
<path d="M11.6667 46.6667V23.3333H17.5V46.6667H11.6667ZM46.6667 46.6667V23.3333H52.5V46.6667H46.6667ZM20.4167 46.6667V23.3333H23.3333V46.6667H20.4167ZM26.25 46.6667V23.3333H32.0833V46.6667H26.25ZM35 46.6667V23.3333H37.9167V46.6667H35ZM40.8333 46.6667V23.3333H43.75V46.6667H40.8333ZM55.4167 46.6667V23.3333H58.3333V46.6667H55.4167ZM52.5 17.5H64.1667V29.1667H70V11.6667H52.5V17.5ZM5.83333 29.1667V17.5H17.5V11.6667H0V29.1667H5.83333ZM17.5 52.5H5.83333V40.8333H0V58.3333H17.5V52.5ZM64.1667 40.8333V52.5H52.5V58.3333H70V40.8333H64.1667Z" fill="#000"/>
</svg>
