<svg width="20" height="20" viewBox="0 0 20 20" fill="none" xmlns="http://www.w3.org/2000/svg">
<g id="iconmonstr-time-17 2" clip-path="url(#clip0)">
<path id="Vector" d="M20 10C20 15.5225 15.5225 20 10 20C4.4775 20 0 15.5225 0 10H1.66667C1.66667 14.595 5.405 18.3333 10 18.3333C14.595 18.3333 18.3333 14.595 18.3333 10C18.3333 5.405 14.595 1.66667 10 1.66667C7.68583 1.66667 5.59417 2.6175 4.08417 4.1475L5.80167 5.865L0 6.99333L1.0875 1.14917L2.90333 2.96583C4.71333 1.13583 7.22167 0 10 0C15.5225 0 20 4.4775 20 10ZM9.16667 5V11.6667H15V10H10.8333V5H9.16667Z" fill="#000"/>
</g>
<defs>
<clipPath id="clip0">
<rect width="20" height="20" fill="#000"/>
</clipPath>
</defs>
</svg>
