<svg width="20" height="20" viewBox="0 0 20 20" fill="none" xmlns="http://www.w3.org/2000/svg">
<g id="iconmonstr-eye-8 2" clip-path="url(#clip0)">
<path id="Vector" d="M16.3367 2.13477L13.5483 4.74893C12.49 4.39227 11.31 4.16643 10.0125 4.16643C3.705 4.16643 0 9.6256 0 9.6256C0 9.6256 1.60667 12.0848 4.28833 13.9073L1.8625 16.3314L3.04083 17.5098L17.5158 3.31393L16.3367 2.13477ZM11.3233 6.9506C8.58333 5.73977 5.75583 8.5406 6.93583 11.2889L5.4975 12.7114C3.98583 11.7448 2.81 10.5031 2.11417 9.66143C3.35833 8.2881 6.12833 5.8331 10.0125 5.8331C10.785 5.8331 11.5092 5.93227 12.1875 6.0956L11.3233 6.9506ZM8.92083 13.1431L13.1625 8.98227C14.01 11.5748 11.4933 14.0381 8.92083 13.1431ZM20 9.6256C20 9.6256 16.4567 15.8331 10.0125 15.8331C8.86333 15.8331 7.79417 15.5906 6.80333 15.2189L8.14833 13.8998C8.74417 14.0606 9.36333 14.1664 10.0125 14.1664C14.005 14.1664 16.7658 11.2273 17.9325 9.69643C17.325 9.01143 16.3025 8.0381 14.9433 7.23643L16.1842 6.01977C18.6692 7.6031 20 9.6256 20 9.6256Z" fill="#000"/>
</g>
<defs>
<clipPath id="clip0">
<rect width="20" height="20" fill="#000"/>
</clipPath>
</defs>
</svg>
