<svg width="20" height="20" viewBox="0 0 20 20" fill="none" xmlns="http://www.w3.org/2000/svg">
<g id="iconmonstr-photo-camera-5 2">
<path id="Vector" d="M4.16667 3.33317H1.66667V2.49984H4.16667V3.33317ZM13.275 3.33317L13.9517 4.349C14.5708 5.27817 15.6075 5.83317 16.725 5.83317H18.3333V16.6665H1.66667V5.83317H4.94167C6.05917 5.83317 7.09583 5.27817 7.715 4.349L8.39167 3.33317H13.275ZM14.1667 1.6665H7.5L6.32833 3.424C6.01917 3.88817 5.49917 4.1665 4.94167 4.1665H0V18.3332H20V4.1665H16.725C16.1675 4.1665 15.6475 3.88817 15.3383 3.424L14.1667 1.6665ZM5 8.33317C5 7.87317 4.6275 7.49984 4.16667 7.49984C3.70583 7.49984 3.33333 7.87317 3.33333 8.33317C3.33333 8.79317 3.70583 9.1665 4.16667 9.1665C4.6275 9.1665 5 8.79317 5 8.33317ZM10.8333 8.33317C12.2117 8.33317 13.3333 9.45484 13.3333 10.8332C13.3333 12.2115 12.2117 13.3332 10.8333 13.3332C9.455 13.3332 8.33333 12.2115 8.33333 10.8332C8.33333 9.45484 9.455 8.33317 10.8333 8.33317ZM10.8333 6.6665C8.5325 6.6665 6.66667 8.53234 6.66667 10.8332C6.66667 13.134 8.5325 14.9998 10.8333 14.9998C13.1342 14.9998 15 13.134 15 10.8332C15 8.53234 13.1342 6.6665 10.8333 6.6665Z" fill="#000"/>
</g>
</svg>
