<svg width="20" height="20" viewBox="0 0 20 20" fill="none" xmlns="http://www.w3.org/2000/svg">
<g id="iconmonstr-delivery-19">
<path id="Vector" fill-rule="evenodd" clip-rule="evenodd" d="M15.4167 10.0002C12.8867 10.0002 10.8333 12.0527 10.8333 14.5835C10.8333 17.1143 12.8867 19.1668 15.4167 19.1668C17.9458 19.1668 20 17.1143 20 14.5835C20 12.0527 17.9458 10.0002 15.4167 10.0002ZM9.88833 17.5002H0V0.833496H18.3333V9.05516C17.8167 8.78183 17.2567 8.5785 16.6667 8.4585V2.50016H10.8333V7.50016H7.5V2.50016H1.66667V15.8335H9.29167C9.41167 16.4235 9.615 16.9835 9.88833 17.5002ZM14.9042 15.0502L13.855 14.0652L13.0533 14.8893L14.92 16.6668L18.0575 13.4718L17.2417 12.6635L14.9042 15.0502ZM7.5 14.1668H3.33333V12.5002H7.5V14.1668Z" fill="#000"/>
</g>
</svg>
