<svg width="24" height="24" viewBox="0 0 24 24" fill="none" xmlns="http://www.w3.org/2000/svg">
<g id="iconmonstr-airport-8" clip-path="url(#clip0)">
<path id="Vector" fill-rule="evenodd" clip-rule="evenodd" d="M12.716 9.927L18.119 11.588L20.566 10.343C21.891 9.748 23.987 10.238 24 11.793C24.009 12.649 23.405 13.72 22.505 14.218L20.1 15.443L18.264 20.804L15.771 22L15.508 17.781L13.801 18.65L13.127 20.459L10.937 21.481L10.472 17.915L7.855 15.361L9.981 14.268L11.82 14.795L13.529 13.925L10.24 11.195L12.716 9.927ZM9.104 20.566C4.244 22.002 0.393 17.265 0 15C1.498 16.65 4.118 17.901 7.188 17.084L8.299 18.169C7.265 18.593 5.7 18.85 4.367 18.576C5.752 19.448 7.055 19.709 8.929 19.229L9.104 20.566ZM22.281 11.901C22.141 11.841 21.625 11.707 21.32 11.881L18.252 13.44L13.158 11.673L16.586 14.288L12.123 16.563L10.507 15.859L11.972 17.18L12.057 19.019L12.623 17.352L16.912 15.228L17.133 19.148L18.695 14.283C18.695 14.283 21.408 12.859 21.799 12.646C22.171 12.442 22.281 11.901 22.281 11.901ZM0.013 12.511L0 12C0 6.478 4.477 2 10 2C14.462 2 18.243 4.924 19.529 8.961C19.529 8.961 18.451 9.522 17.953 9.776C17.898 9.663 13.216 8.302 13.216 8.302C12.844 8.19 12.466 8.165 11.844 8.463L11.573 8.059C11.477 7.996 10.729 7.471 10.933 7.814L11.59 8.468C11.558 8.49 11.418 8.229 11.418 8.42C11.445 8.346 11.444 8.572 11.411 8.685L11.338 8.722L11.33 8.708C11.285 8.634 11.404 8.593 11.335 8.485C11.335 8.414 11.147 8.345 11.109 8.297C11.004 8.168 10.728 7.883 10.578 7.814C10.536 7.795 9.941 7.887 9.891 7.906L9.742 8.165C9.618 8.211 9.503 8.27 9.393 8.344L9.262 8.637C9.204 8.688 8.624 8.88 8.621 8.887C8.646 8.824 8.215 8.744 8.243 8.619C8.275 8.482 8.421 8.053 8.383 7.896C8.343 7.731 9.278 8.133 9.34 7.699C9.363 7.513 9.377 7.294 9.078 7.262C9.134 7.268 9.657 7.057 9.743 6.962C9.865 6.822 10.144 6.593 10.347 6.593C10.584 6.593 10.532 6.249 10.641 6.08C10.75 6.124 10.583 6.393 10.714 6.503C10.705 6.417 11.084 6.55 11.121 6.53C11.209 6.484 11.692 6.511 11.617 6.283C11.533 6.053 11.659 6.121 11.768 6.073C11.748 6.08 12.05 5.557 12.103 5.729C12.067 5.552 11.752 5.79 11.642 5.782C11.389 5.761 11.495 5.348 11.592 5.227C11.666 5.131 11.389 5.014 11.386 5.197C11.381 5.471 11.126 5.719 11.184 6.084C11.276 6.634 10.572 5.952 10.511 5.989C10.278 6.13 10.087 5.811 10.208 5.618C10.331 5.423 10.628 5.433 10.751 5.223C10.837 5.074 10.938 4.902 11.072 4.789C11.518 4.415 11.641 4.715 12.084 4.755C12.52 4.795 12.231 4.859 12.172 5.025C12.114 5.184 12.41 5.24 12.513 5.108C12.57 5.031 12.704 4.839 12.761 4.696C12.835 4.511 13.512 4.532 13.039 4.249C12.728 4.064 11.369 3.689 10.459 3.689C10.263 3.689 10.125 3.908 9.975 4.033C9.678 4.279 8.92 4.761 8.496 4.615C8.064 4.465 7.138 5.164 6.989 5.17C6.934 5.172 6.991 4.64 7.287 4.602C7.158 4.62 8.326 4.012 8.295 3.885C8.256 3.735 5.962 4.57 6.064 4.739C6.112 4.814 6.314 4.814 6.051 4.984C5.901 5.073 5.74 5.65 5.599 5.65C5.178 5.834 5.152 5.288 4.684 5.991L3.939 6.292C2.833 7.467 2.067 8.956 1.789 10.611C1.778 10.677 2.068 10.798 2.105 10.844C2.198 10.956 2.198 11.438 2.244 11.595C2.36 11.993 2.643 12.215 2.861 12.577C2.989 12.793 3.203 13.339 3.135 13.566C3.226 13.418 4.028 14.245 4.174 14.418C4.477 14.775 4.72 15.198 4.391 15.569C1.664 15.195 0.013 12.511 0.013 12.511ZM7.278 13.745C6.596 13.293 6.403 12.285 6.646 11.515C6.677 11.356 6.551 11.063 6.606 10.941C6.737 10.647 7.007 10.318 7.241 10.095C7.373 9.97 7.542 10.002 7.697 9.905C7.936 9.755 7.939 9.445 8.174 9.255C8.507 8.983 8.962 8.989 9.397 8.931C9.629 8.9 10.51 8.709 10.65 8.881L10.691 9.054L9.466 9.681C8.558 10.179 8.323 11.197 8.716 11.948C8.884 12.266 9.37 12.682 9.37 12.682C9.286 12.716 7.278 13.745 7.278 13.745ZM9.16 6.249L9.25 6.223L9.208 6.337C9.279 6.466 9.226 6.544 9.215 6.614L9.09 6.69C9.046 6.746 9.305 6.754 9.308 6.761C9.317 6.789 8.995 6.835 9.055 6.904C9.134 7.017 9.742 6.741 9.645 6.757C9.832 6.663 9.67 6.653 9.564 6.598C9.528 6.42 9.499 6.143 9.387 6.032L9.46 5.948C9.288 5.698 9.16 6.249 9.16 6.249ZM8.731 6.704C8.659 6.733 8.589 6.687 8.658 6.617L8.731 6.529L8.724 6.489L8.782 6.416L8.842 6.401L8.966 6.314C9.002 6.322 9.088 6.393 9.058 6.437L8.992 6.519C8.977 6.658 8.837 6.657 8.733 6.703L8.731 6.704L8.733 6.703L8.731 6.704Z" fill="#000"/>
</g>
<defs>
<clipPath id="clip0">
<rect width="24" height="24" fill="#000"/>
</clipPath>
</defs>
</svg>
