<svg width="20" height="20" viewBox="0 0 20 20" fill="none" xmlns="http://www.w3.org/2000/svg">
<g id="iconmonstr-payment-4">
<path id="Vector" d="M17.9167 5.00016C18.1467 5.00016 18.3333 5.18683 18.3333 5.41683V14.5835C18.3333 14.8135 18.1467 15.0002 17.9167 15.0002H2.08333C1.85333 15.0002 1.66667 14.8135 1.66667 14.5835V5.41683C1.66667 5.18683 1.85333 5.00016 2.08333 5.00016H17.9167ZM20 5.00016C20 4.08016 19.2533 3.3335 18.3333 3.3335H1.66667C0.745833 3.3335 0 4.08016 0 5.00016V15.0002C0 15.9202 0.745833 16.6668 1.66667 16.6668H18.3333C19.2533 16.6668 20 15.9202 20 15.0002V5.00016ZM8.70583 8.02516H9.785L9.11 11.986H8.03083L8.70583 8.02516ZM11.9617 9.61516C11.5842 9.43183 11.3533 9.30933 11.3558 9.12433C11.3558 8.95933 11.5517 8.7835 11.9742 8.7835C12.3275 8.77766 12.5825 8.85516 12.7825 8.93516L12.8792 8.981L13.0258 8.12266C12.8117 8.04266 12.4767 7.956 12.0583 7.956C10.9917 7.956 10.24 8.4935 10.2342 9.26266C10.2283 9.83183 10.7708 10.1493 11.18 10.3385C11.6 10.5327 11.7417 10.656 11.7392 10.8302C11.7367 11.0952 11.4033 11.2168 11.0933 11.2168C10.6617 11.2168 10.4317 11.1568 10.0775 11.0093L9.93833 10.946L9.78667 11.8327C10.0392 11.9435 10.505 12.0393 10.9892 12.0443C12.1242 12.0443 12.8608 11.5135 12.8692 10.691C12.8717 10.2402 12.5842 9.89766 11.9617 9.61516ZM16.6667 11.9868H15.665L15.5333 11.3935L14.1508 11.3918L13.9233 11.9868H12.79L14.3933 8.35766C14.5067 8.10016 14.7 8.02933 14.9583 8.02933H15.7925L16.6667 11.9868ZM15.3575 10.5818L15.1075 9.4385L15.0342 9.09683L14.8908 9.47516L14.4608 10.5818H15.3575ZM7.125 8.02766L6.06833 10.7285L5.95583 10.1793L5.5775 8.35933C5.51167 8.10933 5.3225 8.03433 5.0875 8.02516H3.34667L3.33333 8.10766C3.75667 8.21016 4.135 8.35766 4.4675 8.54183L5.4275 11.9818L6.57 11.9802L8.26917 8.02766H7.125Z" fill="#000"/>
</g>
</svg>
