<svg width="24" height="24" viewBox="0 0 24 24" fill="none" xmlns="http://www.w3.org/2000/svg">
<g id="iconmonstr-delivery-12" clip-path="url(#clip0)">
<path id="Vector" fill-rule="evenodd" clip-rule="evenodd" d="M7.919 17.377L3.05 4H1C0.734 4 0.48 3.895 0.293 3.707C0.105 3.52 0 3.265 0 3C0 2.448 0.447 2 1 2H4.45L9.919 17.025C10.76 17.126 11.509 17.525 12.058 18.113L23.316 14.016L24 15.895L12.951 19.916C12.983 20.106 13 20.301 13 20.5C13 22.432 11.431 24 9.5 24C7.568 24 6 22.432 6 20.5C6 19.137 6.781 17.955 7.919 17.377ZM9.5 19.188C10.224 19.188 10.812 19.776 10.812 20.5C10.812 21.224 10.224 21.813 9.5 21.813C8.775 21.813 8.187 21.224 8.187 20.5C8.187 19.776 8.775 19.188 9.5 19.188ZM22.814 12.676L11.396 16.832L8.66 9.314L20.078 5.158L22.814 12.676ZM14.104 9.461L11.224 10.509L12.592 14.268L20.251 11.481L18.883 7.722L15.983 8.777L16.667 10.656L14.788 11.341L14.104 9.461ZM16.776 5.296L8.318 8.374L6.391 3.078L14.848 0L16.776 5.296ZM13.653 2.563L8.954 4.274L9.514 5.811L14.212 4.101L13.653 2.563Z" fill="#000"/>
</g>
<defs>
<clipPath id="clip0">
<rect width="24" height="24" fill="#000"/>
</clipPath>
</defs>
</svg>
