<svg width="20" height="20" viewBox="0 0 20 20" fill="none" xmlns="http://www.w3.org/2000/svg">
<g id="iconmonstr-task-1 2">
<path id="Vector" d="M18.3333 1.66667V18.3333H1.66667V1.66667H18.3333ZM20 0H0V20H20V0ZM16.6667 5.83333H10V6.66667H16.6667V5.83333ZM16.6667 10H10V10.8333H16.6667V10ZM16.6667 14.1667H10V15H16.6667V14.1667ZM7.90333 4.74667L7.31167 4.16667L5.18417 6.33917L3.90167 5.12917L3.32 5.72083L5.195 7.5L7.90333 4.74667ZM7.90333 8.91333L7.31167 8.33333L5.185 10.5058L3.9025 9.29583L3.32083 9.88667L5.195 11.6667L7.90333 8.91333ZM7.90333 13.08L7.31167 12.5L5.185 14.6725L3.9025 13.4625L3.32083 14.0533L5.195 15.8333L7.90333 13.08Z" fill="#000"/>
</g>
</svg>
