<svg width="20" height="20" viewBox="0 0 20 20" fill="none" xmlns="http://www.w3.org/2000/svg">
<g id="iconmonstr-phone-7 2">
<path id="Vector" d="M2.99162 1.10167L5.36162 0L8.72912 6.575L6.45829 7.6925C6.00995 8.74167 8.25745 12.9333 9.20579 13.0025C9.28079 12.9542 11.4316 11.8958 11.4316 11.8958L14.8566 18.5058C14.8566 18.5058 12.5533 19.6342 12.4783 19.6692C5.92745 22.6617 -3.43921 4.45417 2.99162 1.10167ZM4.59995 2.16333L3.74745 2.58333C-0.664213 4.885 7.22829 20.2375 11.7875 18.155L12.5966 17.76L10.7041 14.1075L9.84912 14.5242C7.21329 15.8133 2.96412 7.675 5.63662 6.2425L6.47579 5.82833L4.59995 2.16333ZM11.1266 8.5375L13.5575 9.2625C13.7433 8.64 13.6908 7.94667 13.3575 7.33167C13.025 6.71583 12.4725 6.2925 11.8508 6.1075L11.1266 8.5375ZM12.63 3.48833C13.9225 3.87333 15.0683 4.75167 15.76 6.03083C16.4525 7.31083 16.56 8.75 16.175 10.0417L14.6791 9.59583C14.95 8.68667 14.8733 7.67417 14.3858 6.77333C13.9 5.8725 13.0933 5.255 12.1833 4.985L12.63 3.48833ZM13.4216 0.833333C15.3925 1.42083 17.1408 2.76 18.1958 4.71333C19.2533 6.66583 19.4175 8.86167 18.83 10.8333L17.2966 10.3767C17.7666 8.7975 17.635 7.03833 16.79 5.475C15.9433 3.91083 14.5433 2.8375 12.9641 2.3675L13.4216 0.833333Z" fill="#000"/>
</g>
</svg>
