<svg width="24" height="24" viewBox="0 0 24 24" fill="none" xmlns="http://www.w3.org/2000/svg">
<g id="iconmonstr-payment-22">
<path id="Vector" d="M21.5 6C21.776 6 22 6.224 22 6.5V17.5C22 17.776 21.776 18 21.5 18H2.5C2.224 18 2 17.776 2 17.5V6.5C2 6.224 2.224 6 2.5 6H21.5ZM24 6C24 4.896 23.104 4 22 4H2C0.895 4 0 4.896 0 6V18C0 19.104 0.895 20 2 20H22C23.104 20 24 19.104 24 18V6ZM14.528 12.955C14.336 12.689 14.131 12.473 14.131 11.979V10.338C14.131 9.643 14.18 9.004 13.667 8.525C13.263 8.137 12.594 8 12.081 8C11.079 8 9.96 8.374 9.726 9.613C9.7 9.744 9.797 9.814 9.883 9.833L10.904 9.944C11 9.939 11.069 9.845 11.087 9.75C11.175 9.324 11.532 9.118 11.934 9.118C12.151 9.118 12.397 9.198 12.526 9.391C12.674 9.608 12.654 9.904 12.654 10.156V10.293C12.043 10.361 11.245 10.407 10.673 10.658C10.013 10.943 9.55 11.524 9.55 12.379C9.55 13.474 10.24 14.021 11.127 14.021C11.876 14.021 12.285 13.844 12.863 13.255C13.055 13.532 13.117 13.666 13.468 13.957C13.546 14 13.647 13.995 13.716 13.932C13.926 13.745 14.311 13.415 14.526 13.235C14.611 13.165 14.596 13.05 14.528 12.955ZM12.653 11.363C12.653 11.774 12.663 12.115 12.456 12.48C12.289 12.777 12.022 12.959 11.727 12.959C11.322 12.959 11.086 12.651 11.086 12.195C11.086 11.298 11.891 11.134 12.653 11.134V11.363ZM14.901 14.594C13.985 15.085 12.989 15.321 12.083 15.321C10.741 15.321 9.441 14.857 8.389 14.086C8.297 14.019 8.229 14.137 8.305 14.225C9.281 15.333 10.568 16 11.998 16C13.018 16 14.203 15.595 15.02 14.835C15.155 14.71 15.039 14.52 14.901 14.594ZM15.124 15.333C15.094 15.409 15.159 15.44 15.227 15.382C15.673 15.009 15.789 14.227 15.697 14.114C15.606 14.002 14.826 13.905 14.35 14.24C14.277 14.291 14.289 14.362 14.371 14.352C14.639 14.32 15.236 14.248 15.342 14.385C15.449 14.521 15.225 15.083 15.124 15.333Z" fill="#000"/>
</g>
</svg>
