<svg width="24" height="24" viewBox="0 0 24 24" fill="none" xmlns="http://www.w3.org/2000/svg">
<g id="iconmonstr-bell-14">
<path id="Vector" d="M8 21H14C14 22.598 12.608 24 11.029 24C9.45 24 8 22.598 8 21ZM13.816 19H1V17.251C5.877 15.66 3.194 6.654 7.863 3.945C8.508 3.571 8.905 2.876 8.904 2.125V2.122C8.903 0.95 9.842 0 11 0C12.158 0 13.097 0.95 13.097 2.122V2.125C13.096 2.875 13.493 3.572 14.138 3.945C15.683 4.841 16.417 6.43 16.892 8.209C16.225 8.379 15.601 8.65 15.035 9.008C14.666 7.515 14.151 6.265 13.135 5.675C11.823 4.915 10.248 4.874 8.868 5.675C7.382 6.537 6.96 8.794 6.513 11.185C6.154 13.109 5.738 15.333 4.549 17H12.5C12.812 17.749 13.263 18.424 13.816 19ZM10 2C10 2.552 10.448 3 11 3C11.552 3 12 2.552 12 2C12 1.449 11.552 1 11 1C10.448 1 10 1.449 10 2ZM23 14.5C23 16.985 20.984 19 18.5 19C16.014 19 14 16.985 14 14.5C14 12.015 16.014 10 18.5 10C20.984 10 23 12.015 23 14.5ZM20.844 13.618L20.147 12.922L18.032 15.091L17.04 14.151L16.345 14.848L18.033 16.485L20.844 13.618Z" fill="#000"/>
</g>
</svg>
