<svg width="60" height="60" viewBox="0 0 60 60" fill="none" xmlns="http://www.w3.org/2000/svg">
<g clip-path="url(#clip0)">
<path fill-rule="evenodd" clip-rule="evenodd" d="M31.79 24.8175L45.2975 28.97L51.415 25.8575C54.7275 24.37 59.9675 25.595 60 29.4825C60.0225 31.6225 58.5125 34.3 56.2625 35.545L50.25 38.6075L45.66 52.01L39.4275 55L38.77 44.4525L34.5025 46.625L32.8175 51.1475L27.3425 53.7025L26.18 44.7875L19.6375 38.4025L24.9525 35.67L29.55 36.9875L33.8225 34.8125L25.6 27.9875L31.79 24.8175ZM22.76 51.415C10.61 55.005 0.9825 43.1625 0 37.5C3.745 41.625 10.295 44.7525 17.97 42.71L20.7475 45.4225C18.1625 46.4825 14.25 47.125 10.9175 46.44C14.38 48.62 17.6375 49.2725 22.3225 48.0725L22.76 51.415ZM55.7025 29.7525C55.3525 29.6025 54.0625 29.2675 53.3 29.7025L45.63 33.6L32.895 29.1825L41.465 35.72L30.3075 41.4075L26.2675 39.6475L29.93 42.95L30.1425 47.5475L31.5575 43.38L42.28 38.07L42.8325 47.87L46.7375 35.7075C46.7375 35.7075 53.52 32.1475 54.4975 31.615C55.4275 31.105 55.7025 29.7525 55.7025 29.7525ZM0.0325 31.2775L0 30C0 16.195 11.1925 5 25 5C36.155 5 45.6075 12.31 48.8225 22.4025C48.8225 22.4025 46.1275 23.805 44.8825 24.44C44.745 24.1575 33.04 20.755 33.04 20.755C32.11 20.475 31.165 20.4125 29.61 21.1575L28.9325 20.1475C28.6925 19.99 26.8225 18.6775 27.3325 19.535L28.975 21.17C28.895 21.225 28.545 20.5725 28.545 21.05C28.6125 20.865 28.61 21.43 28.5275 21.7125L28.345 21.805L28.325 21.77C28.2125 21.585 28.51 21.4825 28.3375 21.2125C28.3375 21.035 27.8675 20.8625 27.7725 20.7425C27.51 20.42 26.82 19.7075 26.445 19.535C26.34 19.4875 24.8525 19.7175 24.7275 19.765L24.355 20.4125C24.045 20.5275 23.7575 20.675 23.4825 20.86L23.155 21.5925C23.01 21.72 21.56 22.2 21.5525 22.2175C21.615 22.06 20.5375 21.86 20.6075 21.5475C20.6875 21.205 21.0525 20.1325 20.9575 19.74C20.8575 19.3275 23.195 20.3325 23.35 19.2475C23.4075 18.7825 23.4425 18.235 22.695 18.155C22.835 18.17 24.1425 17.6425 24.3575 17.405C24.6625 17.055 25.36 16.4825 25.8675 16.4825C26.46 16.4825 26.33 15.6225 26.6025 15.2C26.875 15.31 26.4575 15.9825 26.785 16.2575C26.7625 16.0425 27.71 16.375 27.8025 16.325C28.0225 16.21 29.23 16.2775 29.0425 15.7075C28.8325 15.1325 29.1475 15.3025 29.42 15.1825C29.37 15.2 30.125 13.8925 30.2575 14.3225C30.1675 13.88 29.38 14.475 29.105 14.455C28.4725 14.4025 28.7375 13.37 28.98 13.0675C29.165 12.8275 28.4725 12.535 28.465 12.9925C28.4525 13.6775 27.815 14.2975 27.96 15.21C28.19 16.585 26.43 14.88 26.2775 14.9725C25.695 15.325 25.2175 14.5275 25.52 14.045C25.8275 13.5575 26.57 13.5825 26.8775 13.0575C27.0925 12.685 27.345 12.255 27.68 11.9725C28.795 11.0375 29.1025 11.7875 30.21 11.8875C31.3 11.9875 30.5775 12.1475 30.43 12.5625C30.285 12.96 31.025 13.1 31.2825 12.77C31.425 12.5775 31.76 12.0975 31.9025 11.74C32.0875 11.2775 33.78 11.33 32.5975 10.6225C31.82 10.16 28.4225 9.2225 26.1475 9.2225C25.6575 9.2225 25.3125 9.77 24.9375 10.0825C24.195 10.6975 22.3 11.9025 21.24 11.5375C20.16 11.1625 17.845 12.91 17.4725 12.925C17.335 12.93 17.4775 11.6 18.2175 11.505C17.895 11.55 20.815 10.03 20.7375 9.7125C20.64 9.3375 14.905 11.425 15.16 11.8475C15.28 12.035 15.785 12.035 15.1275 12.46C14.7525 12.6825 14.35 14.125 13.9975 14.125C12.945 14.585 12.88 13.22 11.71 14.9775L9.8475 15.73C7.0825 18.6675 5.1675 22.39 4.4725 26.5275C4.445 26.6925 5.17 26.995 5.2625 27.11C5.495 27.39 5.495 28.595 5.61 28.9875C5.9 29.9825 6.6075 30.5375 7.1525 31.4425C7.4725 31.9825 8.0075 33.3475 7.8375 33.915C8.065 33.545 10.07 35.6125 10.435 36.045C11.1925 36.9375 11.8 37.995 10.9775 38.9225C4.16 37.9875 0.0325 31.2775 0.0325 31.2775ZM18.195 34.3625C16.49 33.2325 16.0075 30.7125 16.615 28.7875C16.6925 28.39 16.3775 27.6575 16.515 27.3525C16.8425 26.6175 17.5175 25.795 18.1025 25.2375C18.4325 24.925 18.855 25.005 19.2425 24.7625C19.84 24.3875 19.8475 23.6125 20.435 23.1375C21.2675 22.4575 22.405 22.4725 23.4925 22.3275C24.0725 22.25 26.275 21.7725 26.625 22.2025L26.7275 22.635L23.665 24.2025C21.395 25.4475 20.8075 27.9925 21.79 29.87C22.21 30.665 23.425 31.705 23.425 31.705C23.215 31.79 18.195 34.3625 18.195 34.3625ZM22.9 15.6225L23.125 15.5575L23.02 15.8425C23.1975 16.165 23.065 16.36 23.0375 16.535L22.725 16.725C22.615 16.865 23.2625 16.885 23.27 16.9025C23.2925 16.9725 22.4875 17.0875 22.6375 17.26C22.835 17.5425 24.355 16.8525 24.1125 16.8925C24.58 16.6575 24.175 16.6325 23.91 16.495C23.82 16.05 23.7475 15.3575 23.4675 15.08L23.65 14.87C23.22 14.245 22.9 15.6225 22.9 15.6225ZM21.8275 16.76C21.6475 16.8325 21.4725 16.7175 21.645 16.5425L21.8275 16.3225L21.81 16.2225L21.955 16.04L22.105 16.0025L22.415 15.785C22.505 15.805 22.72 15.9825 22.645 16.0925L22.48 16.2975C22.4425 16.645 22.0925 16.6425 21.8325 16.7575L21.8275 16.76L21.8325 16.7575L21.8275 16.76Z" fill="#000"/>
</g>
<defs>
<clipPath id="clip0">
<rect width="60" height="60" fill="white"/>
</clipPath>
</defs>
</svg>
