<svg width="20" height="20" viewBox="0 0 20 20" fill="none" xmlns="http://www.w3.org/2000/svg">
<g id="iconmonstr-eye-4 2">
<path id="Vector" d="M10.0125 5.83317C13.9717 5.83317 16.7317 8.34317 17.9325 9.6965C16.765 11.2273 14.005 14.1665 10.0125 14.1665C6.32917 14.1665 3.40417 11.2198 2.11417 9.66067C3.35833 8.28817 6.12833 5.83317 10.0125 5.83317ZM10.0125 4.1665C3.705 4.1665 0 9.62567 0 9.62567C0 9.62567 4.02917 15.8332 10.0125 15.8332C16.4567 15.8332 20 9.62567 20 9.62567C20 9.62567 16.4242 4.1665 10.0125 4.1665ZM10 8.33317C10.9192 8.33317 11.6667 9.08067 11.6667 9.99984C11.6667 10.919 10.9192 11.6665 10 11.6665C9.08083 11.6665 8.33333 10.919 8.33333 9.99984C8.33333 9.08067 9.08083 8.33317 10 8.33317ZM10 6.6665C8.15917 6.6665 6.66667 8.15984 6.66667 9.99984C6.66667 11.8407 8.15917 13.3332 10 13.3332C11.8408 13.3332 13.3333 11.8407 13.3333 9.99984C13.3333 8.15984 11.8408 6.6665 10 6.6665Z" fill="#000"/>
</g>
</svg>
