<svg width="24" height="24" viewBox="0 0 24 24" fill="none" xmlns="http://www.w3.org/2000/svg">
<g id="iconmonstr-shipping-box-2" clip-path="url(#clip0)">
<path id="Vector" d="M15.744 16.683L16.093 16.484V18.201L15.744 18.396V16.683ZM19.158 16.456L19.5 16.26V14.543L19.157 14.738V16.456H19.158ZM17.729 17.269L18.072 17.074V15.357L17.729 15.552V17.269ZM18.307 16.94L18.656 16.741V15.024L18.307 15.223V16.94ZM17.155 17.596L17.498 17.4V15.683L17.155 15.879V17.596ZM16.334 18.063L16.677 17.868V16.151L16.334 16.346V18.063ZM23 6.941V18.448L13.25 24L1 17.022V5.515L10.767 0L23 6.941ZM10.764 2.298L8.658 3.488L17.549 8.722L17.547 8.725L19.877 7.469L10.764 2.298ZM12 12.888L3 7.67V15.86L12 20.986V12.888ZM15.493 9.832L6.646 4.624L4.158 6.029L13.018 11.167L15.493 9.832ZM21 9.136L14 12.909V21.271L21 17.286V9.136Z" fill="#000"/>
</g>
<defs>
<clipPath id="clip0">
<rect width="24" height="24" fill="#000"/>
</clipPath>
</defs>
</svg>
