<svg width="24" height="24" viewBox="0 0 24 24" fill="none" xmlns="http://www.w3.org/2000/svg">
<g id="iconmonstr-navigation-10 1">
<path id="Vector" d="M11.467 8.444L12.338 11.875L14.934 5.014L8 7.587L11.467 8.444ZM12 0C7.582 0 4 3.479 4 7.77C4 12.128 7.5 15.107 12 19C16.5 15.107 20 12.128 20 7.77C20 3.479 16.418 0 12 0ZM12 13.723C8.759 13.723 6.134 11.123 6.134 7.917C6.134 4.711 8.759 2.111 12 2.111C15.241 2.111 17.866 4.711 17.866 7.917C17.866 11.123 15.241 13.723 12 13.723ZM20 16H18.199C17.57 16.673 16.883 17.335 16.158 18H18.763L19.263 19H15.045L13.899 20H14.924L15.782 22H8.295L9.153 20H10.1C9.711 19.664 9.328 19.331 8.953 19H6.958L5.947 18H7.842C7.117 17.336 6.432 16.673 5.803 16H4L0 24H24L20 16ZM7.206 22H3.236L5 18.472L6.516 20H8.065L7.206 22ZM16.014 20H19.764L20.764 22H16.872L16.014 20Z" fill="#000"/>
</g>
</svg>
