<svg width="20" height="20" viewBox="0 0 20 20" fill="none" xmlns="http://www.w3.org/2000/svg">
<g id="iconmonstr-user-10 2">
<path id="Vector" d="M8.00159 3.08333C7.03992 4.6975 7.47242 7.43917 9.18825 10.6042C9.96325 12.0308 9.76908 13.1208 9.46992 13.7833C8.65158 15.5983 6.40742 16.1158 4.03242 16.6633C2.39575 17.0417 2.49992 17.3883 2.49992 20H0.837419L0.833252 18.9658C0.833252 16.8658 0.999085 15.6533 3.48159 15.08C6.28575 14.4325 9.05492 13.8525 7.72325 11.3983C3.77908 4.12417 6.59825 0 10.8333 0C13.6008 0 15.8083 1.76417 15.8083 5.13917C15.8083 8.10167 14.1841 10.8333 13.8224 11.6667H12.0599C12.3866 10.3867 14.1424 8.02833 14.1424 5.13167C14.1424 0.8375 9.25325 0.9775 8.00159 3.08333ZM19.1666 15.8333H16.6666V13.3333H14.9999V15.8333H12.4999V17.5H14.9999V20H16.6666V17.5H19.1666V15.8333Z" fill="#000"/>
</g>
</svg>
