<svg width="24" height="24" viewBox="0 0 24 24" fill="none" xmlns="http://www.w3.org/2000/svg">
<g id="iconmonstr-shipping-box-11" clip-path="url(#clip0)">
<path id="Vector" d="M17.677 16.879L17.334 17.074V15.357L17.677 15.162V16.879ZM20.5 13.555L20.158 13.75V15.467L20.5 15.271V13.555ZM24 5.953V17.46L14.25 23L4 18.011V6.504L13.767 1L24 5.953ZM12.154 4.196L19.176 7.396L20.876 6.479L13.763 3.286L12.154 4.196ZM13 11.899L6 8.659V16.849L13 19.997V11.899ZM16.021 9.09L9.203 5.85L7.158 7.018L14.017 10.179L16.021 9.09ZM22 8.147L20 9.225V12.011L17 13.699V10.843L15 11.921V20.283L22 16.298V8.147ZM17.093 15.495L16.744 15.694V17.407L17.093 17.212V15.495ZM18.498 14.695L18.154 14.891V16.608L18.498 16.412V14.695ZM19.072 14.368L18.729 14.563V16.28L19.072 16.085V14.368ZM19.656 14.036L19.306 14.235V15.952L19.656 15.753V14.036ZM3 10H1V11H3V10ZM3 12H0V13H3V12ZM3 14H1V15H3V14Z" fill="#000"/>
</g>
<defs>
<clipPath id="clip0">
<rect width="24" height="24" fill="#000"/>
</clipPath>
</defs>
</svg>
