<svg width="24" height="24" viewBox="0 0 24 24" fill="none" xmlns="http://www.w3.org/2000/svg">
<g id="iconmonstr-shipping-box-9" clip-path="url(#clip0)">
<path id="Vector" d="M13.904 9C10.39 5.016 13.804 1.402 13.804 1.402L12.411 0.013L18 0V5.607L16.628 4.216C16.628 4.217 13.047 4.922 13.904 9ZM19.656 15.024L19.306 15.223V16.94L19.656 16.741V15.024ZM20.5 14.543L20.158 14.738V16.455L20.5 16.26V14.543ZM17.093 16.484L16.744 16.683V18.396L17.093 18.201V16.484ZM19.072 15.357L18.729 15.552V17.269L19.072 17.074V15.357ZM20.021 4.684V6.979L20.876 7.468L14.017 11.166L5.157 6.028L11.531 2.374L10.031 0.968L3.167 4.938L0 10.471L2 11.577V17.022L14.25 24L24 18.449V6.941L20.021 4.684ZM3.938 7.688L11.835 12.228L10.642 14.319L2.771 9.714L3.938 7.688ZM13 20.986L4 15.86V12.748L9.632 16.045L11.378 17.067L12.38 15.31L13 14.222V20.986ZM22 17.286L15 21.271V12.91L22 9.137V17.286ZM17.677 16.151L17.334 16.346V18.063L17.677 17.868V16.151ZM18.498 15.684L18.154 15.88V17.597L18.498 17.401V15.684Z" fill="#000"/>
</g>
<defs>
<clipPath id="clip0">
<rect width="24" height="24" fill="#000"/>
</clipPath>
</defs>
</svg>
