<svg width="24" height="24" viewBox="0 0 24 24" fill="none" xmlns="http://www.w3.org/2000/svg">
<g id="iconmonstr-delivery-2">
<path id="Vector" fill-rule="evenodd" clip-rule="evenodd" d="M3 18H1C0.448 18 0 17.552 0 17V4C0 3.448 0.448 3 1 3H14C14.552 3 15 3.448 15 4V6H19.667C20.784 6 21.267 6.576 21.603 7.107C22.197 8.047 23.139 9.539 23.712 10.485C23.9 10.797 24 11.155 24 11.52V16C24 17.089 23.257 18 22 18H21C21 19.656 19.656 21 18 21C16.344 21 15 19.656 15 18H9C9 19.656 7.656 21 6 21C4.344 21 3 19.656 3 18ZM6 16.8C6.662 16.8 7.2 17.338 7.2 18C7.2 18.662 6.662 19.2 6 19.2C5.338 19.2 4.8 18.662 4.8 18C4.8 17.338 5.338 16.8 6 16.8ZM18 16.8C18.662 16.8 19.2 17.338 19.2 18C19.2 18.662 18.662 19.2 18 19.2C17.338 19.2 16.8 18.662 16.8 18C16.8 17.338 17.338 16.8 18 16.8ZM15 14H2V16H3.765C4.314 15.386 5.112 15 6 15C6.888 15 7.686 15.386 8.235 16H15.765C16.314 15.386 17.112 15 18 15C18.888 15 19.686 15.386 20.235 16H22V11.425L20.289 8.496C20.11 8.189 19.781 8 19.426 8H15V14ZM13 5H2V12H13V5ZM16 9V12H21L19.573 9.504C19.395 9.192 19.064 9 18.705 9H16Z" fill="#000"/>
</g>
</svg>
