<svg width="24" height="24" viewBox="0 0 24 24" fill="none" xmlns="http://www.w3.org/2000/svg">
<g id="iconmonstr-file-14">
<path id="Vector" d="M18.5 15C16.017 15 14 17.015 14 19.5C14 21.985 16.017 24 18.5 24C20.983 24 23 21.985 23 19.5C23 17.015 20.983 15 18.5 15ZM21 20H19V22H18V20H16V19H18V17H19V19H21V20ZM13.82 24H1V0H11.189C14.352 0 21 7.223 21 9.614V13.501C20.376 13.24 19.703 13.079 19 13.025V10.456C19 6.35 13 8 13 8C13 8 14.518 2 10.362 2H3V22H12.501C12.814 22.749 13.266 23.424 13.82 24Z" fill="#000"/>
</g>
</svg>
