<svg width="70" height="70" viewBox="0 0 70 70" fill="none" xmlns="http://www.w3.org/2000/svg">
<path d="M4.71042 33.1771L0.233333 30.3013L15.9804 28.4988L21.5921 43.1492L17.1646 40.3463C12.8421 47.3521 8.8725 55.5567 11.3925 63.3763C4.09208 57.1871 0 52.43 0 46.6842C0 42.5367 2.695 36.9454 4.71042 33.1771ZM16.5433 49.5833C14.3179 52.2988 13.6208 58.0037 14.3471 61.4571C14.6796 63.0379 16.0737 64.1667 17.6925 64.1667H32.0833V49.5833H16.5433ZM47.7692 64.68V70L37.94 57.5662L47.7692 45.0771V50.3183C56.0029 50.3038 64.68 49.3471 70 43.0879C68.5883 52.5554 66.7012 58.5404 61.8188 61.5679C58.2925 63.7496 52.0363 64.4058 47.7692 64.68ZM55.5625 45.9754C59.0421 46.4362 64.26 44.0242 66.8121 41.5858C67.9817 40.4688 68.2063 38.6896 67.3546 37.3158L59.7713 25.0892L47.3754 32.7717L55.5625 45.9754ZM52.8296 12.2558L57.5254 9.75042L51.4092 24.3746L35.8838 22.1229L40.4892 19.6263C36.4875 12.4308 31.2667 4.96125 23.2079 3.3425C28.7612 1.26875 33.2354 0 37.0242 0C43.5517 0 47.3492 3.68958 52.8296 12.2558ZM32.7367 14.5746C31.4533 11.3079 26.8129 7.91 23.4442 6.86C21.9013 6.37875 20.2358 7.04375 19.4454 8.45542L12.4221 21.0175L25.1504 28.1371L32.7367 14.5746Z" fill="#000"/>
</svg>
