<svg width="20" height="20" viewBox="0 0 20 20" fill="none" xmlns="http://www.w3.org/2000/svg">
<g id="iconmonstr-delivery-6">
<path id="Vector" fill-rule="evenodd" clip-rule="evenodd" d="M4.16667 9.16667V10H10.8333V4.16667H2.5V3.33333C2.5 2.87333 2.87333 2.5 3.33333 2.5H11.6667C12.1267 2.5 12.5 2.87333 12.5 3.33333V5H16.3892C17.32 5 17.7225 5.48 18.0025 5.9225C18.4975 6.70583 19.2825 7.94917 19.76 8.7375C19.9167 8.9975 20 9.29583 20 9.6V13.3333C20 14.2408 19.3808 15 18.3333 15H17.5C17.5 16.38 16.38 17.5 15 17.5C13.62 17.5 12.5 16.38 12.5 15H9.16667C9.16667 16.38 8.04667 17.5 6.66667 17.5C5.28667 17.5 4.16667 16.38 4.16667 15H3.33333C2.87333 15 2.5 14.6267 2.5 14.1667V9.16667H0.833333V7.5H6.66667V9.16667H4.16667ZM6.66667 14C7.21833 14 7.66667 14.4483 7.66667 15C7.66667 15.5517 7.21833 16 6.66667 16C6.115 16 5.66667 15.5517 5.66667 15C5.66667 14.4483 6.115 14 6.66667 14ZM15 14C15.5517 14 16 14.4483 16 15C16 15.5517 15.5517 16 15 16C14.4483 16 14 15.5517 14 15C14 14.4483 14.4483 14 15 14ZM12.5 11.6667H4.16667V13.3333H4.80417C5.26167 12.8217 5.92667 12.5 6.66667 12.5C7.40667 12.5 8.07167 12.8217 8.52917 13.3333H13.1375C13.595 12.8217 14.26 12.5 15 12.5C15.74 12.5 16.405 12.8217 16.8625 13.3333H18.3333V9.52083L16.9075 7.08C16.7583 6.82417 16.4842 6.66667 16.1883 6.66667H12.5V11.6667ZM13.3333 7.5V10H17.5L16.3108 7.92C16.1625 7.66 15.8867 7.5 15.5875 7.5H13.3333ZM0 5H6.66667V6.66667H0V5Z" fill="#000"/>
</g>
</svg>
