<svg width="24" height="24" viewBox="0 0 24 24" fill="none" xmlns="http://www.w3.org/2000/svg">
<g id="iconmonstr-paperclip-2 1" clip-path="url(#clip0)">
<path id="Vector" d="M21.586 10.461L11.536 20.536C9.586 22.485 6.414 22.485 4.465 20.536C2.516 18.587 2.515 15.414 4.465 13.464L15.093 2.87898C16.263 1.70898 18.166 1.70898 19.336 2.87898C20.505 4.04898 20.506 5.95098 19.336 7.12098L10.829 15.585C10.439 15.975 9.805 15.975 9.415 15.585C9.025 15.195 9.025 14.561 9.415 14.171L16.508 7.12098L15.093 5.70698L8 12.756C6.828 13.928 6.829 15.829 8 17C9.171 18.171 11.071 18.171 12.242 17L20.749 8.53598C21.726 7.55898 22.213 6.27998 22.213 4.99998C22.213 2.23098 19.967 0.000976562 17.213 0.000976562C15.933 0.000976562 14.654 0.488976 13.677 1.46598L3.05 12.049C1.684 13.417 1 15.208 1 17C1 20.863 4.13 24 8 24C9.792 24 11.583 23.316 12.95 21.95L23 11.875L21.586 10.461Z" fill="#000"/>
</g>
<defs>
<clipPath id="clip0">
<rect width="24" height="24" fill="#000"/>
</clipPath>
</defs>
</svg>
