<svg width="20" height="20" viewBox="0 0 20 20" fill="none" xmlns="http://www.w3.org/2000/svg">
<g id="iconmonstr-shipping-box-8" clip-path="url(#clip0)">
<path id="Vector" d="M11.6992 7.47333L8.39833 4.16667H10.0383C10.0383 4.16667 10.8642 1.51833 7.55083 0C12.71 0.185 13.3608 4.16667 13.3608 4.16667H15L11.6992 7.47333ZM17.0833 12.1192L16.7983 12.2817V13.7125L17.0833 13.55V12.1192ZM16.38 12.52L16.0883 12.6858V14.1167L16.38 13.9508V12.52ZM17.135 4.16667L16.0467 5.45833L17.3967 6.22417L11.6808 9.30583L4.2975 5.02417L7.99417 2.78667C7.79917 2.37 7.4725 1.9625 6.9 1.67167L2.63 4.15333L0 8.72583L1.66667 9.6475V14.185L11.875 20L20 15.3742V5.78417L17.135 4.16667ZM3.28167 6.40667L9.8625 10.19L8.86917 11.9325L2.30917 8.095L3.28167 6.40667ZM10.8333 17.4883L3.33333 13.2167V10.6233L9.48083 14.2225L10.8333 11.8517V17.4883ZM18.3333 14.405L12.5 17.7258V10.7583L18.3333 7.61417V14.405ZM14.2442 13.7367L13.9533 13.9025V15.33L14.2442 15.1675V13.7367ZM14.7308 13.4592L14.445 13.6217V15.0525L14.7308 14.89V13.4592ZM15.8933 12.7975L15.6075 12.96V14.3908L15.8933 14.2283V12.7975ZM15.415 13.07L15.1283 13.2333V14.6642L15.415 14.5008V13.07Z" fill="#000"/>
</g>
<defs>
<clipPath id="clip0">
<rect width="20" height="20" fill="#000"/>
</clipPath>
</defs>
</svg>
