<svg width="20" height="20" viewBox="0 0 20 20" fill="none" xmlns="http://www.w3.org/2000/svg">
<g id="iconmonstr-delivery-8 1" clip-path="url(#clip0)">
<path id="Vector" fill-rule="evenodd" clip-rule="evenodd" d="M3.20667 15.8333H2.5C1.83667 15.8333 1.20083 15.57 0.7325 15.1008C0.263333 14.6325 0 13.9967 0 13.3333V10.8333C0 4.85417 4.48083 0 10 0C15.5192 0 20 4.85417 20 10.8333V13.3333C20 13.9967 19.7367 14.6325 19.2675 15.1008C18.7992 15.57 18.1633 15.8333 17.5 15.8333H16.7933C14.5517 19.6942 11.04 20 10 20C8.96 20 5.44833 19.6942 3.20667 15.8333ZM16.6667 10.9367C16.1658 11.1333 15.6092 10.7867 15.6092 10.2725C15.6092 10.0192 15.5908 9.76417 15.565 9.51C14.0975 9.29833 12.55 7.905 12.4825 6.4075C11.3867 8.07833 8.71167 9.8825 6.6125 9.8825C7.5175 9.3 8.145 7.57167 8.19833 6.95917C7.71417 7.86917 5.78333 9.5725 4.40583 9.865L4.39083 10.2725C4.39083 10.7883 3.83333 11.1325 3.33333 10.9367V14.0792C3.5725 14.2925 3.86 14.4658 4.20083 14.5742C4.38833 14.6342 4.54417 14.7608 4.635 14.9275C6.47333 18.2992 9.15667 18.3333 10 18.3333C10.7742 18.3333 13.0992 18.3042 14.8975 15.6925C14.005 16.0533 13.01 16.1958 11.765 16.2367C11.4567 16.7367 10.7817 17.0833 10 17.0833C8.92667 17.0833 8.05583 16.43 8.05583 15.625C8.05583 14.82 8.92667 14.1667 10 14.1667C10.7775 14.1667 11.4483 14.5092 11.76 15.0042C13.3433 14.9825 15.3733 14.7258 16.6667 12.8V10.9367ZM7.5 10.4167C8.07167 10.4167 8.53583 10.9767 8.53583 11.6667C8.53583 12.3567 8.07167 12.9167 7.5 12.9167C6.92833 12.9167 6.46417 12.3567 6.46417 11.6667C6.46417 10.9767 6.92833 10.4167 7.5 10.4167ZM12.5 10.4167C13.0717 10.4167 13.5358 10.9767 13.5358 11.6667C13.5358 12.3567 13.0717 12.9167 12.5 12.9167C11.9283 12.9167 11.4642 12.3567 11.4642 11.6667C11.4642 10.9767 11.9283 10.4167 12.5 10.4167ZM17.065 9.16667H18.1958C17.4825 4.90167 14.0817 1.66667 10 1.66667C5.91833 1.66667 2.5175 4.90167 1.80417 9.16667H2.935C3.36833 5.81417 5.7775 2.73167 10 2.73167C14.2225 2.73167 16.6317 5.81417 17.065 9.16667Z" fill="#000"/>
</g>
<defs>
<clipPath id="clip0">
<rect width="20" height="20" fill="#000"/>
</clipPath>
</defs>
</svg>
