<svg width="20" height="20" viewBox="0 0 20 20" fill="none" xmlns="http://www.w3.org/2000/svg">
<g id="iconmonstr-delivery-2">
<path id="Vector" fill-rule="evenodd" clip-rule="evenodd" d="M2.5 15H0.833333C0.373333 15 0 14.6267 0 14.1667V3.33333C0 2.87333 0.373333 2.5 0.833333 2.5H11.6667C12.1267 2.5 12.5 2.87333 12.5 3.33333V5H16.3892C17.32 5 17.7225 5.48 18.0025 5.9225C18.4975 6.70583 19.2825 7.94917 19.76 8.7375C19.9167 8.9975 20 9.29583 20 9.6V13.3333C20 14.2408 19.3808 15 18.3333 15H17.5C17.5 16.38 16.38 17.5 15 17.5C13.62 17.5 12.5 16.38 12.5 15H7.5C7.5 16.38 6.38 17.5 5 17.5C3.62 17.5 2.5 16.38 2.5 15ZM5 14C5.55167 14 6 14.4483 6 15C6 15.5517 5.55167 16 5 16C4.44833 16 4 15.5517 4 15C4 14.4483 4.44833 14 5 14ZM15 14C15.5517 14 16 14.4483 16 15C16 15.5517 15.5517 16 15 16C14.4483 16 14 15.5517 14 15C14 14.4483 14.4483 14 15 14ZM12.5 11.6667H1.66667V13.3333H3.1375C3.595 12.8217 4.26 12.5 5 12.5C5.74 12.5 6.405 12.8217 6.8625 13.3333H13.1375C13.595 12.8217 14.26 12.5 15 12.5C15.74 12.5 16.405 12.8217 16.8625 13.3333H18.3333V9.52083L16.9075 7.08C16.7583 6.82417 16.4842 6.66667 16.1883 6.66667H12.5V11.6667ZM10.8333 4.16667H1.66667V10H10.8333V4.16667ZM13.3333 7.5V10H17.5L16.3108 7.92C16.1625 7.66 15.8867 7.5 15.5875 7.5H13.3333Z" fill="#000"/>
</g>
</svg>
