<svg width="24" height="24" viewBox="0 0 24 24" fill="none" xmlns="http://www.w3.org/2000/svg">
<g id="iconmonstr-speech-bubble-26" clip-path="url(#clip0)">
<path id="Vector" d="M10 3.002C14.411 3.002 18 5.851 18 9.352C18 12.387 14.971 15.663 10.075 15.663C8.495 15.663 7.357 15.346 6.357 15.102C5.391 15.695 5.101 15.915 3.351 16.475C3.766 14.957 3.713 14.293 3.682 13.291C2.845 12.29 2 11.222 2 9.352C2 5.851 5.589 3.002 10 3.002ZM10 1C4.719 1 0 4.526 0 9.352C0 11.063 0.615 12.743 1.705 14.047C1.752 15.574 0.854 17.765 0.044 19.359C2.212 18.968 5.296 18.101 6.693 17.244C7.874 17.533 9.005 17.665 10.075 17.665C15.978 17.665 20 13.627 20 9.352C20 4.5 15.249 1 10 1ZM21.535 12.174C21.374 12.662 21.174 13.135 20.934 13.59C22.611 14.852 23.191 16.816 21.398 18.955C21.377 19.7 21.349 20.004 21.536 20.82C20.644 20.513 20.557 20.428 19.871 20.007C17.744 20.526 15.606 20.703 13.782 19.152C13.22 19.311 12.637 19.43 12.042 19.516C13.555 21.393 16.34 22.413 19.619 21.616C20.533 22.177 22.552 22.743 23.971 23.001C23.441 21.956 22.854 20.522 22.883 19.522C24.638 17.424 24.426 14.086 21.535 12.174ZM6.5 8.411C5.909 8.411 5.429 8.89 5.429 9.482C5.429 10.074 5.909 10.553 6.5 10.553C7.091 10.553 7.571 10.074 7.571 9.482C7.571 8.89 7.091 8.411 6.5 8.411ZM10 8.411C9.409 8.411 8.929 8.89 8.929 9.482C8.929 10.074 9.409 10.553 10 10.553C10.591 10.553 11.071 10.074 11.071 9.482C11.071 8.89 10.591 8.411 10 8.411ZM13.5 8.411C12.909 8.411 12.429 8.89 12.429 9.482C12.429 10.074 12.909 10.553 13.5 10.553C14.091 10.553 14.571 10.074 14.571 9.482C14.571 8.89 14.091 8.411 13.5 8.411Z" fill="#000"/>
</g>
<defs>
<clipPath id="clip0">
<rect width="24" height="24" fill="#000"/>
</clipPath>
</defs>
</svg>
