<svg width="20" height="20" viewBox="0 0 20 20" fill="none" xmlns="http://www.w3.org/2000/svg">
<g id="iconmonstr-bell-2">
<path id="Vector" d="M12.5001 17.5C12.5001 18.8317 11.3401 20 10.0242 20C8.70842 20 7.50008 18.8317 7.50008 17.5H12.5001ZM12.6142 3.2875C12.0776 2.97583 11.7459 2.39583 11.7467 1.77083V1.76833C11.7476 0.791667 10.9651 0 10.0001 0C9.03508 0 8.25258 0.791667 8.25258 1.76833V1.77083C8.25342 2.39667 7.92258 2.97583 7.38508 3.2875C3.49508 5.545 5.73091 13.05 1.66675 14.3758V15.8333H18.3334V14.3758C14.2692 13.05 16.5059 5.54417 12.6142 3.2875ZM10.0001 0.833333C10.4601 0.833333 10.8334 1.2075 10.8334 1.66667C10.8334 2.12667 10.4601 2.5 10.0001 2.5C9.54008 2.5 9.16675 2.12667 9.16675 1.66667C9.16675 1.2075 9.54008 0.833333 10.0001 0.833333ZM4.62425 14.1667C5.61508 12.7775 5.96175 10.9242 6.26091 9.32083C6.63341 7.32917 6.98508 5.4475 8.22258 4.73C9.37258 4.0625 10.6859 4.09667 11.7784 4.73C13.0159 5.4475 13.3676 7.32917 13.7401 9.32083C14.0392 10.9242 14.3859 12.7775 15.3767 14.1667H4.62425Z" fill="#000"/>
</g>
</svg>
