<svg width="20" height="20" viewBox="0 0 20 20" fill="none" xmlns="http://www.w3.org/2000/svg">
<g id="iconmonstr-calendar-4 2">
<path id="Vector" d="M16.6667 16.6667H13.3333V13.3333H16.6667V16.6667ZM11.6667 8.33333H8.33333V11.6667H11.6667V8.33333ZM16.6667 8.33333H13.3333V11.6667H16.6667V8.33333ZM6.66667 13.3333H3.33333V16.6667H6.66667V13.3333ZM11.6667 13.3333H8.33333V16.6667H11.6667V13.3333ZM6.66667 8.33333H3.33333V11.6667H6.66667V8.33333ZM20 1.66667V20H0V1.66667H2.5V2.5C2.5 3.41917 3.2475 4.16667 4.16667 4.16667C5.08583 4.16667 5.83333 3.41917 5.83333 2.5V1.66667H14.1667V2.5C14.1667 3.41917 14.9142 4.16667 15.8333 4.16667C16.7525 4.16667 17.5 3.41917 17.5 2.5V1.66667H20ZM18.3333 6.66667H1.66667V18.3333H18.3333V6.66667ZM16.6667 0.833333C16.6667 0.373333 16.2942 0 15.8333 0C15.3725 0 15 0.373333 15 0.833333V2.5C15 2.96 15.3725 3.33333 15.8333 3.33333C16.2942 3.33333 16.6667 2.96 16.6667 2.5V0.833333ZM5 2.5C5 2.96 4.6275 3.33333 4.16667 3.33333C3.70583 3.33333 3.33333 2.96 3.33333 2.5V0.833333C3.33333 0.373333 3.70583 0 4.16667 0C4.6275 0 5 0.373333 5 0.833333V2.5Z" fill="#000"/>
</g>
</svg>
