<svg width="20" height="20" viewBox="0 0 20 20" fill="none" xmlns="http://www.w3.org/2000/svg">
<g id="iconmonstr-bell-8" clip-path="url(#clip0)">
<path id="Vector" d="M12.5 17.5C12.5 18.8317 11.34 20 10.0242 20C8.70833 20 7.5 18.8317 7.5 17.5H12.5ZM12.6142 3.2875C12.0775 2.97583 11.7458 2.39583 11.7467 1.77083V1.76833C11.7475 0.791667 10.965 0 10 0C9.035 0 8.2525 0.791667 8.2525 1.76833V1.77083C8.25333 2.39667 7.9225 2.97583 7.385 3.2875C3.495 5.545 5.73083 13.05 1.66667 14.3758V15.8333H18.3333V14.3758C14.2692 13.05 16.5058 5.54417 12.6142 3.2875ZM10 0.833333C10.46 0.833333 10.8333 1.2075 10.8333 1.66667C10.8333 2.12667 10.46 2.5 10 2.5C9.54 2.5 9.16667 2.12667 9.16667 1.66667C9.16667 1.2075 9.54 0.833333 10 0.833333ZM4.62417 14.1667C5.615 12.7775 5.96167 10.9242 6.26083 9.32083C6.63333 7.32917 6.985 5.4475 8.2225 4.73C9.3725 4.0625 10.6858 4.09667 11.7783 4.73C13.0158 5.4475 13.3675 7.32917 13.74 9.32083C14.0392 10.9242 14.3858 12.7775 15.3767 14.1667H4.62417ZM17.315 7.7675C17.465 8.36833 17.3567 8.9725 17.0617 9.46333L17.87 9.95C18.29 9.25167 18.4433 8.3925 18.2308 7.54C18.0183 6.68667 17.4808 6 16.7817 5.58083L16.2967 6.38917C16.7875 6.685 17.1658 7.1675 17.315 7.7675ZM17.645 4.14583L17.1475 4.975C18 5.48833 18.6575 6.3275 18.9183 7.37C19.1775 8.4125 18.9892 9.46167 18.4767 10.315L19.305 10.8133C19.7517 10.07 20.0008 9.20833 20.0008 8.31333C20 6.66333 19.1592 5.05583 17.645 4.14583ZM3.70333 6.38917L3.21833 5.58083C2.51917 6.00083 1.98167 6.68667 1.76917 7.54C1.55667 8.3925 1.71 9.25083 2.13 9.95L2.93833 9.46333C2.64333 8.97333 2.535 8.36833 2.685 7.7675C2.83417 7.1675 3.2125 6.685 3.70333 6.38917ZM0 8.3125C0 9.2075 0.249167 10.0692 0.695833 10.8125L1.52417 10.3142C1.01167 9.46083 0.823333 8.41167 1.0825 7.36917C1.3425 6.32667 2 5.4875 2.8525 4.975L2.355 4.14583C0.840833 5.05583 0 6.66333 0 8.3125Z" fill="#000"/>
</g>
<defs>
<clipPath id="clip0">
<rect width="20" height="20" fill="#000"/>
</clipPath>
</defs>
</svg>
