<svg width="24" height="24" viewBox="0 0 24 24" fill="none" xmlns="http://www.w3.org/2000/svg">
<g id="iconmonstr-bell-16">
<path id="Vector" d="M8 21H14C14 22.598 12.607 24 11.029 24C9.449 24 8 22.598 8 21ZM13.816 19H1V17.251C5.877 15.66 3.194 6.654 7.863 3.945C8.508 3.571 8.904 2.876 8.903 2.125V2.122C8.903 0.95 9.842 0 11 0C12.158 0 13.097 0.95 13.097 2.122V2.125C13.096 2.875 13.493 3.572 14.137 3.945C15.682 4.841 16.416 6.43 16.892 8.209C16.225 8.379 15.601 8.65 15.035 9.008C14.666 7.515 14.151 6.265 13.135 5.675C11.823 4.915 10.247 4.874 8.868 5.675C7.382 6.537 6.96 8.794 6.514 11.185C6.154 13.109 5.738 15.333 4.549 17H12.5C12.812 17.749 13.263 18.424 13.816 19ZM10 2C10 2.552 10.448 3 11 3C11.552 3 12 2.552 12 2C12 1.449 11.552 1 11 1C10.448 1 10 1.449 10 2ZM23 14.5C23 16.985 20.983 19 18.5 19C16.017 19 14 16.985 14 14.5C14 12.015 16.017 10 18.5 10C20.983 10 23 12.015 23 14.5ZM19.914 12.378L18.5 13.792L17.086 12.378L16.379 13.086L17.793 14.5L16.379 15.914L17.086 16.622L18.5 15.208L19.914 16.622L20.622 15.914L19.208 14.5L20.622 13.086L19.914 12.378Z" fill="#000"/>
</g>
</svg>
