<svg width="60" height="60" viewBox="0 0 60 60" fill="none" xmlns="http://www.w3.org/2000/svg">
<g clip-path="url(#clip0)">
<path d="M39.36 41.7075L40.2325 41.21V45.5025L39.36 45.99V41.7075ZM47.895 41.14L48.75 40.65V36.3575L47.8925 36.845V41.14H47.895ZM44.3225 43.1725L45.18 42.685V38.3925L44.3225 38.88V43.1725ZM45.7675 42.35L46.64 41.8525V37.56L45.7675 38.0575V42.35ZM42.8875 43.99L43.745 43.5V39.2075L42.8875 39.6975V43.99ZM40.835 45.1575L41.6925 44.67V40.3775L40.835 40.865V45.1575ZM57.5 17.3525V46.12L33.125 60L2.5 42.555V13.7875L26.9175 0L57.5 17.3525ZM26.91 5.745L21.645 8.72L43.8725 21.805L43.8675 21.8125L49.6925 18.6725L26.91 5.745ZM30 32.22L7.5 19.175V39.65L30 52.465V32.22ZM38.7325 24.58L16.615 11.56L10.395 15.0725L32.545 27.9175L38.7325 24.58ZM52.5 22.84L35 32.2725V53.1775L52.5 43.215V22.84Z" fill="#000"/>
</g>
<defs>
<clipPath id="clip0">
<rect width="60" height="60" fill="white"/>
</clipPath>
</defs>
</svg>
