<svg width="24" height="24" viewBox="0 0 24 24" fill="none" xmlns="http://www.w3.org/2000/svg">
<g id="iconmonstr-menu-10">
<path id="Vector" d="M12 2C17.514 2 22 6.486 22 12C22 17.514 17.514 22 12 22C6.486 22 2 17.514 2 12C2 6.486 6.486 2 12 2ZM12 0C5.373 0 0 5.373 0 12C0 18.627 5.373 24 12 24C18.627 24 24 18.627 24 12C24 5.373 18.627 0 12 0ZM7.5 14C6.672 14 6 13.328 6 12.5C6 11.672 6.672 11 7.5 11C8.328 11 9 11.672 9 12.5C9 13.328 8.328 14 7.5 14ZM12 14C11.172 14 10.5 13.328 10.5 12.5C10.5 11.672 11.172 11 12 11C12.828 11 13.5 11.672 13.5 12.5C13.5 13.328 12.828 14 12 14ZM16.5 14C15.672 14 15 13.328 15 12.5C15 11.672 15.672 11 16.5 11C17.328 11 18 11.672 18 12.5C18 13.328 17.328 14 16.5 14Z" fill="#000"/>
</g>
</svg>
