<svg width="24" height="24" viewBox="0 0 24 24" fill="none" xmlns="http://www.w3.org/2000/svg">
<g id="iconmonstr-server-6 1">
<path id="Vector" d="M22 8V12H2V8H22ZM24 6H0V14H24V6ZM3 11L3.863 9H5.138L4.275 11H3ZM5.066 11L5.93 9H7.205L6.342 11H5.066ZM7.133 11L7.996 9H9.271L8.407 11H7.133ZM9.199 11L10.062 9H11.336L10.473 11H9.199ZM12.54 11H11.266L12.129 9H13.404L12.54 11ZM20 11C19.448 11 19 10.552 19 10C19 9.448 19.448 9 20 9C20.553 9 21 9.448 21 10C21 10.552 20.553 11 20 11ZM22 18V22H2V18H22ZM24 16H0V24H24V16ZM3 21L3.863 19H5.138L4.275 21H3ZM5.066 21L5.929 19H7.204L6.341 21H5.066ZM7.133 21L7.996 19H9.271L8.407 21H7.133ZM9.199 21L10.062 19H11.336L10.473 21H9.199ZM12.54 21H11.266L12.129 19H13.404L12.54 21ZM20 21C19.448 21 19 20.552 19 20C19 19.448 19.448 19 20 19C20.553 19 21 19.448 21 20C21 20.552 20.553 21 20 21ZM4.403 5H2L6 0H18L22 5H19.597L16.93 2H7.07L4.403 5Z" fill="#000"/>
</g>
</svg>
