<svg width="138" height="131" viewBox="0 0 138 131" fill="none" xmlns="http://www.w3.org/2000/svg">
<path d="M108.092 48.9648H44.3901V113.747H108.092V48.9648Z" fill="#D8A337"/>
<path d="M108.092 48.9648H44.3901V57.0429H108.092V48.9648Z" fill="#B58837"/>
<path d="M63.683 60.8652H46.7231V67.6689H63.683V60.8652Z" fill="#F4DDA3"/>
<path d="M80.369 48.8652H70.252V70.2565H80.369V48.8652Z" fill="#775A29" fill-opacity="0.5"/>
<path d="M23.6458 21.2598H1.49012C0.666634 21.2598 0 20.5931 0 19.7696V12.1425C0 11.319 0.666634 10.6523 1.49012 10.6523H23.6458C24.4692 10.6523 25.1359 11.319 25.1359 12.1425V19.7696C25.1163 20.5931 24.4496 21.2598 23.6458 21.2598Z" fill="#FDC010"/>
<path d="M32.0191 5.84766H24.7842V115.118H32.0191V5.84766Z" fill="#333335" fill-opacity="0.5"/>
<path d="M29.9785 119.372V114.078C29.9785 113.51 30.4491 113.039 31.0177 113.039H136.424C136.992 113.039 137.463 113.51 137.463 114.078V119.372C137.463 119.941 136.992 120.411 136.424 120.411H31.0177C30.4491 120.411 29.9785 119.941 29.9785 119.372Z" fill="#333335" fill-opacity="0.5"/>
<path d="M33.6643 131C42.3163 131 49.3301 123.863 49.3301 115.06C49.3301 106.256 42.3163 99.1191 33.6643 99.1191C25.0124 99.1191 17.9985 106.256 17.9985 115.06C17.9985 123.863 25.0124 131 33.6643 131Z" fill="#333335"/>
<path d="M33.8009 122.943C37.8724 122.943 41.173 119.581 41.173 115.433C41.173 111.286 37.8724 107.924 33.8009 107.924C29.7293 107.924 26.4287 111.286 26.4287 115.433C26.4287 119.581 29.7293 122.943 33.8009 122.943Z" fill="#FDC010"/>
<path d="M33.6452 118.119C35.1395 118.119 36.3509 116.881 36.3509 115.354C36.3509 113.828 35.1395 112.59 33.6452 112.59C32.1508 112.59 30.9395 113.828 30.9395 115.354C30.9395 116.881 32.1508 118.119 33.6452 118.119Z" fill="#333335"/>
<path d="M109.916 131C118.568 131 125.582 123.863 125.582 115.06C125.582 106.256 118.568 99.1191 109.916 99.1191C101.264 99.1191 94.25 106.256 94.25 115.06C94.25 123.863 101.264 131 109.916 131Z" fill="#333335"/>
<path d="M110.053 122.943C114.125 122.943 117.425 119.581 117.425 115.433C117.425 111.286 114.125 107.924 110.053 107.924C105.982 107.924 102.681 111.286 102.681 115.433C102.681 119.581 105.982 122.943 110.053 122.943Z" fill="#FDC010"/>
<path d="M109.875 118.119C111.37 118.119 112.581 116.881 112.581 115.354C112.581 113.828 111.37 112.59 109.875 112.59C108.381 112.59 107.169 113.828 107.169 115.354C107.169 116.881 108.381 118.119 109.875 118.119Z" fill="#333335"/>
</svg>
