<svg width="21" height="12" viewBox="0 0 21 12" fill="none" xmlns="http://www.w3.org/2000/svg">
<path id="List" d="M1.296 10.006H4.796V11H0.0220001V1.13H1.296V10.006ZM5.86831 1.06C5.86831 0.826666 5.94765 0.64 6.10631 0.499999C6.26498 0.350666 6.47498 0.276 6.73631 0.276C6.99765 0.276 7.20765 0.350666 7.36631 0.499999C7.52498 0.64 7.60431 0.826666 7.60431 1.06C7.60431 1.29333 7.52498 1.48467 7.36631 1.634C7.20765 1.774 6.99765 1.844 6.73631 1.844C6.47498 1.844 6.26498 1.774 6.10631 1.634C5.94765 1.48467 5.86831 1.29333 5.86831 1.06ZM7.36631 3.314V11H6.09231V3.314H7.36631ZM11.8226 3.216C12.6906 3.216 13.3859 3.44467 13.9086 3.902C14.4406 4.35 14.7626 4.95667 14.8746 5.722H13.6566C13.6006 5.26467 13.4092 4.89133 13.0826 4.602C12.7652 4.30333 12.3359 4.154 11.7946 4.154C11.3372 4.154 10.9779 4.266 10.7166 4.49C10.4646 4.70467 10.3386 4.99867 10.3386 5.372C10.3386 5.652 10.4226 5.88067 10.5906 6.058C10.7679 6.226 10.9826 6.35667 11.2346 6.45C11.4959 6.534 11.8506 6.62733 12.2986 6.73C12.8679 6.86067 13.3252 6.996 13.6706 7.136C14.0252 7.26667 14.3239 7.48133 14.5666 7.78C14.8186 8.07867 14.9446 8.48 14.9446 8.984C14.9446 9.60933 14.7066 10.118 14.2306 10.51C13.7639 10.902 13.1386 11.098 12.3546 11.098C11.4399 11.098 10.6932 10.8787 10.1146 10.44C9.53591 10.0013 9.19524 9.39 9.09258 8.606H10.3246C10.3712 9.07267 10.5719 9.45067 10.9266 9.74C11.2906 10.0293 11.7666 10.174 12.3546 10.174C12.7932 10.174 13.1339 10.062 13.3766 9.838C13.6286 9.614 13.7546 9.32 13.7546 8.956C13.7546 8.65733 13.6659 8.41933 13.4886 8.242C13.3112 8.06467 13.0919 7.92933 12.8306 7.836C12.5692 7.74267 12.2099 7.64467 11.7526 7.542C11.1832 7.41133 10.7259 7.28067 10.3806 7.15C10.0446 7.01933 9.75524 6.814 9.51258 6.534C9.27924 6.24467 9.16258 5.85733 9.16258 5.372C9.16258 4.728 9.40058 4.21 9.87658 3.818C10.3526 3.41667 11.0012 3.216 11.8226 3.216ZM20.315 9.88V11H19.363C18.579 11 17.991 10.8133 17.599 10.44C17.2163 10.0667 17.025 9.44133 17.025 8.564V4.42H15.877V3.314H17.025V1.396H18.313V3.314H20.301V4.42H18.313V8.592C18.313 9.08667 18.4017 9.42733 18.579 9.614C18.7657 9.79133 19.083 9.88 19.531 9.88H20.315Z" fill="#000"/>
</svg>
