<svg width="208" height="148" viewBox="0 0 208 148" fill="none" xmlns="http://www.w3.org/2000/svg">
<path d="M53.2574 52.3349C38.18 52.3349 23.3521 51.561 8.27463 51.561L8 139.881H55.8786V52.285C55.0049 52.285 54.1311 52.3349 53.2574 52.3349Z" fill="#D8A337" fill-opacity="0.53"/>
<path d="M100.338 51.0366C85.6095 51.0366 70.6319 52.16 55.8789 52.2848V139.855H100.063C100.063 110.698 100.338 80.1935 100.338 51.0366Z" fill="#8E6A2E" fill-opacity="0.54"/>
<path d="M28.794 52.0103H17.7354V76.2494H28.794V52.0103Z" fill="#AD8235" fill-opacity="0.57"/>
<path d="M86.208 51.6108H75.1494V75.85H86.208V51.6108Z" fill="#775220" fill-opacity="0.56"/>
<path d="M31.0651 130.444L12.6176 129.471L12.418 122.631L30.9652 123.23L31.0651 130.444Z" fill="#F4DDA3" fill-opacity="0.57"/>
<path d="M139.031 84.1138H79.7939V143.351H139.031V84.1138Z" fill="#D8A337" fill-opacity="0.53"/>
<path d="M139.031 84.1138H79.7939V91.5028H139.031V84.1138Z" fill="#B58837" fill-opacity="0.51"/>
<path d="M97.7414 94.9971H81.9648V101.238H97.7414V94.9971Z" fill="#F4DDA3" fill-opacity="0.57"/>
<path d="M113.244 84.0132H103.833V103.584H113.244V84.0132Z" fill="#775A29" fill-opacity="0.57"/>
<path d="M200.911 84.7627H141.675V144H200.911V84.7627Z" fill="#D8A337" fill-opacity="0.53"/>
<path d="M200.911 84.7627H141.675V92.1518H200.911V84.7627Z" fill="#B58837" fill-opacity="0.51"/>
<path d="M159.623 95.6455H143.847V101.886H159.623V95.6455Z" fill="#F4DDA3" fill-opacity="0.57"/>
<path d="M175.126 84.6621H165.715V104.233H175.126V84.6621Z" fill="#775A29" fill-opacity="0.57"/>
<path d="M167.911 25.1006H108.675V84.338H167.911V25.1006Z" fill="#D8A337" fill-opacity="0.53"/>
<path d="M167.911 25.1006H108.675V32.4896H167.911V25.1006Z" fill="#B58837" fill-opacity="0.51"/>
<path d="M126.623 35.9839H110.847V42.2246H126.623V35.9839Z" fill="#F4DDA3" fill-opacity="0.57"/>
<path d="M142.126 25H132.715V44.5711H142.126V25Z" fill="#775A29" fill-opacity="0.57"/>
</svg>
