<svg width="30" height="14" viewBox="0 0 30 14" fill="none" xmlns="http://www.w3.org/2000/svg">
<path id="Map" d="M9.906 0.298V10H8.632V2.258L5.538 10H4.404L1.296 2.286V10H0.0220001V0.298H1.548L4.992 8.446L8.38 0.298H9.906ZM15.0939 2.216C15.8405 2.216 16.4705 2.40267 16.9839 2.776C17.5065 3.14933 17.8705 3.64867 18.0759 4.274V2.314H19.3499V10H18.0759V8.04C17.8705 8.66533 17.5065 9.16467 16.9839 9.538C16.4705 9.91133 15.8405 10.098 15.0939 10.098C14.4125 10.098 13.8059 9.93933 13.2739 9.622C12.7419 9.30467 12.3219 8.852 12.0139 8.264C11.7152 7.66667 11.5659 6.96667 11.5659 6.164C11.5659 5.36133 11.7152 4.66133 12.0139 4.064C12.3219 3.46667 12.7419 3.00933 13.2739 2.692C13.8059 2.37467 14.4125 2.216 15.0939 2.216ZM15.4579 3.35C14.6739 3.35 14.0439 3.602 13.5679 4.106C13.1012 4.60067 12.8679 5.28667 12.8679 6.164C12.8679 7.04133 13.1012 7.732 13.5679 8.236C14.0439 8.73067 14.6739 8.978 15.4579 8.978C15.9619 8.978 16.4099 8.86133 16.8019 8.628C17.2032 8.39467 17.5159 8.068 17.7399 7.648C17.9639 7.21867 18.0759 6.724 18.0759 6.164C18.0759 5.604 17.9639 5.10933 17.7399 4.68C17.5159 4.25067 17.2032 3.924 16.8019 3.7C16.4099 3.46667 15.9619 3.35 15.4579 3.35ZM25.6195 2.216C26.3008 2.216 26.9075 2.37467 27.4395 2.692C27.9715 3.00933 28.3868 3.46667 28.6855 4.064C28.9935 4.66133 29.1475 5.36133 29.1475 6.164C29.1475 6.96667 28.9935 7.66667 28.6855 8.264C28.3868 8.852 27.9715 9.30467 27.4395 9.622C26.9075 9.93933 26.3008 10.098 25.6195 10.098C24.8728 10.098 24.2381 9.91133 23.7155 9.538C23.2021 9.15533 22.8475 8.656 22.6515 8.04V13.64H21.3775V2.314H22.6515V4.274C22.8475 3.658 23.2021 3.16333 23.7155 2.79C24.2381 2.40733 24.8728 2.216 25.6195 2.216ZM25.2555 3.35C24.7608 3.35 24.3128 3.46667 23.9115 3.7C23.5101 3.924 23.1975 4.25067 22.9735 4.68C22.7495 5.10933 22.6375 5.604 22.6375 6.164C22.6375 6.724 22.7495 7.21867 22.9735 7.648C23.1975 8.068 23.5101 8.39467 23.9115 8.628C24.3128 8.86133 24.7608 8.978 25.2555 8.978C26.0488 8.978 26.6788 8.73067 27.1455 8.236C27.6215 7.732 27.8595 7.04133 27.8595 6.164C27.8595 5.28667 27.6215 4.60067 27.1455 4.106C26.6788 3.602 26.0488 3.35 25.2555 3.35Z" fill="#000"/>
</svg>
