<svg width="33" height="12" viewBox="0 0 33 12" fill="none" xmlns="http://www.w3.org/2000/svg">
<path id="Mark" d="M9.906 1.298V11H8.632V3.258L5.538 11H4.404L1.296 3.286V11H0.0220001V1.298H1.548L4.992 9.446L8.38 1.298H9.906ZM15.0939 3.216C15.8405 3.216 16.4705 3.40267 16.9839 3.776C17.5065 4.14933 17.8705 4.64867 18.0759 5.274V3.314H19.3499V11H18.0759V9.04C17.8705 9.66533 17.5065 10.1647 16.9839 10.538C16.4705 10.9113 15.8405 11.098 15.0939 11.098C14.4125 11.098 13.8059 10.9393 13.2739 10.622C12.7419 10.3047 12.3219 9.852 12.0139 9.264C11.7152 8.66667 11.5659 7.96667 11.5659 7.164C11.5659 6.36133 11.7152 5.66133 12.0139 5.064C12.3219 4.46667 12.7419 4.00933 13.2739 3.692C13.8059 3.37467 14.4125 3.216 15.0939 3.216ZM15.4579 4.35C14.6739 4.35 14.0439 4.602 13.5679 5.106C13.1012 5.60067 12.8679 6.28667 12.8679 7.164C12.8679 8.04133 13.1012 8.732 13.5679 9.236C14.0439 9.73067 14.6739 9.978 15.4579 9.978C15.9619 9.978 16.4099 9.86133 16.8019 9.628C17.2032 9.39467 17.5159 9.068 17.7399 8.648C17.9639 8.21867 18.0759 7.724 18.0759 7.164C18.0759 6.604 17.9639 6.10933 17.7399 5.68C17.5159 5.25067 17.2032 4.924 16.8019 4.7C16.4099 4.46667 15.9619 4.35 15.4579 4.35ZM22.6515 4.868C22.9035 4.336 23.2721 3.92533 23.7575 3.636C24.2428 3.33733 24.8215 3.188 25.4935 3.188V4.574H25.1015C24.3828 4.574 23.7948 4.76067 23.3375 5.134C22.8801 5.498 22.6515 6.10467 22.6515 6.954V11H21.3775V3.314H22.6515V4.868ZM30.9645 11L28.0245 7.542V11H26.7505V0.64H28.0245V6.66L30.9225 3.314H32.4765L29.0325 7.136L32.5605 11H30.9645Z" fill="#000"/>
</svg>
