<svg width="55" height="14" viewBox="0 0 55 14" fill="none" xmlns="http://www.w3.org/2000/svg">
<path id="Masage" d="M9.906 0.298V10H8.632V2.258L5.538 10H4.404L1.296 2.286V10H0.0220001V0.298H1.548L4.992 8.446L8.38 0.298H9.906ZM15.0939 2.216C15.8405 2.216 16.4705 2.40267 16.9839 2.776C17.5065 3.14933 17.8705 3.64867 18.0759 4.274V2.314H19.3499V10H18.0759V8.04C17.8705 8.66533 17.5065 9.16467 16.9839 9.538C16.4705 9.91133 15.8405 10.098 15.0939 10.098C14.4125 10.098 13.8059 9.93933 13.2739 9.622C12.7419 9.30467 12.3219 8.852 12.0139 8.264C11.7152 7.66667 11.5659 6.96667 11.5659 6.164C11.5659 5.36133 11.7152 4.66133 12.0139 4.064C12.3219 3.46667 12.7419 3.00933 13.2739 2.692C13.8059 2.37467 14.4125 2.216 15.0939 2.216ZM15.4579 3.35C14.6739 3.35 14.0439 3.602 13.5679 4.106C13.1012 4.60067 12.8679 5.28667 12.8679 6.164C12.8679 7.04133 13.1012 7.732 13.5679 8.236C14.0439 8.73067 14.6739 8.978 15.4579 8.978C15.9619 8.978 16.4099 8.86133 16.8019 8.628C17.2032 8.39467 17.5159 8.068 17.7399 7.648C17.9639 7.21867 18.0759 6.724 18.0759 6.164C18.0759 5.604 17.9639 5.10933 17.7399 4.68C17.5159 4.25067 17.2032 3.924 16.8019 3.7C16.4099 3.46667 15.9619 3.35 15.4579 3.35ZM23.7855 2.216C24.6535 2.216 25.3488 2.44467 25.8715 2.902C26.4035 3.35 26.7255 3.95667 26.8375 4.722H25.6195C25.5635 4.26467 25.3721 3.89133 25.0455 3.602C24.7281 3.30333 24.2988 3.154 23.7575 3.154C23.3001 3.154 22.9408 3.266 22.6795 3.49C22.4275 3.70467 22.3015 3.99867 22.3015 4.372C22.3015 4.652 22.3855 4.88067 22.5535 5.058C22.7308 5.226 22.9455 5.35667 23.1975 5.45C23.4588 5.534 23.8135 5.62733 24.2615 5.73C24.8308 5.86067 25.2881 5.996 25.6335 6.136C25.9881 6.26667 26.2868 6.48133 26.5295 6.78C26.7815 7.07867 26.9075 7.48 26.9075 7.984C26.9075 8.60933 26.6695 9.118 26.1935 9.51C25.7268 9.902 25.1015 10.098 24.3175 10.098C23.4028 10.098 22.6561 9.87867 22.0775 9.44C21.4988 9.00133 21.1581 8.39 21.0555 7.606H22.2875C22.3341 8.07267 22.5348 8.45067 22.8895 8.74C23.2535 9.02933 23.7295 9.174 24.3175 9.174C24.7561 9.174 25.0968 9.062 25.3395 8.838C25.5915 8.614 25.7175 8.32 25.7175 7.956C25.7175 7.65733 25.6288 7.41933 25.4515 7.242C25.2741 7.06467 25.0548 6.92933 24.7935 6.836C24.5321 6.74267 24.1728 6.64467 23.7155 6.542C23.1461 6.41133 22.6888 6.28067 22.3435 6.15C22.0075 6.01933 21.7181 5.814 21.4755 5.534C21.2421 5.24467 21.1255 4.85733 21.1255 4.372C21.1255 3.728 21.3635 3.21 21.8395 2.818C22.3155 2.41667 22.9641 2.216 23.7855 2.216ZM31.7599 2.216C32.5066 2.216 33.1366 2.40267 33.6499 2.776C34.1726 3.14933 34.5366 3.64867 34.7419 4.274V2.314H36.0159V10H34.7419V8.04C34.5366 8.66533 34.1726 9.16467 33.6499 9.538C33.1366 9.91133 32.5066 10.098 31.7599 10.098C31.0786 10.098 30.4719 9.93933 29.9399 9.622C29.4079 9.30467 28.9879 8.852 28.6799 8.264C28.3812 7.66667 28.2319 6.96667 28.2319 6.164C28.2319 5.36133 28.3812 4.66133 28.6799 4.064C28.9879 3.46667 29.4079 3.00933 29.9399 2.692C30.4719 2.37467 31.0786 2.216 31.7599 2.216ZM32.1239 3.35C31.3399 3.35 30.7099 3.602 30.2339 4.106C29.7672 4.60067 29.5339 5.28667 29.5339 6.164C29.5339 7.04133 29.7672 7.732 30.2339 8.236C30.7099 8.73067 31.3399 8.978 32.1239 8.978C32.6279 8.978 33.0759 8.86133 33.4679 8.628C33.8692 8.39467 34.1819 8.068 34.4059 7.648C34.6299 7.21867 34.7419 6.724 34.7419 6.164C34.7419 5.604 34.6299 5.10933 34.4059 4.68C34.1819 4.25067 33.8692 3.924 33.4679 3.7C33.0759 3.46667 32.6279 3.35 32.1239 3.35ZM41.1935 2.216C41.9402 2.216 42.5702 2.40267 43.0835 2.776C43.6062 3.14933 43.9702 3.64867 44.1755 4.274V2.314H45.4495V10.126C45.4495 10.8353 45.3002 11.4653 45.0015 12.016C44.7028 12.5667 44.2828 12.996 43.7415 13.304C43.2002 13.612 42.5702 13.766 41.8515 13.766C40.8155 13.766 39.9708 13.514 39.3175 13.01C38.6642 12.5153 38.2488 11.8433 38.0715 10.994H39.3315C39.4808 11.5073 39.7608 11.9087 40.1715 12.198C40.5915 12.4967 41.1282 12.646 41.7815 12.646C42.4722 12.646 43.0415 12.422 43.4895 11.974C43.9468 11.5353 44.1755 10.9193 44.1755 10.126V8.04C43.9702 8.66533 43.6062 9.16467 43.0835 9.538C42.5702 9.91133 41.9402 10.098 41.1935 10.098C40.5122 10.098 39.9055 9.93933 39.3735 9.622C38.8415 9.30467 38.4215 8.852 38.1135 8.264C37.8148 7.66667 37.6655 6.96667 37.6655 6.164C37.6655 5.36133 37.8148 4.66133 38.1135 4.064C38.4215 3.46667 38.8415 3.00933 39.3735 2.692C39.9055 2.37467 40.5122 2.216 41.1935 2.216ZM41.5575 3.35C40.7735 3.35 40.1435 3.602 39.6675 4.106C39.2008 4.60067 38.9675 5.28667 38.9675 6.164C38.9675 7.04133 39.2008 7.732 39.6675 8.236C40.1435 8.73067 40.7735 8.978 41.5575 8.978C42.0615 8.978 42.5095 8.86133 42.9015 8.628C43.3028 8.39467 43.6155 8.068 43.8395 7.648C44.0635 7.21867 44.1755 6.724 44.1755 6.164C44.1755 5.604 44.0635 5.10933 43.8395 4.68C43.6155 4.25067 43.3028 3.924 42.9015 3.7C42.5095 3.46667 42.0615 3.35 41.5575 3.35ZM54.5471 5.73C54.5471 6.00067 54.5284 6.234 54.4911 6.43H48.3451C48.3731 7.30733 48.6204 7.96533 49.0871 8.404C49.5631 8.84267 50.1417 9.062 50.8231 9.062C51.4391 9.062 51.9524 8.908 52.3631 8.6C52.7831 8.28267 53.0397 7.86267 53.1331 7.34H54.4911C54.3977 7.872 54.1877 8.348 53.8611 8.768C53.5437 9.188 53.1284 9.51467 52.6151 9.748C52.1017 9.98133 51.5231 10.098 50.8791 10.098C50.1417 10.098 49.4884 9.93933 48.9191 9.622C48.3497 9.30467 47.9017 8.852 47.5751 8.264C47.2577 7.66667 47.0991 6.96667 47.0991 6.164C47.0991 5.36133 47.2577 4.66133 47.5751 4.064C47.9017 3.46667 48.3497 3.00933 48.9191 2.692C49.4884 2.37467 50.1417 2.216 50.8791 2.216C51.6257 2.216 52.2744 2.37467 52.8251 2.692C53.3851 3.00933 53.8097 3.434 54.0991 3.966C54.3977 4.498 54.5471 5.086 54.5471 5.73ZM53.2591 5.814C53.2871 5.24467 53.1937 4.76867 52.9791 4.386C52.7644 4.00333 52.4704 3.71867 52.0971 3.532C51.7237 3.34533 51.3177 3.252 50.8791 3.252C50.1791 3.252 49.5911 3.47133 49.1151 3.91C48.6391 4.33933 48.3824 4.974 48.3451 5.814H53.2591Z" fill="#000"/>
</svg>
