<svg width="34" height="11" viewBox="0 0 34 11" fill="none" xmlns="http://www.w3.org/2000/svg">
<path id="More" d="M9.906 0.298V10H8.632V2.258L5.538 10H4.404L1.296 2.286V10H0.0220001V0.298H1.548L4.992 8.446L8.38 0.298H9.906ZM15.4299 2.216C16.1672 2.216 16.8252 2.37467 17.4039 2.692C17.9919 3.00933 18.4492 3.46667 18.7759 4.064C19.1119 4.66133 19.2799 5.36133 19.2799 6.164C19.2799 6.96667 19.1119 7.66667 18.7759 8.264C18.4492 8.852 17.9919 9.30467 17.4039 9.622C16.8252 9.93933 16.1672 10.098 15.4299 10.098C14.6925 10.098 14.0299 9.93933 13.4419 9.622C12.8632 9.30467 12.4059 8.852 12.0699 8.264C11.7339 7.66667 11.5659 6.96667 11.5659 6.164C11.5659 5.36133 11.7339 4.66133 12.0699 4.064C12.4059 3.46667 12.8632 3.00933 13.4419 2.692C14.0299 2.37467 14.6925 2.216 15.4299 2.216ZM15.4299 3.336C14.9725 3.336 14.5479 3.43867 14.1559 3.644C13.7732 3.84933 13.4605 4.16667 13.2179 4.596C12.9845 5.016 12.8679 5.53867 12.8679 6.164C12.8679 6.78 12.9845 7.30267 13.2179 7.732C13.4605 8.152 13.7732 8.46467 14.1559 8.67C14.5479 8.87533 14.9725 8.978 15.4299 8.978C15.8872 8.978 16.3072 8.87533 16.6899 8.67C17.0819 8.46467 17.3945 8.152 17.6279 7.732C17.8705 7.30267 17.9919 6.78 17.9919 6.164C17.9919 5.53867 17.8705 5.016 17.6279 4.596C17.3945 4.16667 17.0819 3.84933 16.6899 3.644C16.3072 3.43867 15.8872 3.336 15.4299 3.336ZM22.214 3.868C22.466 3.336 22.8346 2.92533 23.32 2.636C23.8053 2.33733 24.384 2.188 25.056 2.188V3.574H24.664C23.9453 3.574 23.3573 3.76067 22.9 4.134C22.4426 4.498 22.214 5.10467 22.214 5.954V10H20.94V2.314H22.214V3.868ZM33.383 5.73C33.383 6.00067 33.3643 6.234 33.327 6.43H27.181C27.209 7.30733 27.4563 7.96533 27.923 8.404C28.399 8.84267 28.9777 9.062 29.659 9.062C30.275 9.062 30.7883 8.908 31.199 8.6C31.619 8.28267 31.8757 7.86267 31.969 7.34H33.327C33.2337 7.872 33.0237 8.348 32.697 8.768C32.3797 9.188 31.9643 9.51467 31.451 9.748C30.9377 9.98133 30.359 10.098 29.715 10.098C28.9777 10.098 28.3243 9.93933 27.755 9.622C27.1857 9.30467 26.7377 8.852 26.411 8.264C26.0937 7.66667 25.935 6.96667 25.935 6.164C25.935 5.36133 26.0937 4.66133 26.411 4.064C26.7377 3.46667 27.1857 3.00933 27.755 2.692C28.3243 2.37467 28.9777 2.216 29.715 2.216C30.4617 2.216 31.1103 2.37467 31.661 2.692C32.221 3.00933 32.6457 3.434 32.935 3.966C33.2337 4.498 33.383 5.086 33.383 5.73ZM32.095 5.814C32.123 5.24467 32.0297 4.76867 31.815 4.386C31.6003 4.00333 31.3063 3.71867 30.933 3.532C30.5597 3.34533 30.1537 3.252 29.715 3.252C29.015 3.252 28.427 3.47133 27.951 3.91C27.475 4.33933 27.2183 4.974 27.181 5.814H32.095Z" fill="#000"/>
</svg>
