<svg width="79" height="12" viewBox="0 0 79 12" fill="none" xmlns="http://www.w3.org/2000/svg">
<path id="Notification" d="M7.694 11H6.42L1.296 3.202V11H0.0220001V1.13H1.296L6.42 8.942V1.13H7.694V11ZM13.2287 3.216C13.966 3.216 14.624 3.37467 15.2027 3.692C15.7907 4.00933 16.248 4.46667 16.5747 5.064C16.9107 5.66133 17.0787 6.36133 17.0787 7.164C17.0787 7.96667 16.9107 8.66667 16.5747 9.264C16.248 9.852 15.7907 10.3047 15.2027 10.622C14.624 10.9393 13.966 11.098 13.2287 11.098C12.4914 11.098 11.8287 10.9393 11.2407 10.622C10.662 10.3047 10.2047 9.852 9.8687 9.264C9.5327 8.66667 9.3647 7.96667 9.3647 7.164C9.3647 6.36133 9.5327 5.66133 9.8687 5.064C10.2047 4.46667 10.662 4.00933 11.2407 3.692C11.8287 3.37467 12.4914 3.216 13.2287 3.216ZM13.2287 4.336C12.7714 4.336 12.3467 4.43867 11.9547 4.644C11.572 4.84933 11.2594 5.16667 11.0167 5.596C10.7834 6.016 10.6667 6.53867 10.6667 7.164C10.6667 7.78 10.7834 8.30267 11.0167 8.732C11.2594 9.152 11.572 9.46467 11.9547 9.67C12.3467 9.87533 12.7714 9.978 13.2287 9.978C13.686 9.978 14.106 9.87533 14.4887 9.67C14.8807 9.46467 15.1934 9.152 15.4267 8.732C15.6694 8.30267 15.7907 7.78 15.7907 7.164C15.7907 6.53867 15.6694 6.016 15.4267 5.596C15.1934 5.16667 14.8807 4.84933 14.4887 4.644C14.106 4.43867 13.686 4.336 13.2287 4.336ZM22.4068 9.88V11H21.4548C20.6708 11 20.0828 10.8133 19.6908 10.44C19.3081 10.0667 19.1168 9.44133 19.1168 8.564V4.42H17.9688V3.314H19.1168V1.396H20.4048V3.314H22.3928V4.42H20.4048V8.592C20.4048 9.08667 20.4935 9.42733 20.6708 9.614C20.8575 9.79133 21.1748 9.88 21.6228 9.88H22.4068ZM23.7375 1.06C23.7375 0.826666 23.8168 0.64 23.9755 0.499999C24.1341 0.350666 24.3441 0.276 24.6055 0.276C24.8668 0.276 25.0768 0.350666 25.2355 0.499999C25.3941 0.64 25.4735 0.826666 25.4735 1.06C25.4735 1.29333 25.3941 1.48467 25.2355 1.634C25.0768 1.774 24.8668 1.844 24.6055 1.844C24.3441 1.844 24.1341 1.774 23.9755 1.634C23.8168 1.48467 23.7375 1.29333 23.7375 1.06ZM25.2355 3.314V11H23.9615V3.314H25.2355ZM30.6857 1.494C30.0044 1.48467 29.5284 1.60133 29.2577 1.844C28.9964 2.08667 28.8657 2.50667 28.8657 3.104V3.314H30.6857V4.434H28.8657V11H27.5917V4.434H26.4857V3.314H27.5917V3.006C27.5917 1.16733 28.6231 0.29 30.6857 0.373999V1.494ZM31.8449 1.06C31.8449 0.826666 31.9242 0.64 32.0829 0.499999C32.2415 0.350666 32.4515 0.276 32.7129 0.276C32.9742 0.276 33.1842 0.350666 33.3429 0.499999C33.5015 0.64 33.5809 0.826666 33.5809 1.06C33.5809 1.29333 33.5015 1.48467 33.3429 1.634C33.1842 1.774 32.9742 1.844 32.7129 1.844C32.4515 1.844 32.2415 1.774 32.0829 1.634C31.9242 1.48467 31.8449 1.29333 31.8449 1.06ZM33.3429 3.314V11H32.0689V3.314H33.3429ZM38.7931 3.216C39.7731 3.216 40.5851 3.47733 41.2291 4C41.8731 4.52267 42.2698 5.22267 42.4191 6.1H41.0751C40.9818 5.54933 40.7251 5.12 40.3051 4.812C39.8945 4.49467 39.3811 4.336 38.7651 4.336C38.3171 4.336 37.9065 4.43867 37.5331 4.644C37.1691 4.84933 36.8751 5.16667 36.6511 5.596C36.4271 6.016 36.3151 6.53867 36.3151 7.164C36.3151 7.78933 36.4271 8.31667 36.6511 8.746C36.8751 9.166 37.1691 9.47867 37.5331 9.684C37.9065 9.88933 38.3171 9.992 38.7651 9.992C39.3811 9.992 39.8945 9.83333 40.3051 9.516C40.7251 9.19867 40.9818 8.76467 41.0751 8.214H42.4191C42.2698 9.10067 41.8731 9.80533 41.2291 10.328C40.5851 10.8413 39.7731 11.098 38.7931 11.098C38.0558 11.098 37.4025 10.9393 36.8331 10.622C36.2638 10.3047 35.8158 9.852 35.4891 9.264C35.1718 8.66667 35.0131 7.96667 35.0131 7.164C35.0131 6.36133 35.1718 5.66133 35.4891 5.064C35.8158 4.46667 36.2638 4.00933 36.8331 3.692C37.4025 3.37467 38.0558 3.216 38.7931 3.216ZM47.2365 3.216C47.9831 3.216 48.6131 3.40267 49.1265 3.776C49.6491 4.14933 50.0131 4.64867 50.2185 5.274V3.314H51.4925V11H50.2185V9.04C50.0131 9.66533 49.6491 10.1647 49.1265 10.538C48.6131 10.9113 47.9831 11.098 47.2365 11.098C46.5551 11.098 45.9485 10.9393 45.4165 10.622C44.8845 10.3047 44.4645 9.852 44.1565 9.264C43.8578 8.66667 43.7085 7.96667 43.7085 7.164C43.7085 6.36133 43.8578 5.66133 44.1565 5.064C44.4645 4.46667 44.8845 4.00933 45.4165 3.692C45.9485 3.37467 46.5551 3.216 47.2365 3.216ZM47.6005 4.35C46.8165 4.35 46.1865 4.602 45.7105 5.106C45.2438 5.60067 45.0105 6.28667 45.0105 7.164C45.0105 8.04133 45.2438 8.732 45.7105 9.236C46.1865 9.73067 46.8165 9.978 47.6005 9.978C48.1045 9.978 48.5525 9.86133 48.9445 9.628C49.3458 9.39467 49.6585 9.068 49.8825 8.648C50.1065 8.21867 50.2185 7.724 50.2185 7.164C50.2185 6.604 50.1065 6.10933 49.8825 5.68C49.6585 5.25067 49.3458 4.924 48.9445 4.7C48.5525 4.46667 48.1045 4.35 47.6005 4.35ZM57.188 9.88V11H56.236C55.452 11 54.864 10.8133 54.472 10.44C54.0894 10.0667 53.898 9.44133 53.898 8.564V4.42H52.75V3.314H53.898V1.396H55.186V3.314H57.174V4.42H55.186V8.592C55.186 9.08667 55.2747 9.42733 55.452 9.614C55.6387 9.79133 55.956 9.88 56.404 9.88H57.188ZM58.5187 1.06C58.5187 0.826666 58.598 0.64 58.7567 0.499999C58.9154 0.350666 59.1254 0.276 59.3867 0.276C59.648 0.276 59.858 0.350666 60.0167 0.499999C60.1754 0.64 60.2547 0.826666 60.2547 1.06C60.2547 1.29333 60.1754 1.48467 60.0167 1.634C59.858 1.774 59.648 1.844 59.3867 1.844C59.1254 1.844 58.9154 1.774 58.7567 1.634C58.598 1.48467 58.5187 1.29333 58.5187 1.06ZM60.0167 3.314V11H58.7427V3.314H60.0167ZM65.551 3.216C66.2883 3.216 66.9463 3.37467 67.525 3.692C68.113 4.00933 68.5703 4.46667 68.897 5.064C69.233 5.66133 69.401 6.36133 69.401 7.164C69.401 7.96667 69.233 8.66667 68.897 9.264C68.5703 9.852 68.113 10.3047 67.525 10.622C66.9463 10.9393 66.2883 11.098 65.551 11.098C64.8136 11.098 64.151 10.9393 63.563 10.622C62.9843 10.3047 62.527 9.852 62.191 9.264C61.855 8.66667 61.687 7.96667 61.687 7.164C61.687 6.36133 61.855 5.66133 62.191 5.064C62.527 4.46667 62.9843 4.00933 63.563 3.692C64.151 3.37467 64.8136 3.216 65.551 3.216ZM65.551 4.336C65.0936 4.336 64.669 4.43867 64.277 4.644C63.8943 4.84933 63.5816 5.16667 63.339 5.596C63.1056 6.016 62.989 6.53867 62.989 7.164C62.989 7.78 63.1056 8.30267 63.339 8.732C63.5816 9.152 63.8943 9.46467 64.277 9.67C64.669 9.87533 65.0936 9.978 65.551 9.978C66.0083 9.978 66.4283 9.87533 66.811 9.67C67.203 9.46467 67.5156 9.152 67.749 8.732C67.9916 8.30267 68.113 7.78 68.113 7.164C68.113 6.53867 67.9916 6.016 67.749 5.596C67.5156 5.16667 67.203 4.84933 66.811 4.644C66.4283 4.43867 66.0083 4.336 65.551 4.336ZM75.1071 3.188C76.0031 3.188 76.7264 3.47733 77.2771 4.056C77.8277 4.62533 78.1031 5.45133 78.1031 6.534V11H76.8291V6.646C76.8291 5.88067 76.6331 5.29267 76.2411 4.882C75.8491 4.47133 75.3171 4.266 74.6451 4.266C73.9451 4.266 73.3851 4.49467 72.9651 4.952C72.5451 5.4 72.3351 6.058 72.3351 6.926V11H71.0611V3.314H72.3351V5.134C72.5311 4.50867 72.8764 4.028 73.3711 3.692C73.8751 3.356 74.4537 3.188 75.1071 3.188Z" fill="#000"/>
</svg>
