<svg width="40" height="14" viewBox="0 0 40 14" fill="none" xmlns="http://www.w3.org/2000/svg">
<path id="Paper" d="M1.296 6.024V10H0.0220001V0.129999H3.158C4.28733 0.129999 5.132 0.396 5.692 0.928C6.252 1.45067 6.532 2.16933 6.532 3.084C6.532 4.008 6.24267 4.73133 5.664 5.254C5.08533 5.76733 4.25 6.024 3.158 6.024H1.296ZM3.046 4.96C3.82067 4.96 4.376 4.79667 4.712 4.47C5.05733 4.14333 5.23 3.68133 5.23 3.084C5.23 2.468 5.05733 2.00133 4.712 1.684C4.376 1.35733 3.82067 1.194 3.046 1.194H1.296V4.96H3.046ZM11.17 2.216C11.9167 2.216 12.5467 2.40267 13.06 2.776C13.5827 3.14933 13.9467 3.64867 14.152 4.274V2.314H15.426V10H14.152V8.04C13.9467 8.66533 13.5827 9.16467 13.06 9.538C12.5467 9.91133 11.9167 10.098 11.17 10.098C10.4887 10.098 9.88205 9.93933 9.35005 9.622C8.81805 9.30467 8.39805 8.852 8.09005 8.264C7.79138 7.66667 7.64205 6.96667 7.64205 6.164C7.64205 5.36133 7.79138 4.66133 8.09005 4.064C8.39805 3.46667 8.81805 3.00933 9.35005 2.692C9.88205 2.37467 10.4887 2.216 11.17 2.216ZM11.534 3.35C10.75 3.35 10.12 3.602 9.64405 4.106C9.17738 4.60067 8.94405 5.28667 8.94405 6.164C8.94405 7.04133 9.17738 7.732 9.64405 8.236C10.12 8.73067 10.75 8.978 11.534 8.978C12.038 8.978 12.486 8.86133 12.878 8.628C13.2794 8.39467 13.592 8.068 13.816 7.648C14.04 7.21867 14.152 6.724 14.152 6.164C14.152 5.604 14.04 5.10933 13.816 4.68C13.592 4.25067 13.2794 3.924 12.878 3.7C12.486 3.46667 12.038 3.35 11.534 3.35ZM21.6956 2.216C22.377 2.216 22.9836 2.37467 23.5156 2.692C24.0476 3.00933 24.463 3.46667 24.7616 4.064C25.0696 4.66133 25.2236 5.36133 25.2236 6.164C25.2236 6.96667 25.0696 7.66667 24.7616 8.264C24.463 8.852 24.0476 9.30467 23.5156 9.622C22.9836 9.93933 22.377 10.098 21.6956 10.098C20.949 10.098 20.3143 9.91133 19.7916 9.538C19.2783 9.15533 18.9236 8.656 18.7276 8.04V13.64H17.4536V2.314H18.7276V4.274C18.9236 3.658 19.2783 3.16333 19.7916 2.79C20.3143 2.40733 20.949 2.216 21.6956 2.216ZM21.3316 3.35C20.837 3.35 20.389 3.46667 19.9876 3.7C19.5863 3.924 19.2736 4.25067 19.0496 4.68C18.8256 5.10933 18.7136 5.604 18.7136 6.164C18.7136 6.724 18.8256 7.21867 19.0496 7.648C19.2736 8.068 19.5863 8.39467 19.9876 8.628C20.389 8.86133 20.837 8.978 21.3316 8.978C22.125 8.978 22.755 8.73067 23.2216 8.236C23.6976 7.732 23.9356 7.04133 23.9356 6.164C23.9356 5.28667 23.6976 4.60067 23.2216 4.106C22.755 3.602 22.125 3.35 21.3316 3.35ZM33.9572 5.73C33.9572 6.00067 33.9386 6.234 33.9012 6.43H27.7552C27.7832 7.30733 28.0306 7.96533 28.4972 8.404C28.9732 8.84267 29.5519 9.062 30.2332 9.062C30.8492 9.062 31.3626 8.908 31.7732 8.6C32.1932 8.28267 32.4499 7.86267 32.5432 7.34H33.9012C33.8079 7.872 33.5979 8.348 33.2712 8.768C32.9539 9.188 32.5386 9.51467 32.0252 9.748C31.5119 9.98133 30.9332 10.098 30.2892 10.098C29.5519 10.098 28.8986 9.93933 28.3292 9.622C27.7599 9.30467 27.3119 8.852 26.9852 8.264C26.6679 7.66667 26.5092 6.96667 26.5092 6.164C26.5092 5.36133 26.6679 4.66133 26.9852 4.064C27.3119 3.46667 27.7599 3.00933 28.3292 2.692C28.8986 2.37467 29.5519 2.216 30.2892 2.216C31.0359 2.216 31.6846 2.37467 32.2352 2.692C32.7952 3.00933 33.2199 3.434 33.5092 3.966C33.8079 4.498 33.9572 5.086 33.9572 5.73ZM32.6692 5.814C32.6972 5.24467 32.6039 4.76867 32.3892 4.386C32.1746 4.00333 31.8806 3.71867 31.5072 3.532C31.1339 3.34533 30.7279 3.252 30.2892 3.252C29.5892 3.252 29.0012 3.47133 28.5252 3.91C28.0492 4.33933 27.7926 4.974 27.7552 5.814H32.6692ZM36.8976 3.868C37.1496 3.336 37.5182 2.92533 38.0036 2.636C38.4889 2.33733 39.0676 2.188 39.7396 2.188V3.574H39.3476C38.6289 3.574 38.0409 3.76067 37.5836 4.134C37.1262 4.498 36.8976 5.10467 36.8976 5.954V10H35.6236V2.314H36.8976V3.868Z" fill="#000"/>
</svg>
