<svg width="30" height="11" viewBox="0 0 30 11" fill="none" xmlns="http://www.w3.org/2000/svg">
<path id="Print" d="M1.296 7.024V11H0.0220001V1.13H3.158C4.28733 1.13 5.132 1.396 5.692 1.928C6.252 2.45067 6.532 3.16933 6.532 4.084C6.532 5.008 6.24267 5.73133 5.664 6.254C5.08533 6.76733 4.25 7.024 3.158 7.024H1.296ZM3.046 5.96C3.82067 5.96 4.376 5.79667 4.712 5.47C5.05733 5.14333 5.23 4.68133 5.23 4.084C5.23 3.468 5.05733 3.00133 4.712 2.684C4.376 2.35733 3.82067 2.194 3.046 2.194H1.296V5.96H3.046ZM9.29405 4.868C9.54605 4.336 9.91471 3.92533 10.4 3.636C10.8854 3.33733 11.464 3.188 12.136 3.188V4.574H11.744C11.0254 4.574 10.4374 4.76067 9.98005 5.134C9.52271 5.498 9.29405 6.10467 9.29405 6.954V11H8.02005V3.314H9.29405V4.868ZM13.1691 1.06C13.1691 0.826666 13.2484 0.64 13.4071 0.499999C13.5658 0.350666 13.7758 0.276 14.0371 0.276C14.2984 0.276 14.5084 0.350666 14.6671 0.499999C14.8258 0.64 14.9051 0.826666 14.9051 1.06C14.9051 1.29333 14.8258 1.48467 14.6671 1.634C14.5084 1.774 14.2984 1.844 14.0371 1.844C13.7758 1.844 13.5658 1.774 13.4071 1.634C13.2484 1.48467 13.1691 1.29333 13.1691 1.06ZM14.6671 3.314V11H13.3931V3.314H14.6671ZM20.7614 3.188C21.6574 3.188 22.3807 3.47733 22.9314 4.056C23.482 4.62533 23.7574 5.45133 23.7574 6.534V11H22.4834V6.646C22.4834 5.88067 22.2874 5.29267 21.8954 4.882C21.5034 4.47133 20.9714 4.266 20.2994 4.266C19.5994 4.266 19.0394 4.49467 18.6194 4.952C18.1994 5.4 17.9894 6.058 17.9894 6.926V11H16.7154V3.314H17.9894V5.134C18.1854 4.50867 18.5307 4.028 19.0254 3.692C19.5294 3.356 20.108 3.188 20.7614 3.188ZM29.3795 9.88V11H28.4275C27.6435 11 27.0555 10.8133 26.6635 10.44C26.2808 10.0667 26.0895 9.44133 26.0895 8.564V4.42H24.9415V3.314H26.0895V1.396H27.3775V3.314H29.3655V4.42H27.3775V8.592C27.3775 9.08667 27.4661 9.42733 27.6435 9.614C27.8301 9.79133 28.1475 9.88 28.5955 9.88H29.3795Z" fill="#000"/>
</svg>
