<svg width="40" height="20" viewBox="0 0 40 20" fill="none" xmlns="http://www.w3.org/2000/svg">
<path d="M22.5 3.33333C22.96 3.33333 23.3333 3.70667 23.3333 4.16667V15.8333C23.3333 16.2933 22.96 16.6667 22.5 16.6667H4.16667C3.70667 16.6667 3.33333 16.2933 3.33333 15.8333V4.16667C3.33333 3.70667 3.70667 3.33333 4.16667 3.33333H22.5ZM26.6667 3.33333C26.6667 1.49333 25.1733 0 23.3333 0H3.33333C1.49333 0 0 1.49333 0 3.33333V16.6667C0 18.5067 1.49333 20 3.33333 20H23.3333C25.1733 20 26.6667 18.5067 26.6667 16.6667V3.33333ZM36.6667 6.42333V13.5783L33.3333 11.2317V8.76833L36.6667 6.42333ZM40 0L30 7.03833V12.9617L40 20V0V0Z" fill="#000"/>
</svg>
