<svg width="60" height="60" viewBox="0 0 60 60" fill="none" xmlns="http://www.w3.org/2000/svg">
<path d="M30 5C28.78 5 27.66 5.665 27.08 6.7325L18.9825 21.06L14.595 18.66L22.6875 4.34C24.145 1.665 26.9525 0 30 0C33.0475 0 35.855 1.665 37.3125 4.34L44.6275 17.295L49.1575 14.8175L46.1725 25L35.995 22.02L40.24 19.6975L32.96 6.8C32.34 5.665 31.22 5 30 5ZM5.47 48.375C4.8725 47.3675 4.8475 46.1025 5.3725 45.1425L12.8125 31.98L17.3375 34.455L14.35 24.2725L4.1725 27.2525L8.4225 29.5775L1.0175 42.68C0.34 43.925 0 45.2975 0 46.6675C0 51.28 3.7425 55 8.3325 55H25V50H8.3325C7.1625 50 6.065 49.375 5.47 48.375ZM58.9825 42.68L51.1425 28.8225L46.755 31.2225L54.5925 45.0775C55.155 46.1025 55.13 47.3675 54.535 48.37C53.935 49.375 52.8375 50 51.6675 50H37.5V45L30 52.5L37.5 60V55H51.6675C56.26 55 60 51.2775 60 46.6675C60 45.2975 59.66 43.925 58.9825 42.68Z" fill="#000"/>
</svg>
