<svg width="49" height="12" viewBox="0 0 49 12" fill="none" xmlns="http://www.w3.org/2000/svg">
<path id="Search" d="M7.266 8.438C7.266 8.90467 7.154 9.33867 6.93 9.74C6.706 10.1413 6.36533 10.468 5.908 10.72C5.45067 10.972 4.886 11.098 4.214 11.098C3.56067 11.098 2.97733 10.9813 2.464 10.748C1.96 10.5053 1.554 10.1787 1.246 9.768C0.947333 9.348 0.774667 8.872 0.728 8.34H2.086C2.114 8.62 2.20733 8.89533 2.366 9.166C2.534 9.42733 2.76733 9.64667 3.066 9.824C3.374 9.992 3.74267 10.076 4.172 10.076C4.732 10.076 5.16133 9.92667 5.46 9.628C5.75867 9.32933 5.908 8.94667 5.908 8.48C5.908 8.07867 5.80067 7.752 5.586 7.5C5.38067 7.248 5.124 7.052 4.816 6.912C4.508 6.76267 4.088 6.604 3.556 6.436C2.93067 6.23067 2.42667 6.03933 2.044 5.862C1.67067 5.67533 1.34867 5.4 1.078 5.036C0.816667 4.672 0.686 4.19133 0.686 3.594C0.686 3.08067 0.807333 2.628 1.05 2.236C1.302 1.844 1.65667 1.54067 2.114 1.326C2.58067 1.11133 3.12667 1.004 3.752 1.004C4.72267 1.004 5.49267 1.242 6.062 1.718C6.63133 2.18467 6.96267 2.782 7.056 3.51H5.684C5.60933 3.118 5.40867 2.77267 5.082 2.474C4.75533 2.17533 4.312 2.026 3.752 2.026C3.23867 2.026 2.828 2.16133 2.52 2.432C2.212 2.69333 2.058 3.06667 2.058 3.552C2.058 3.93467 2.156 4.24733 2.352 4.49C2.55733 4.72333 2.80933 4.91 3.108 5.05C3.40667 5.18067 3.81733 5.33 4.34 5.498C4.97467 5.70333 5.48333 5.89933 5.866 6.086C6.258 6.27267 6.58933 6.55733 6.86 6.94C7.13067 7.31333 7.266 7.81267 7.266 8.438ZM16.049 6.73C16.049 7.00067 16.0304 7.234 15.993 7.43H9.84703C9.87503 8.30733 10.1224 8.96533 10.589 9.404C11.065 9.84267 11.6437 10.062 12.325 10.062C12.941 10.062 13.4544 9.908 13.865 9.6C14.285 9.28267 14.5417 8.86267 14.635 8.34H15.993C15.8997 8.872 15.6897 9.348 15.363 9.768C15.0457 10.188 14.6304 10.5147 14.117 10.748C13.6037 10.9813 13.025 11.098 12.381 11.098C11.6437 11.098 10.9904 10.9393 10.421 10.622C9.8517 10.3047 9.4037 9.852 9.07703 9.264C8.7597 8.66667 8.60103 7.96667 8.60103 7.164C8.60103 6.36133 8.7597 5.66133 9.07703 5.064C9.4037 4.46667 9.8517 4.00933 10.421 3.692C10.9904 3.37467 11.6437 3.216 12.381 3.216C13.1277 3.216 13.7764 3.37467 14.327 3.692C14.887 4.00933 15.3117 4.434 15.601 4.966C15.8997 5.498 16.049 6.086 16.049 6.73ZM14.761 6.814C14.789 6.24467 14.6957 5.76867 14.481 5.386C14.2664 5.00333 13.9724 4.71867 13.599 4.532C13.2257 4.34533 12.8197 4.252 12.381 4.252C11.681 4.252 11.093 4.47133 10.617 4.91C10.141 5.33933 9.88436 5.974 9.84703 6.814H14.761ZM20.8654 3.216C21.612 3.216 22.242 3.40267 22.7554 3.776C23.278 4.14933 23.642 4.64867 23.8474 5.274V3.314H25.1214V11H23.8474V9.04C23.642 9.66533 23.278 10.1647 22.7554 10.538C22.242 10.9113 21.612 11.098 20.8654 11.098C20.184 11.098 19.5774 10.9393 19.0454 10.622C18.5134 10.3047 18.0934 9.852 17.7854 9.264C17.4867 8.66667 17.3374 7.96667 17.3374 7.164C17.3374 6.36133 17.4867 5.66133 17.7854 5.064C18.0934 4.46667 18.5134 4.00933 19.0454 3.692C19.5774 3.37467 20.184 3.216 20.8654 3.216ZM21.2294 4.35C20.4454 4.35 19.8154 4.602 19.3394 5.106C18.8727 5.60067 18.6394 6.28667 18.6394 7.164C18.6394 8.04133 18.8727 8.732 19.3394 9.236C19.8154 9.73067 20.4454 9.978 21.2294 9.978C21.7334 9.978 22.1814 9.86133 22.5734 9.628C22.9747 9.39467 23.2874 9.068 23.5114 8.648C23.7354 8.21867 23.8474 7.724 23.8474 7.164C23.8474 6.604 23.7354 6.10933 23.5114 5.68C23.2874 5.25067 22.9747 4.924 22.5734 4.7C22.1814 4.46667 21.7334 4.35 21.2294 4.35ZM28.423 4.868C28.675 4.336 29.0436 3.92533 29.529 3.636C30.0143 3.33733 30.593 3.188 31.265 3.188V4.574H30.873C30.1543 4.574 29.5663 4.76067 29.109 5.134C28.6516 5.498 28.423 6.10467 28.423 6.954V11H27.149V3.314H28.423V4.868ZM35.924 3.216C36.904 3.216 37.716 3.47733 38.36 4C39.004 4.52267 39.4007 5.22267 39.55 6.1H38.206C38.1127 5.54933 37.856 5.12 37.436 4.812C37.0253 4.49467 36.512 4.336 35.896 4.336C35.448 4.336 35.0373 4.43867 34.664 4.644C34.3 4.84933 34.006 5.16667 33.782 5.596C33.558 6.016 33.446 6.53867 33.446 7.164C33.446 7.78933 33.558 8.31667 33.782 8.746C34.006 9.166 34.3 9.47867 34.664 9.684C35.0373 9.88933 35.448 9.992 35.896 9.992C36.512 9.992 37.0253 9.83333 37.436 9.516C37.856 9.19867 38.1127 8.76467 38.206 8.214H39.55C39.4007 9.10067 39.004 9.80533 38.36 10.328C37.716 10.8413 36.904 11.098 35.924 11.098C35.1867 11.098 34.5333 10.9393 33.964 10.622C33.3947 10.3047 32.9467 9.852 32.62 9.264C32.3027 8.66667 32.144 7.96667 32.144 7.164C32.144 6.36133 32.3027 5.66133 32.62 5.064C32.9467 4.46667 33.3947 4.00933 33.964 3.692C34.5333 3.37467 35.1867 3.216 35.924 3.216ZM45.2633 3.188C46.1593 3.188 46.8826 3.47733 47.4333 4.056C47.984 4.62533 48.2593 5.45133 48.2593 6.534V11H46.9853V6.646C46.9853 5.88067 46.7893 5.29267 46.3973 4.882C46.0053 4.47133 45.4733 4.266 44.8013 4.266C44.1013 4.266 43.5413 4.49467 43.1213 4.952C42.7013 5.4 42.4913 6.058 42.4913 6.926V11H41.2173V0.64H42.4913V5.134C42.6873 4.50867 43.0326 4.028 43.5273 3.692C44.0313 3.356 44.61 3.188 45.2633 3.188Z" fill="#000"/>
</svg>
