<svg width="48" height="15" viewBox="0 0 48 15" fill="none" xmlns="http://www.w3.org/2000/svg">
<path id="Setting" d="M7.266 8.438C7.266 8.90467 7.154 9.33867 6.93 9.74C6.706 10.1413 6.36533 10.468 5.908 10.72C5.45067 10.972 4.886 11.098 4.214 11.098C3.56067 11.098 2.97733 10.9813 2.464 10.748C1.96 10.5053 1.554 10.1787 1.246 9.768C0.947333 9.348 0.774667 8.872 0.728 8.34H2.086C2.114 8.62 2.20733 8.89533 2.366 9.166C2.534 9.42733 2.76733 9.64667 3.066 9.824C3.374 9.992 3.74267 10.076 4.172 10.076C4.732 10.076 5.16133 9.92667 5.46 9.628C5.75867 9.32933 5.908 8.94667 5.908 8.48C5.908 8.07867 5.80067 7.752 5.586 7.5C5.38067 7.248 5.124 7.052 4.816 6.912C4.508 6.76267 4.088 6.604 3.556 6.436C2.93067 6.23067 2.42667 6.03933 2.044 5.862C1.67067 5.67533 1.34867 5.4 1.078 5.036C0.816667 4.672 0.686 4.19133 0.686 3.594C0.686 3.08067 0.807333 2.628 1.05 2.236C1.302 1.844 1.65667 1.54067 2.114 1.326C2.58067 1.11133 3.12667 1.004 3.752 1.004C4.72267 1.004 5.49267 1.242 6.062 1.718C6.63133 2.18467 6.96267 2.782 7.056 3.51H5.684C5.60933 3.118 5.40867 2.77267 5.082 2.474C4.75533 2.17533 4.312 2.026 3.752 2.026C3.23867 2.026 2.828 2.16133 2.52 2.432C2.212 2.69333 2.058 3.06667 2.058 3.552C2.058 3.93467 2.156 4.24733 2.352 4.49C2.55733 4.72333 2.80933 4.91 3.108 5.05C3.40667 5.18067 3.81733 5.33 4.34 5.498C4.97467 5.70333 5.48333 5.89933 5.866 6.086C6.258 6.27267 6.58933 6.55733 6.86 6.94C7.13067 7.31333 7.266 7.81267 7.266 8.438ZM16.049 6.73C16.049 7.00067 16.0304 7.234 15.993 7.43H9.84703C9.87503 8.30733 10.1224 8.96533 10.589 9.404C11.065 9.84267 11.6437 10.062 12.325 10.062C12.941 10.062 13.4544 9.908 13.865 9.6C14.285 9.28267 14.5417 8.86267 14.635 8.34H15.993C15.8997 8.872 15.6897 9.348 15.363 9.768C15.0457 10.188 14.6304 10.5147 14.117 10.748C13.6037 10.9813 13.025 11.098 12.381 11.098C11.6437 11.098 10.9904 10.9393 10.421 10.622C9.8517 10.3047 9.4037 9.852 9.07703 9.264C8.7597 8.66667 8.60103 7.96667 8.60103 7.164C8.60103 6.36133 8.7597 5.66133 9.07703 5.064C9.4037 4.46667 9.8517 4.00933 10.421 3.692C10.9904 3.37467 11.6437 3.216 12.381 3.216C13.1277 3.216 13.7764 3.37467 14.327 3.692C14.887 4.00933 15.3117 4.434 15.601 4.966C15.8997 5.498 16.049 6.086 16.049 6.73ZM14.761 6.814C14.789 6.24467 14.6957 5.76867 14.481 5.386C14.2664 5.00333 13.9724 4.71867 13.599 4.532C13.2257 4.34533 12.8197 4.252 12.381 4.252C11.681 4.252 11.093 4.47133 10.617 4.91C10.141 5.33933 9.88436 5.974 9.84703 6.814H14.761ZM21.3834 9.88V11H20.4314C19.6474 11 19.0594 10.8133 18.6674 10.44C18.2847 10.0667 18.0934 9.44133 18.0934 8.564V4.42H16.9454V3.314H18.0934V1.396H19.3814V3.314H21.3694V4.42H19.3814V8.592C19.3814 9.08667 19.47 9.42733 19.6474 9.614C19.834 9.79133 20.1514 9.88 20.5994 9.88H21.3834ZM26.606 9.88V11H25.654C24.87 11 24.282 10.8133 23.89 10.44C23.5073 10.0667 23.316 9.44133 23.316 8.564V4.42H22.168V3.314H23.316V1.396H24.604V3.314H26.592V4.42H24.604V8.592C24.604 9.08667 24.6927 9.42733 24.87 9.614C25.0567 9.79133 25.374 9.88 25.822 9.88H26.606ZM27.9367 1.06C27.9367 0.826666 28.016 0.64 28.1747 0.499999C28.3333 0.350666 28.5433 0.276 28.8047 0.276C29.066 0.276 29.276 0.350666 29.4347 0.499999C29.5933 0.64 29.6727 0.826666 29.6727 1.06C29.6727 1.29333 29.5933 1.48467 29.4347 1.634C29.276 1.774 29.066 1.844 28.8047 1.844C28.5433 1.844 28.3333 1.774 28.1747 1.634C28.016 1.48467 27.9367 1.29333 27.9367 1.06ZM29.4347 3.314V11H28.1607V3.314H29.4347ZM35.5289 3.188C36.4249 3.188 37.1483 3.47733 37.6989 4.056C38.2496 4.62533 38.5249 5.45133 38.5249 6.534V11H37.2509V6.646C37.2509 5.88067 37.0549 5.29267 36.6629 4.882C36.2709 4.47133 35.7389 4.266 35.0669 4.266C34.3669 4.266 33.8069 4.49467 33.3869 4.952C32.9669 5.4 32.7569 6.058 32.7569 6.926V11H31.4829V3.314H32.7569V5.134C32.9529 4.50867 33.2983 4.028 33.7929 3.692C34.2969 3.356 34.8756 3.188 35.5289 3.188ZM43.629 3.216C44.3757 3.216 45.0057 3.40267 45.519 3.776C46.0417 4.14933 46.4057 4.64867 46.611 5.274V3.314H47.885V11.126C47.885 11.8353 47.7357 12.4653 47.437 13.016C47.1384 13.5667 46.7184 13.996 46.177 14.304C45.6357 14.612 45.0057 14.766 44.287 14.766C43.251 14.766 42.4064 14.514 41.753 14.01C41.0997 13.5153 40.6844 12.8433 40.507 11.994H41.767C41.9164 12.5073 42.1964 12.9087 42.607 13.198C43.027 13.4967 43.5637 13.646 44.217 13.646C44.9077 13.646 45.477 13.422 45.925 12.974C46.3824 12.5353 46.611 11.9193 46.611 11.126V9.04C46.4057 9.66533 46.0417 10.1647 45.519 10.538C45.0057 10.9113 44.3757 11.098 43.629 11.098C42.9477 11.098 42.341 10.9393 41.809 10.622C41.277 10.3047 40.857 9.852 40.549 9.264C40.2504 8.66667 40.101 7.96667 40.101 7.164C40.101 6.36133 40.2504 5.66133 40.549 5.064C40.857 4.46667 41.277 4.00933 41.809 3.692C42.341 3.37467 42.9477 3.216 43.629 3.216ZM43.993 4.35C43.209 4.35 42.579 4.602 42.103 5.106C41.6364 5.60067 41.403 6.28667 41.403 7.164C41.403 8.04133 41.6364 8.732 42.103 9.236C42.579 9.73067 43.209 9.978 43.993 9.978C44.497 9.978 44.945 9.86133 45.337 9.628C45.7384 9.39467 46.051 9.068 46.275 8.648C46.499 8.21867 46.611 7.724 46.611 7.164C46.611 6.604 46.499 6.10933 46.275 5.68C46.051 5.25067 45.7384 4.924 45.337 4.7C44.945 4.46667 44.497 4.35 43.993 4.35Z" fill="#000"/>
</svg>
