<svg width="64" height="12" viewBox="0 0 64 12" fill="none" xmlns="http://www.w3.org/2000/svg">
<path id="Sort Filter" d="M7.266 8.438C7.266 8.90467 7.154 9.33867 6.93 9.74C6.706 10.1413 6.36533 10.468 5.908 10.72C5.45067 10.972 4.886 11.098 4.214 11.098C3.56067 11.098 2.97733 10.9813 2.464 10.748C1.96 10.5053 1.554 10.1787 1.246 9.768C0.947333 9.348 0.774667 8.872 0.728 8.34H2.086C2.114 8.62 2.20733 8.89533 2.366 9.166C2.534 9.42733 2.76733 9.64667 3.066 9.824C3.374 9.992 3.74267 10.076 4.172 10.076C4.732 10.076 5.16133 9.92667 5.46 9.628C5.75867 9.32933 5.908 8.94667 5.908 8.48C5.908 8.07867 5.80067 7.752 5.586 7.5C5.38067 7.248 5.124 7.052 4.816 6.912C4.508 6.76267 4.088 6.604 3.556 6.436C2.93067 6.23067 2.42667 6.03933 2.044 5.862C1.67067 5.67533 1.34867 5.4 1.078 5.036C0.816667 4.672 0.686 4.19133 0.686 3.594C0.686 3.08067 0.807333 2.628 1.05 2.236C1.302 1.844 1.65667 1.54067 2.114 1.326C2.58067 1.11133 3.12667 1.004 3.752 1.004C4.72267 1.004 5.49267 1.242 6.062 1.718C6.63133 2.18467 6.96267 2.782 7.056 3.51H5.684C5.60933 3.118 5.40867 2.77267 5.082 2.474C4.75533 2.17533 4.312 2.026 3.752 2.026C3.23867 2.026 2.828 2.16133 2.52 2.432C2.212 2.69333 2.058 3.06667 2.058 3.552C2.058 3.93467 2.156 4.24733 2.352 4.49C2.55733 4.72333 2.80933 4.91 3.108 5.05C3.40667 5.18067 3.81733 5.33 4.34 5.498C4.97467 5.70333 5.48333 5.89933 5.866 6.086C6.258 6.27267 6.58933 6.55733 6.86 6.94C7.13067 7.31333 7.266 7.81267 7.266 8.438ZM12.465 3.216C13.2024 3.216 13.8604 3.37467 14.439 3.692C15.027 4.00933 15.4844 4.46667 15.811 5.064C16.147 5.66133 16.315 6.36133 16.315 7.164C16.315 7.96667 16.147 8.66667 15.811 9.264C15.4844 9.852 15.027 10.3047 14.439 10.622C13.8604 10.9393 13.2024 11.098 12.465 11.098C11.7277 11.098 11.065 10.9393 10.477 10.622C9.89836 10.3047 9.44103 9.852 9.10503 9.264C8.76903 8.66667 8.60103 7.96667 8.60103 7.164C8.60103 6.36133 8.76903 5.66133 9.10503 5.064C9.44103 4.46667 9.89836 4.00933 10.477 3.692C11.065 3.37467 11.7277 3.216 12.465 3.216ZM12.465 4.336C12.0077 4.336 11.583 4.43867 11.191 4.644C10.8084 4.84933 10.4957 5.16667 10.253 5.596C10.0197 6.016 9.90303 6.53867 9.90303 7.164C9.90303 7.78 10.0197 8.30267 10.253 8.732C10.4957 9.152 10.8084 9.46467 11.191 9.67C11.583 9.87533 12.0077 9.978 12.465 9.978C12.9224 9.978 13.3424 9.87533 13.725 9.67C14.117 9.46467 14.4297 9.152 14.663 8.732C14.9057 8.30267 15.027 7.78 15.027 7.164C15.027 6.53867 14.9057 6.016 14.663 5.596C14.4297 5.16667 14.117 4.84933 13.725 4.644C13.3424 4.43867 12.9224 4.336 12.465 4.336ZM19.2491 4.868C19.5011 4.336 19.8698 3.92533 20.3551 3.636C20.8405 3.33733 21.4191 3.188 22.0911 3.188V4.574H21.6991C20.9805 4.574 20.3925 4.76067 19.9351 5.134C19.4778 5.498 19.2491 6.10467 19.2491 6.954V11H17.9751V3.314H19.2491V4.868ZM27.0162 9.88V11H26.0642C25.2802 11 24.6922 10.8133 24.3002 10.44C23.9175 10.0667 23.7262 9.44133 23.7262 8.564V4.42H22.5782V3.314H23.7262V1.396H25.0142V3.314H27.0022V4.42H25.0142V8.592C25.0142 9.08667 25.1028 9.42733 25.2802 9.614C25.4668 9.79133 25.7842 9.88 26.2322 9.88H27.0162ZM37.6158 1.13V2.166H33.3038V5.582H36.9578V6.576H33.3038V11H32.0298V1.13H37.6158ZM38.9015 1.06C38.9015 0.826666 38.9808 0.64 39.1395 0.499999C39.2982 0.350666 39.5082 0.276 39.7695 0.276C40.0308 0.276 40.2408 0.350666 40.3995 0.499999C40.5582 0.64 40.6375 0.826666 40.6375 1.06C40.6375 1.29333 40.5582 1.48467 40.3995 1.634C40.2408 1.774 40.0308 1.844 39.7695 1.844C39.5082 1.844 39.2982 1.774 39.1395 1.634C38.9808 1.48467 38.9015 1.29333 38.9015 1.06ZM40.3995 3.314V11H39.1255V3.314H40.3995ZM43.7218 0.64V11H42.4478V0.64H43.7218ZM49.438 9.88V11H48.486C47.702 11 47.114 10.8133 46.722 10.44C46.3394 10.0667 46.148 9.44133 46.148 8.564V4.42H45V3.314H46.148V1.396H47.436V3.314H49.424V4.42H47.436V8.592C47.436 9.08667 47.5247 9.42733 47.702 9.614C47.8887 9.79133 48.206 9.88 48.654 9.88H49.438ZM58.0627 6.73C58.0627 7.00067 58.044 7.234 58.0067 7.43H51.8607C51.8887 8.30733 52.136 8.96533 52.6027 9.404C53.0787 9.84267 53.6574 10.062 54.3387 10.062C54.9547 10.062 55.468 9.908 55.8787 9.6C56.2987 9.28267 56.5554 8.86267 56.6487 8.34H58.0067C57.9134 8.872 57.7034 9.348 57.3767 9.768C57.0594 10.188 56.644 10.5147 56.1307 10.748C55.6174 10.9813 55.0387 11.098 54.3947 11.098C53.6574 11.098 53.004 10.9393 52.4347 10.622C51.8654 10.3047 51.4174 9.852 51.0907 9.264C50.7734 8.66667 50.6147 7.96667 50.6147 7.164C50.6147 6.36133 50.7734 5.66133 51.0907 5.064C51.4174 4.46667 51.8654 4.00933 52.4347 3.692C53.004 3.37467 53.6574 3.216 54.3947 3.216C55.1414 3.216 55.79 3.37467 56.3407 3.692C56.9007 4.00933 57.3254 4.434 57.6147 4.966C57.9134 5.498 58.0627 6.086 58.0627 6.73ZM56.7747 6.814C56.8027 6.24467 56.7094 5.76867 56.4947 5.386C56.28 5.00333 55.986 4.71867 55.6127 4.532C55.2394 4.34533 54.8334 4.252 54.3947 4.252C53.6947 4.252 53.1067 4.47133 52.6307 4.91C52.1547 5.33933 51.898 5.974 51.8607 6.814H56.7747ZM61.003 4.868C61.255 4.336 61.6237 3.92533 62.109 3.636C62.5944 3.33733 63.173 3.188 63.845 3.188V4.574H63.453C62.7344 4.574 62.1464 4.76067 61.689 5.134C61.2317 5.498 61.003 6.10467 61.003 6.954V11H59.729V3.314H61.003V4.868Z" fill="#000"/>
</svg>
