<svg width="67" height="14" viewBox="0 0 67 14" fill="none" xmlns="http://www.w3.org/2000/svg">
<path id="Trasnport" d="M7.07 0.129999V1.166H4.284V10H3.01V1.166H0.224V0.129999H7.07ZM9.61045 3.868C9.86245 3.336 10.2311 2.92533 10.7165 2.636C11.2018 2.33733 11.7805 2.188 12.4525 2.188V3.574H12.0605C11.3418 3.574 10.7538 3.76067 10.2965 4.134C9.83912 4.498 9.61045 5.10467 9.61045 5.954V10H8.33645V2.314H9.61045V3.868ZM16.8595 2.216C17.6062 2.216 18.2362 2.40267 18.7495 2.776C19.2722 3.14933 19.6362 3.64867 19.8415 4.274V2.314H21.1155V10H19.8415V8.04C19.6362 8.66533 19.2722 9.16467 18.7495 9.538C18.2362 9.91133 17.6062 10.098 16.8595 10.098C16.1782 10.098 15.5715 9.93933 15.0395 9.622C14.5075 9.30467 14.0875 8.852 13.7795 8.264C13.4808 7.66667 13.3315 6.96667 13.3315 6.164C13.3315 5.36133 13.4808 4.66133 13.7795 4.064C14.0875 3.46667 14.5075 3.00933 15.0395 2.692C15.5715 2.37467 16.1782 2.216 16.8595 2.216ZM17.2235 3.35C16.4395 3.35 15.8095 3.602 15.3335 4.106C14.8668 4.60067 14.6335 5.28667 14.6335 6.164C14.6335 7.04133 14.8668 7.732 15.3335 8.236C15.8095 8.73067 16.4395 8.978 17.2235 8.978C17.7275 8.978 18.1755 8.86133 18.5675 8.628C18.9688 8.39467 19.2815 8.068 19.5055 7.648C19.7295 7.21867 19.8415 6.724 19.8415 6.164C19.8415 5.604 19.7295 5.10933 19.5055 4.68C19.2815 4.25067 18.9688 3.924 18.5675 3.7C18.1755 3.46667 17.7275 3.35 17.2235 3.35ZM25.5511 2.216C26.4191 2.216 27.1144 2.44467 27.6371 2.902C28.1691 3.35 28.4911 3.95667 28.6031 4.722H27.3851C27.3291 4.26467 27.1378 3.89133 26.8111 3.602C26.4938 3.30333 26.0644 3.154 25.5231 3.154C25.0658 3.154 24.7064 3.266 24.4451 3.49C24.1931 3.70467 24.0671 3.99867 24.0671 4.372C24.0671 4.652 24.1511 4.88067 24.3191 5.058C24.4964 5.226 24.7111 5.35667 24.9631 5.45C25.2244 5.534 25.5791 5.62733 26.0271 5.73C26.5964 5.86067 27.0538 5.996 27.3991 6.136C27.7538 6.26667 28.0524 6.48133 28.2951 6.78C28.5471 7.07867 28.6731 7.48 28.6731 7.984C28.6731 8.60933 28.4351 9.118 27.9591 9.51C27.4924 9.902 26.8671 10.098 26.0831 10.098C25.1684 10.098 24.4218 9.87867 23.8431 9.44C23.2644 9.00133 22.9238 8.39 22.8211 7.606H24.0531C24.0998 8.07267 24.3004 8.45067 24.6551 8.74C25.0191 9.02933 25.4951 9.174 26.0831 9.174C26.5218 9.174 26.8624 9.062 27.1051 8.838C27.3571 8.614 27.4831 8.32 27.4831 7.956C27.4831 7.65733 27.3944 7.41933 27.2171 7.242C27.0398 7.06467 26.8204 6.92933 26.5591 6.836C26.2978 6.74267 25.9384 6.64467 25.4811 6.542C24.9118 6.41133 24.4544 6.28067 24.1091 6.15C23.7731 6.01933 23.4838 5.814 23.2411 5.534C23.0078 5.24467 22.8911 4.85733 22.8911 4.372C22.8911 3.728 23.1291 3.21 23.6051 2.818C24.0811 2.41667 24.7298 2.216 25.5511 2.216ZM34.4215 2.188C35.3175 2.188 36.0408 2.47733 36.5915 3.056C37.1422 3.62533 37.4175 4.45133 37.4175 5.534V10H36.1435V5.646C36.1435 4.88067 35.9475 4.29267 35.5555 3.882C35.1635 3.47133 34.6315 3.266 33.9595 3.266C33.2595 3.266 32.6995 3.49467 32.2795 3.952C31.8595 4.4 31.6495 5.058 31.6495 5.926V10H30.3755V2.314H31.6495V4.134C31.8455 3.50867 32.1908 3.028 32.6855 2.692C33.1895 2.356 33.7682 2.188 34.4215 2.188ZM43.6136 2.216C44.2949 2.216 44.9016 2.37467 45.4336 2.692C45.9656 3.00933 46.3809 3.46667 46.6796 4.064C46.9876 4.66133 47.1416 5.36133 47.1416 6.164C47.1416 6.96667 46.9876 7.66667 46.6796 8.264C46.3809 8.852 45.9656 9.30467 45.4336 9.622C44.9016 9.93933 44.2949 10.098 43.6136 10.098C42.8669 10.098 42.2323 9.91133 41.7096 9.538C41.1963 9.15533 40.8416 8.656 40.6456 8.04V13.64H39.3716V2.314H40.6456V4.274C40.8416 3.658 41.1963 3.16333 41.7096 2.79C42.2323 2.40733 42.8669 2.216 43.6136 2.216ZM43.2496 3.35C42.7549 3.35 42.3069 3.46667 41.9056 3.7C41.5043 3.924 41.1916 4.25067 40.9676 4.68C40.7436 5.10933 40.6316 5.604 40.6316 6.164C40.6316 6.724 40.7436 7.21867 40.9676 7.648C41.1916 8.068 41.5043 8.39467 41.9056 8.628C42.3069 8.86133 42.7549 8.978 43.2496 8.978C44.0429 8.978 44.6729 8.73067 45.1396 8.236C45.6156 7.732 45.8536 7.04133 45.8536 6.164C45.8536 5.28667 45.6156 4.60067 45.1396 4.106C44.6729 3.602 44.0429 3.35 43.2496 3.35ZM52.2912 2.216C53.0285 2.216 53.6865 2.37467 54.2652 2.692C54.8532 3.00933 55.3105 3.46667 55.6372 4.064C55.9732 4.66133 56.1412 5.36133 56.1412 6.164C56.1412 6.96667 55.9732 7.66667 55.6372 8.264C55.3105 8.852 54.8532 9.30467 54.2652 9.622C53.6865 9.93933 53.0285 10.098 52.2912 10.098C51.5539 10.098 50.8912 9.93933 50.3032 9.622C49.7245 9.30467 49.2672 8.852 48.9312 8.264C48.5952 7.66667 48.4272 6.96667 48.4272 6.164C48.4272 5.36133 48.5952 4.66133 48.9312 4.064C49.2672 3.46667 49.7245 3.00933 50.3032 2.692C50.8912 2.37467 51.5539 2.216 52.2912 2.216ZM52.2912 3.336C51.8339 3.336 51.4092 3.43867 51.0172 3.644C50.6345 3.84933 50.3219 4.16667 50.0792 4.596C49.8459 5.016 49.7292 5.53867 49.7292 6.164C49.7292 6.78 49.8459 7.30267 50.0792 7.732C50.3219 8.152 50.6345 8.46467 51.0172 8.67C51.4092 8.87533 51.8339 8.978 52.2912 8.978C52.7485 8.978 53.1685 8.87533 53.5512 8.67C53.9432 8.46467 54.2559 8.152 54.4892 7.732C54.7319 7.30267 54.8532 6.78 54.8532 6.164C54.8532 5.53867 54.7319 5.016 54.4892 4.596C54.2559 4.16667 53.9432 3.84933 53.5512 3.644C53.1685 3.43867 52.7485 3.336 52.2912 3.336ZM59.0753 3.868C59.3273 3.336 59.696 2.92533 60.1813 2.636C60.6666 2.33733 61.2453 2.188 61.9173 2.188V3.574H61.5253C60.8066 3.574 60.2186 3.76067 59.7613 4.134C59.304 4.498 59.0753 5.10467 59.0753 5.954V10H57.8013V2.314H59.0753V3.868ZM66.8423 8.88V10H65.8903C65.1063 10 64.5183 9.81333 64.1263 9.44C63.7437 9.06667 63.5523 8.44133 63.5523 7.564V3.42H62.4043V2.314H63.5523V0.395999H64.8403V2.314H66.8283V3.42H64.8403V7.592C64.8403 8.08667 64.929 8.42733 65.1063 8.614C65.293 8.79133 65.6103 8.88 66.0583 8.88H66.8423Z" fill="#000"/>
</svg>
