<svg width="15" height="15" viewBox="0 0 15 15" fill="none" xmlns="http://www.w3.org/2000/svg">
<path d="M2.24378 0.82625L4.02128 0L6.5469 4.93125L4.84378 5.76937C4.50753 6.55625 6.19315 9.7 6.9044 9.75187C6.96065 9.71562 8.57378 8.92188 8.57378 8.92188L11.1425 13.8794C11.1425 13.8794 9.41503 14.7256 9.35878 14.7519C4.44565 16.9963 -2.57935 3.34062 2.24378 0.82625ZM3.45003 1.6225L2.81065 1.9375C-0.498099 3.66375 5.42128 15.1781 8.84065 13.6162L9.44753 13.32L8.02815 10.5806L7.3869 10.8931C5.41003 11.86 2.22315 5.75625 4.22753 4.68188L4.8569 4.37125L3.45003 1.6225ZM8.34503 6.40312L10.1681 6.94687C10.3075 6.48 10.2682 5.96 10.0182 5.49875C9.76877 5.03688 9.3544 4.71938 8.88815 4.58063L8.34503 6.40312ZM9.47253 2.61625C10.4419 2.905 11.3013 3.56375 11.82 4.52313C12.3394 5.48313 12.42 6.5625 12.1313 7.53125L11.0094 7.19688C11.2125 6.515 11.155 5.75563 10.7894 5.08C10.425 4.40438 9.82003 3.94125 9.13753 3.73875L9.47253 2.61625ZM10.0663 0.625C11.5444 1.06562 12.8556 2.07 13.6469 3.535C14.44 4.99937 14.5632 6.64625 14.1225 8.125L12.9725 7.7825C13.325 6.59812 13.2263 5.27875 12.5925 4.10625C11.9575 2.93313 10.9075 2.12812 9.72315 1.77562L10.0663 0.625Z" fill="#000"/>
</svg>
