<svg width="22" height="24" viewBox="0 0 22 24" fill="none" xmlns="http://www.w3.org/2000/svg">
<path d="M14.744 16.683L15.093 16.484V18.201L14.744 18.396V16.683ZM18.158 16.456L18.5 16.26V14.543L18.157 14.738V16.456H18.158ZM16.729 17.269L17.072 17.074V15.357L16.729 15.552V17.269ZM17.307 16.94L17.656 16.741V15.024L17.307 15.223V16.94ZM16.155 17.596L16.498 17.4V15.683L16.155 15.879V17.596ZM15.334 18.063L15.677 17.868V16.151L15.334 16.346V18.063ZM22 6.941V18.448L12.25 24L0 17.022V5.515L9.767 0L22 6.941ZM9.764 2.298L7.658 3.488L16.549 8.722L16.547 8.725L18.877 7.469L9.764 2.298ZM11 12.888L2 7.67V15.86L11 20.986V12.888ZM14.493 9.832L5.646 4.624L3.158 6.029L12.018 11.167L14.493 9.832ZM20 9.136L13 12.909V21.271L20 17.286V9.136Z" fill="#000"/>
</svg>
