<svg width="60" height="56" viewBox="0 0 60 56" fill="none" xmlns="http://www.w3.org/2000/svg">
<path fill-rule="evenodd" clip-rule="evenodd" d="M12.5 55.5H7.5V30.5L29.9775 10.4875C32.7875 12.9825 35.6025 15.48 38.4225 17.9775L44.06 22.97C46.8775 25.4675 49.69 28.0025 52.5 30.5V55.5H47.5V32.705L29.9775 17.1675L12.5 32.7175V55.5ZM17.5 50.5H42.5V55.5H17.5V50.5ZM17.5 43H42.5V48H17.5V43ZM42.5 35.5V40.5H17.5V35.5H42.5ZM30 0.5L60 27.08L56.68 30.8125L30 7.11L3.32 30.8125L0 27.08L30 0.5Z" fill="#000"/>
</svg>
